<?xml version="1.0" encoding="UTF-8" standalone="no"?>
<!-- Created with Inkscape (http://www.inkscape.org/) -->

<svg
   width="22.292877mm"
   height="22.62825mm"
   viewBox="0 0 22.292877 22.62825"
   version="1.1"
   id="svg5"
   xml:space="preserve"
   xmlns:inkscape="http://www.inkscape.org/namespaces/inkscape"
   xmlns:sodipodi="http://sodipodi.sourceforge.net/DTD/sodipodi-0.dtd"
   xmlns="http://www.w3.org/2000/svg"
   xmlns:svg="http://www.w3.org/2000/svg"><sodipodi:namedview
     id="namedview7"
     pagecolor="#505050"
     bordercolor="#eeeeee"
     borderopacity="1"
     inkscape:showpageshadow="0"
     inkscape:pageopacity="0"
     inkscape:pagecheckerboard="0"
     inkscape:deskcolor="#505050"
     inkscape:document-units="mm"
     showgrid="false" /><defs
     id="defs2" /><g
     inkscape:label="Camada 1"
     inkscape:groupmode="layer"
     id="layer1"
     transform="translate(-123.30455,-17.394924)"><path
       style="fill:#ffffff;stroke-width:0.0846667"
       d="m 127.03224,40.023174 h -0.17068 l -0.13384,-0.3175 -0.13385,-0.3175 0.10299,-0.93133 0.103,-0.93134 0.2,-0.42333 0.20001,-0.42333 0.14316,-0.48705 0.14316,-0.48705 0.18349,-0.19799 0.18349,-0.19799 0.34951,-0.0559 0.34951,-0.0559 0.0535,-0.16848 0.0535,-0.16848 -0.0581,-0.094 -0.0581,-0.094 -0.2628,0.0526 -0.26279,0.0526 -0.34077,0.2309 -0.34077,0.2309 -0.0508,0.0693 -0.0508,0.0693 -0.23408,0.12144 -0.23408,0.12144 h -0.16175 -0.16175 l -0.071,-0.1905 -0.071,-0.1905 -0.0564,-0.38473 -0.0565,-0.38474 0.32735,-0.14443 0.32736,-0.14443 h 0.0891 0.0891 l 0.34085,-0.39219 0.34085,-0.39218 0.73115,-0.0666 0.73115,-0.0666 0.14359,-0.11268 0.14358,-0.11267 0.10617,-0.0998 0.10616,-0.0998 v -0.0484 -0.0484 l -0.35983,5.1e-4 -0.35983,5e-4 -0.33867,0.0938 -0.33867,0.0938 -0.21166,0.14738 -0.21167,0.14738 -0.23128,0.0559 -0.23128,0.0559 -0.27672,0.23725 -0.27672,0.23725 -0.3175,0.19177 -0.3175,0.19176 v 0.0751 0.0751 l -0.11093,-0.0426 -0.11092,-0.0426 -0.33019,0.22407 -0.33019,0.22408 -0.13039,-0.0816 -0.13038,-0.0816 -0.0254,-0.21001 -0.0254,-0.21002 0.33745,-0.67626 0.33745,-0.67625 0.35696,-0.11781 0.35696,-0.11781 0.27738,-0.2616 0.27739,-0.26161 0.49295,-0.24761 0.49295,-0.24762 0.27215,-0.18259 0.27215,-0.1826 0.38213,-0.0573 0.38213,-0.0573 0.40405,-0.222 0.40406,-0.222 0.19909,-0.15187 0.19909,-0.15187 0.30891,-0.051 0.30891,-0.051 0.21167,-0.0842 0.21166,-0.0842 0.27741,-0.34464 0.27741,-0.34463 -0.0442,-0.0442 -0.0442,-0.0442 -0.31792,0.0954 -0.31792,0.0953 -0.68578,0.12999 -0.68578,0.12999 h -0.55259 -0.55259 l -0.35056,0.33015 -0.35056,0.33016 -0.1044,0.0542 -0.10441,0.0542 -0.21166,0.12243 -0.21167,0.12243 -0.23026,0.001 -0.23026,10e-4 -0.30148,0.16933 -0.30148,0.16933 h -0.2091 -0.20909 v 0.0744 0.0744 l -0.25248,0.10458 -0.25248,0.10458 -0.12241,-0.047 -0.12241,-0.047 -0.0302,-0.23783 -0.0302,-0.23783 0.20355,-0.42334 0.20355,-0.42333 0.138,-0.13014 0.138,-0.13013 0.29634,-0.11664 0.29633,-0.11664 0.14875,-0.12671 0.14875,-0.12671 0.18992,-0.10958 0.18991,-0.10958 0.60698,-0.29873 0.60698,-0.29872 0.45808,-0.17139 0.45807,-0.17138 0.34515,-0.29544 0.34516,-0.29544 0.19846,-0.0764 0.19846,-0.0764 -0.127,-0.0403 -0.127,-0.0403 -0.59695,-0.0921 -0.59695,-0.0921 -0.56722,0.17017 -0.56722,0.17017 v 0.0724 0.0724 l -0.25376,0.0885 -0.25377,0.0885 -0.2943,0.22447 -0.29429,0.22447 -0.29875,0.008 -0.29876,0.008 -0.0922,-0.0922 -0.0922,-0.0922 -0.0135,-0.28158 -0.0135,-0.28159 0.67734,-0.33451 0.67733,-0.33452 0.045,-0.0667 0.045,-0.0668 0.46811,-0.12192 0.46811,-0.12193 0.90267,-0.43215 0.90267,-0.43214 h 0.1667 0.16671 l 0.0532,-0.0861 0.0532,-0.0861 0.0727,0.0449 0.0727,0.0449 0.41181,-0.16232 0.41181,-0.16233 0.63694,-0.11867 0.63693,-0.11868 0.24327,0.0651 0.24328,0.0651 0.3863,-0.006 0.3863,-0.006 0.58772,0.007 0.58772,0.007 0.16096,-0.14567 0.16096,-0.14566 0.0853,-0.15933 0.0853,-0.15933 -0.11428,0.0737 -0.11429,0.0737 -0.29633,0.0175 -0.29633,0.0175 -0.6586,0.11866 -0.6586,0.11866 -0.0481,-0.0778 -0.0481,-0.0778 -0.85963,0.0512 -0.85964,0.0512 -0.762,0.12968 -0.762,0.12969 -0.14702,0.0783 -0.14701,0.0783 h -0.0899 -0.0899 l -0.35048,0.16934 -0.35048,0.16933 h -0.1043 -0.10424 l -0.23969,0.12566 -0.23969,0.12567 -0.49609,0.21608 -0.49608,0.21609 -0.0963,0.0181 -0.0963,0.0181 -0.085,0.095 -0.085,0.095 -0.28643,0.095 -0.28642,0.095 -0.53139,0.3356 -0.5314,0.33561 -0.21935,0.0551 -0.21934,0.055 v 0.073 0.073 l -0.33876,0.19303 -0.33876,0.19303 -0.0483,0.1494 -0.0483,0.14939 -0.0758,-0.0469 -0.0758,-0.0468 -0.1078,0.17262 -0.10781,0.17261 h -0.15106 -0.15106 l -0.0873,-0.22951 -0.0873,-0.22951 0.14208,-0.37203 0.14208,-0.37203 0.37348,-0.42051 0.37348,-0.42052 0.61096,-0.54362 0.61096,-0.54361 0.0719,-6.6e-4 0.0719,-6.6e-4 0.30913,-0.14462 0.30913,-0.14462 0.0847,-0.098 0.0847,-0.098 0.33867,-0.16958 0.33866,-0.16958 0.24011,-0.114 0.24011,-0.114 0.21693,-0.20105 0.21693,-0.20104 0.67937,-0.37578 0.67937,-0.37579 0.0811,0.0811 0.0811,0.0811 0.0102,0.31208 0.0102,0.31207 -0.127,0.0653 -0.127,0.0653 -0.46567,0.19964 -0.46567,0.19964 -0.26499,0.26667 -0.265,0.26668 -0.20067,0.068 -0.20067,0.068 -0.0635,-0.0168 -0.0635,-0.0168 v 0.0847 0.0847 h -0.11012 -0.11012 l -0.22789,0.10583 -0.22788,0.10584 -6.6e-4,0.0635 -6.6e-4,0.0635 h -0.127 -0.127 v 0.0847 0.0847 h -0.11664 -0.11663 l -0.10459,0.12602 -0.10459,0.12603 0.58106,-0.26229 0.58105,-0.26229 0.635,-0.29639 0.635,-0.29638 0.381,-0.14893 0.381,-0.14894 0.80434,-0.236 0.80433,-0.23601 0.21167,-0.0351 0.21166,-0.0351 1.60867,-0.0699 1.60867,-0.0699 0.67733,-0.14582 0.67733,-0.14583 0.3916,-0.19774 0.39161,-0.19774 0.0577,-0.15048 0.0577,-0.15048 -0.0683,-0.0231 -0.0683,-0.0231 -0.29634,-0.18732 -0.29633,-0.18732 -0.254,-0.0901 -0.254,-0.0901 -0.254,0.14374 -0.254,0.14374 -0.46567,0.0592 -0.46566,0.0592 -0.29634,0.0113 -0.29633,0.0113 -0.0876,0.0572 -0.0876,0.0572 -0.51386,0.0581 -0.51385,0.0581 -0.0468,-0.17887 -0.0468,-0.17887 h -0.13913 -0.13914 l -0.27096,0.14371 -0.27096,0.14371 -0.0847,0.006 -0.0847,0.006 -0.1905,0.0675 -0.1905,0.0675 v 0.079 0.079 h -0.20869 -0.20869 l -0.0876,-0.16377 -0.0877,-0.16376 v -0.1584 -0.1584 l 0.75947,-0.7785 0.75947,-0.7785 h 0.11477 0.11478 l 0.20526,-0.21971 0.20526,-0.21972 0.2356,-0.12256 0.2356,-0.12256 -0.046,-0.0744 -0.0459,-0.0744 -0.47971,0.16861 -0.47972,0.16861 -0.14048,-0.0367 -0.14048,-0.0367 0.0399,0.20851 0.0399,0.20851 -0.15868,-0.0306 -0.15867,-0.0305 -0.15178,0.15178 -0.15179,0.15179 -0.24694,0.0494 -0.24695,0.0494 -0.23724,0.24195 -0.23724,0.24195 -0.17194,0.002 -0.17194,0.002 -0.0938,-0.24858 -0.0938,-0.24858 0.11423,-0.16309 0.11423,-0.16308 0.27853,-0.11428 0.27854,-0.11427 0.2108,-0.19373 0.21081,-0.19372 0.12786,-0.01 0.12787,-0.01 0.0662,0.0109 0.0662,0.0109 0.396,-0.18041 0.39601,-0.1804 0.25748,-0.0398 0.25748,-0.0398 0.0252,-0.068 0.0252,-0.068 0.17793,0.0465 0.17794,0.0465 0.11258,-0.15397 0.11259,-0.15397 0.30157,0.0113 0.30157,0.0113 -0.0377,-0.061 -0.0377,-0.0611 h 0.20358 0.20358 v 0.0635 0.0635 h 0.0753 0.0753 l -0.0118,-0.144 -0.0118,-0.14399 0.29152,-0.0256 0.29152,-0.0256 0.0489,-0.079 0.0489,-0.079 0.23617,0.0259 0.23617,0.0259 0.11591,-0.11591 0.11591,-0.11591 h 0.13305 0.13304 v -0.0847 -0.0847 h 0.21587 0.21588 l 0.22862,-0.11886 0.22863,-0.11887 0.3679,-0.29194 0.36789,-0.29194 0.21925,0.0241 0.21925,0.0241 0.39112,-0.10009 0.39112,-0.1001 0.0166,-0.0635 0.0166,-0.0635 v -0.0527 -0.0527 l 0.13345,0.11076 0.13345,0.11075 0.057,-0.0802 0.0571,-0.0802 0.254,-0.0156 0.254,-0.0156 0.31614,-0.0561 0.31613,-0.0561 0.0824,0.21663 0.0824,0.21663 0.0248,0.38508 0.0248,0.38507 0.0847,0.003 0.0847,0.003 -0.13443,0.10314 -0.13443,0.10314 0.0324,0.096 0.0324,0.096 -0.13967,0.13967 -0.13967,0.13967 0.0567,0.3022 0.0567,0.30219 0.10707,-0.14642 0.10706,-0.14643 0.1838,0.0984 0.1838,0.0984 0.11925,0.18752 0.11924,0.18752 0.10089,0.4987 0.10089,0.4987 -0.005,0.30563 -0.005,0.30563 0.0872,0.67251 0.0872,0.6725 0.11205,0.2167 0.11206,0.21669 0.18667,0.16894 0.18667,0.16893 0.1187,0.22954 0.1187,0.22953 0.0876,0.65967 0.0876,0.65966 0.0912,0.254 0.0912,0.254 0.19436,0.43093 0.19437,0.43094 0.11335,0.1194 0.11335,0.1194 0.21167,0.381 0.21167,0.381 0.006,1.05833 0.006,1.05833 0.0506,0.127 0.0506,0.127 0.0495,0.22671 0.0495,0.22671 -0.12953,0.12953 -0.12953,0.12953 -0.12082,-0.0464 -0.12083,-0.0464 0.0925,0.2828 0.0926,0.2828 0.0392,0.35923 0.0392,0.35924 -0.14699,0.0564 -0.14698,0.0564 -0.13634,-0.086 -0.13633,-0.086 -0.29666,-0.72611 -0.29666,-0.72611 -0.18725,-0.16098 -0.18725,-0.16098 -0.0929,-0.24436 -0.0929,-0.24436 -0.11646,-0.59519 -0.11645,-0.59519 -0.31013,-0.59267 -0.31014,-0.59267 -0.12151,-0.22593 -0.12152,-0.22593 -0.12403,-0.66307 -0.12403,-0.66307 -0.22304,-0.71966 -0.22304,-0.71967 -0.11903,-0.1372 -0.11904,-0.1372 -0.39897,-0.78848 -0.39897,-0.78848 -0.0847,0.0367 -0.0847,0.0367 0.0281,0.0847 0.0281,0.0847 -0.20293,-0.1905 -0.20293,-0.1905 h -0.058 -0.058 v 0.14 0.14 l 0.2095,0.44284 0.20949,0.44283 0.21799,0.58134 0.21798,0.58133 0.13237,0.42333 0.13238,0.42333 0.25074,0.49683 0.25074,0.49682 0.30041,1.15418 0.3004,1.15417 0.15136,0.67734 0.15135,0.67733 0.21301,0.762 0.21301,0.762 0.12718,0.59267 0.12719,0.59266 0.13909,0.59267 0.1391,0.59267 0.0472,1.06739 0.0472,1.06739 -0.10046,0.57686 -0.10046,0.57685 -0.16434,0.34016 -0.16435,0.34015 -9.3e-4,0.21693 -9.3e-4,0.21693 -0.0537,0.32487 -0.0537,0.32487 -0.12042,0.0462 -0.12041,0.0462 -0.0834,-0.0834 -0.0834,-0.0834 -0.12156,-0.75337 -0.12156,-0.75338 -0.0788,-0.21167 -0.0788,-0.21166 -0.0484,-0.762 -0.0484,-0.762 -0.17409,-1.05834 -0.17408,-1.05833 -0.17368,-0.635 -0.17367,-0.635 -0.62473,-1.89407 -0.62472,-1.89408 -0.25128,-0.51892 -0.25128,-0.51893 -0.46737,-1.016 -0.46736,-1.016 -0.10892,-0.0191 -0.10892,-0.0191 -0.18347,0.28955 -0.18348,0.28956 0.0565,0.0259 0.0565,0.0259 0.18045,0.25813 0.18044,0.25814 0.21183,0.4192 0.21182,0.41919 0.10276,0.49741 0.10276,0.4974 0.15614,0.45381 0.15613,0.45381 0.0952,0.86912 0.0952,0.86912 0.12379,0.71967 0.12379,0.71966 0.1226,0.67734 0.12261,0.67733 0.17437,0.92038 0.17438,0.92038 0.0494,0.77296 0.0494,0.77295 -0.14954,0.508 -0.14955,0.508 -0.0236,0.46566 -0.0236,0.46567 -0.11541,0.381 -0.11541,0.381 -0.18178,0.0264 -0.18178,0.0264 -0.12611,-0.19569 -0.12612,-0.19569 -0.13381,-0.52243 -0.1338,-0.52243 -0.0792,-1.1785 -0.0792,-1.17851 -0.13843,-0.7544 -0.13843,-0.75439 -0.12695,-0.635 -0.12695,-0.635 -0.19795,-0.635 -0.19795,-0.635 -0.43755,-1.35467 -0.43756,-1.35467 -0.38972,-0.57268 -0.38972,-0.57268 -0.0823,0.0823 -0.0823,0.0823 0.0867,0.10942 0.0867,0.10942 0.18782,0.508 0.18783,0.508 0.11489,0.65095 0.1149,0.65094 0.12199,0.23806 0.12199,0.23805 0.10354,0.508 0.10354,0.508 0.16131,0.42334 0.16132,0.42333 0.0916,0.59267 0.0916,0.59266 0.041,1.12219 0.041,1.12219 -0.0855,0.5491 -0.0855,0.54909 -0.23858,0.20988 -0.23858,0.20987 -0.15027,0.003 -0.15026,0.003 -0.0805,-0.21167 -0.0805,-0.21166 h -0.0742 -0.0742 l -0.26724,-0.57978 -0.26723,-0.57978 -0.0814,-0.62672 -0.0814,-0.62672 -0.003,-0.45264 -0.003,-0.45263 -0.11525,-0.43637 -0.11525,-0.43636 -0.0981,-0.42334 -0.0981,-0.42333 -0.26604,-0.84667 -0.26604,-0.84666 -0.11331,-0.0677 -0.1133,-0.0677 -0.13915,-0.26909 -0.13916,-0.2691 -0.0714,0.19303 -0.0714,0.19303 0.20498,0.50446 0.20498,0.50445 0.14155,0.65532 0.14155,0.65532 0.1961,0.71966 0.19611,0.71967 0.0544,0.40401 0.0544,0.40401 -0.098,0.82366 -0.098,0.82365 -0.072,0.0876 -0.072,0.0876 -0.086,0.53413 -0.086,0.53412 -0.21867,0.37314 -0.21868,0.37314 h -0.11767 -0.11766 l -0.16022,-0.23283 -0.16022,-0.23284 -0.29004,-0.71966 -0.29005,-0.71967 -0.004,-1.18533 -0.004,-1.18534 -0.18801,-0.66405 -0.18801,-0.66406 -0.12727,-0.24611 -0.12727,-0.24611 h -0.0734 -0.0734 l -0.0487,0.1268 -0.0487,0.12679 0.16134,0.27537 0.16134,0.27537 0.17678,0.635 0.17678,0.635 -0.0161,0.55034 -0.016,0.55033 -0.066,0.254 -0.066,0.254 -0.0928,0.33867 -0.0928,0.33866 -0.0229,0.10669 -0.0229,0.1067 -0.10074,0.10074 -0.10074,0.10074 v 0.0913 0.0913 l -0.17731,0.15182 -0.17731,0.15181 -0.12029,-0.0462 -0.1203,-0.0462 -0.0964,-0.23501 -0.0964,-0.235 -0.0192,-0.29633 -0.0192,-0.29634 -0.0192,-0.69316 -0.0192,-0.69316 -0.21485,-0.25934 -0.21485,-0.25934 h -0.10895 -0.10896 l -0.18114,0.25439 -0.18114,0.2544 0.0552,0.4441 0.0552,0.44411 -0.20999,0.30877 -0.20998,0.30877 -0.0613,0.19923 -0.0613,0.19923 -0.39164,0.35792 -0.39163,0.35792 -0.20129,0.19242 -0.2013,0.19241 -0.1162,0.27245 -0.11621,0.27245 v 0.26228 0.26229 l -0.0876,0.16376 -0.0876,0.16377 z m 11.19263,-1.82033 0.0643,-0.59267 0.0902,-0.29577 0.0902,-0.29578 v -0.40767 -0.40768 l -0.0905,-0.60888 -0.0905,-0.60889 -0.11489,-0.46566 -0.11489,-0.46567 -0.17864,-0.97367 -0.17865,-0.97366 -0.0817,-0.36105 -0.0817,-0.36105 v -0.29508 -0.29508 l -0.13513,-0.78321 -0.13512,-0.7832 -0.0384,-0.0621 -0.0384,-0.0621 -0.21352,-0.82686 -0.21351,-0.82687 -0.13221,-0.21167 -0.1322,-0.21166 -0.16714,-0.18439 -0.16715,-0.18438 -0.11828,0.0454 -0.11829,0.0454 -0.12586,0.43533 -0.12586,0.43532 -0.008,0.55034 -0.008,0.55033 0.24957,0.55033 0.24957,0.55034 0.30169,0.97366 0.30169,0.97367 0.21357,0.71967 0.21358,0.71966 0.12753,0.508 0.12753,0.508 0.2165,1.35467 0.21649,1.35467 0.001,0.42333 0.002,0.42333 0.0849,0.381 0.0849,0.381 0.0549,0.127 0.0549,0.127 0.0643,-0.59266 z m -5.33392,-0.21167 h 0.0532 l 0.10392,-0.40217 0.10391,-0.40216 0.12654,-0.381 0.12653,-0.381 0.0443,-0.762 0.0443,-0.762 -0.17476,-0.53003 -0.17476,-0.53003 -0.18231,-0.86561 -0.1823,-0.86562 -0.14017,-0.29769 -0.14018,-0.29769 h -0.15597 -0.15597 l -0.26407,0.36454 -0.26407,0.36455 0.0979,0.0605 0.0979,0.0605 0.096,0.25228 0.096,0.25228 0.0745,0.65236 0.0745,0.65236 0.13114,0.2536 0.13114,0.2536 -2e-5,1.12604 -1e-5,1.12604 0.18976,0.52916 0.18976,0.52917 z m 8.20336,-0.56581 0.0623,-0.0692 0.14933,-0.40134 0.14932,-0.40134 -0.0491,-1.33433 -0.0491,-1.33432 -0.33614,-1.31234 -0.33613,-1.31233 -0.16675,-0.59267 -0.16675,-0.59266 -0.27453,-1.143 -0.27453,-1.143 -0.21042,-0.635 -0.21042,-0.635 -0.10316,-0.127 -0.10316,-0.127 -0.28243,-0.80434 -0.28243,-0.80433 -0.20076,-0.45456 -0.20075,-0.45456 -0.15565,0.14087 -0.15566,0.14086 -0.17963,0.4694 -0.17963,0.46939 v 0.28289 0.2829 l 0.24603,0.53507 0.24602,0.53507 0.31528,0.67734 0.31528,0.67733 0.25023,0.67733 0.25023,0.67734 0.0656,0.254 0.0656,0.254 0.27106,0.762 0.27106,0.762 0.28253,0.97366 0.28252,0.97367 0.17087,0.93133 0.17087,0.93134 0.0917,0.6154 0.0917,0.61541 v 0.41483 0.41484 l 0.0536,0.13962 0.0536,0.13961 z m -12.99841,-0.40554 0.38297,-0.42101 v -0.14751 -0.1475 l -0.16087,-0.0861 -0.16087,-0.0861 -0.0508,0.13237 -0.0508,0.13237 -3.1e-4,0.22591 -3.1e-4,0.22591 -0.171,0.29633 -0.17099,0.29634 0.38298,-0.42102 z m 7.51646,0.35741 0.10179,-0.0339 0.11149,-0.37456 0.11149,-0.37457 -0.0382,-0.97367 -0.0382,-0.97366 -0.09,-0.51844 -0.09,-0.51845 -0.21431,-0.65653 -0.21432,-0.65653 -0.002,-0.17969 -0.002,-0.1797 -0.17305,-0.381 -0.17305,-0.381 -0.12701,-0.66841 -0.127,-0.66841 -0.13061,-0.32642 -0.13061,-0.32642 h -0.23904 -0.23904 l -0.1751,0.2459 -0.1751,0.2459 v 0.15944 0.15944 l 0.4295,1.26682 0.4295,1.26683 0.16659,0.762 0.16659,0.762 0.0782,0.46567 0.0782,0.46566 0.0937,0.762 0.0937,0.762 0.20785,0.45083 0.20786,0.45083 0.10179,-0.0339 z m -4.63953,-0.99473 0.10667,-0.381 -0.0185,-0.55033 -0.0185,-0.55033 -0.0848,-0.35829 -0.0848,-0.35828 -0.0994,-0.11981 -0.0994,-0.11981 -0.16622,0.0435 -0.16622,0.0435 v 0.0547 0.0547 l 0.1905,0.0836 0.1905,0.0836 0.0509,1.18533 0.0509,1.18534 0.0209,0.0423 0.0209,0.0423 z m -0.74418,-1.89088 0.0564,-0.0564 -0.0564,-0.0564 -0.0564,-0.0565 v 0.11289 0.11289 z m -1.10067,-2.62467 0.0564,-0.0564 -0.0564,-0.0564 -0.0564,-0.0564 v 0.11288 0.11289 z m 0.64881,0.008 0.45125,0.016 0.18375,-0.32694 0.18375,-0.32694 v -0.0504 -0.0504 l -0.63238,0.31591 -0.63238,0.31592 -0.003,0.0454 -0.003,0.0454 0.45125,0.016 z m 12.80602,-1.77887 0.0356,-0.0356 -0.0957,-0.71144 -0.0957,-0.71144 -0.19391,-0.25509 -0.1939,-0.2551 -0.17386,-0.68268 -0.17386,-0.68268 -0.17347,-0.39217 -0.17348,-0.39218 -0.0302,-0.85616 -0.0302,-0.85616 -0.17549,-0.18681 -0.1755,-0.1868 -0.13192,-0.31573 -0.13192,-0.31573 -0.0495,-0.78378 -0.0495,-0.78378 -0.15804,-0.33867 -0.15803,-0.33867 -0.15935,-0.20055 -0.15935,-0.20055 -0.18912,0.10121 -0.18912,0.10121 0.0446,0.1162 0.0446,0.11619 -0.12269,-0.0471 -0.12269,-0.0471 v 0.27489 0.2749 l -0.14606,0.1068 -0.14606,0.1068 0.4575,0.91853 0.4575,0.91853 0.0504,0.0423 0.0503,0.0423 0.13657,0.21514 0.13657,0.21513 0.25514,0.80087 0.25514,0.80086 0.0964,0.635 0.0964,0.635 0.2811,0.42512 0.2811,0.42511 0.35068,0.99864 0.35068,0.99863 0.0915,0.171 0.0915,0.171 0.0356,-0.0356 z m -15.36357,-0.0636 h 0.12129 l 0.20934,-0.14326 0.20933,-0.14325 0.0622,-0.0896 0.0622,-0.0896 0.001,-0.057 10e-4,-0.057 -0.2403,0.11988 -0.24031,0.11988 -0.15382,0.16996 -0.15381,0.16996 h 0.12128 z m 15.77997,-0.67733 h 0.0423 v -0.0423 -0.0423 h -0.0423 -0.0423 v 0.0423 0.0423 z m 0.0425,-0.36075 0.0703,-0.23375 -0.0855,-0.31658 -0.0855,-0.31659 -0.0821,-0.0847 -0.0821,-0.0847 0.09,0.23835 0.09,0.23834 0.007,0.39666 0.007,0.39665 0.0703,-0.23375 z m -12.89033,-0.15247 0.74046,-0.14708 0.44221,-0.0997 0.44221,-0.0997 -0.17464,-0.23621 -0.17465,-0.23622 -0.39456,0.0373 -0.39457,0.0373 -0.21167,0.0982 -0.21166,0.0982 -0.24891,0.23431 -0.24891,0.23431 h -0.14826 -0.14826 l -0.045,0.0729 -0.045,0.0729 0.0404,0.0404 0.0404,0.0404 z m 1.75646,-0.41811 h 0.0423 v -0.0423 -0.0423 h -0.0423 -0.0423 v 0.0423 0.0423 z m 1.43282,-0.69292 0.19323,-0.19608 0.10268,-0.19529 0.10268,-0.19529 -0.32304,0.0386 -0.32304,0.0386 -0.27516,0.0615 -0.27517,0.0615 v 0.0649 0.0649 l 0.20922,0.0525 0.20922,0.0525 0.0931,0.17391 0.0931,0.17392 z m 9.3699,0.18492 h 0.0885 l -0.16219,-0.23284 -0.16219,-0.23283 -0.10162,-0.16933 -0.10162,-0.16934 0.0552,0.21167 0.0552,0.21167 0.12014,0.1905 0.12013,0.1905 z m -10.8635,-1.19665 0.27789,0.0113 0.30395,-0.127 0.30395,-0.127 h 0.21011 0.21012 l 0.58625,-0.30807 0.58626,-0.30806 -0.0338,-0.0338 -0.0338,-0.0338 -0.21879,0.0997 -0.2188,0.0997 -0.23778,-0.0985 -0.23778,-0.0985 -0.24882,-0.0451 -0.24883,-0.0451 -0.59671,0.097 -0.5967,0.097 -0.46567,0.12566 -0.46567,0.12566 -0.40217,0.12755 -0.40216,0.12754 v 0.0779 0.0779 l 0.40216,0.007 0.40217,0.007 0.42334,0.0659 0.42333,0.0659 0.27788,0.0113 z m 5.27215,-4.47602 h 0.0608 l 0.144,-0.21977 0.14401,-0.21978 -0.1766,-0.12369 -0.1766,-0.1237 v -0.14336 -0.14337 h -0.3175 -0.3175 l -0.14564,-0.2918 -0.14564,-0.2918 0.0394,-0.0394 0.0394,-0.0394 0.33908,0.11191 0.33909,0.11191 v 0.0593 0.0593 l 0.29652,-0.0235 0.29652,-0.0235 0.25382,-0.11235 0.25381,-0.11235 v -0.0579 -0.058 l 0.11128,-0.11188 0.11128,-0.11188 0.31408,-0.49164 0.31407,-0.49164 -0.0524,-0.0848 -0.0524,-0.0848 -0.2671,0.0559 -0.26711,0.0559 -0.59267,0.27444 -0.59266,0.27445 -0.1162,0.1403 -0.1162,0.1403 h -0.0752 -0.0752 l -0.40125,0.18398 -0.40124,0.18397 -0.0399,0.0323 -0.0399,0.0323 0.0903,0.0589 0.0903,0.0589 0.057,0.23283 0.057,0.23283 h -0.0495 -0.0495 l -0.16377,-0.0876 -0.16377,-0.0876 v -0.11902 -0.11903 l -0.0991,-0.0612 -0.0991,-0.0612 0.0541,0.14088 0.0541,0.14089 h -0.077 -0.077 l -0.0475,-0.0769 -0.0475,-0.0769 -0.3239,0.1565 -0.32391,0.15649 -0.1096,0.13206 -0.1096,0.13207 h -0.0858 -0.0858 l -0.71034,0.35028 -0.71034,0.35027 -0.0402,0.065 -0.0402,0.065 0.35985,-0.0422 0.35985,-0.0422 0.97639,-0.19573 0.97639,-0.19574 0.35366,0.0647 0.35366,0.0647 0.23628,0.15567 0.23629,0.15567 0.14813,0.0115 0.14812,0.0115 0.0565,0.0565 0.0565,0.0565 z m -0.0467,-0.16933 h -0.0423 v -0.0423 -0.0423 h 0.0423 0.0423 v 0.0423 0.0423 z m -4.99533,-0.30805 0.127,-0.0487 v -0.0333 -0.0333 h -0.127 -0.127 v 0.082 0.082 z m 0.35983,-0.23916 0.14817,-0.0573 0.23283,-0.047 0.23284,-0.047 v -0.12213 -0.12212 l 0.17942,0.057 0.17942,0.057 0.19869,-0.10634 0.19869,-0.10633 -0.0444,-0.0719 -0.0444,-0.0719 h 0.12293 0.12294 l 0.0455,-0.11847 0.0455,-0.11848 0.30226,-0.0998 0.30226,-0.0998 v -0.0885 -0.0885 l 0.127,0.1054 0.127,0.1054 v -0.13736 -0.13737 h 0.0882 0.0882 l 0.17508,-0.16311 0.17508,-0.16311 0.11258,0.0432 0.11257,0.0432 0.11017,-0.17642 0.11018,-0.17642 h 0.14631 0.14631 l -0.0555,0.14817 -0.0555,0.14817 0.12947,-0.1051 0.12948,-0.1051 0.0557,0.0557 0.0557,0.0557 v -0.2389 -0.2389 l 0.16933,0.15324 0.16933,0.15325 v -0.17746 -0.17746 l 0.10341,-0.0639 0.10341,-0.0639 0.25199,0.0192 0.25199,0.0192 -0.0585,-0.0585 -0.0585,-0.0585 0.18996,-0.13368 0.18996,-0.13368 0.29633,-0.004 0.29634,-0.004 0.381,-0.0187 0.381,-0.0188 0.1905,-0.2941 0.1905,-0.2941 v -0.0957 -0.0957 l -0.1905,0.0552 -0.1905,0.0552 -0.50245,0.0861 -0.50245,0.0861 -0.39736,0.17094 -0.39737,0.17095 -0.14906,0.0219 -0.14907,0.0219 -0.10817,0.14793 -0.10817,0.14793 -0.11295,0.0229 -0.11295,0.0229 -0.22126,0.0912 -0.22126,0.0912 -0.0462,0.17666 -0.0462,0.17667 -0.21938,-0.0834 -0.21937,-0.0834 v 0.0643 0.0643 l -0.24882,0.14698 -0.24882,0.14698 -0.11101,-0.0229 -0.11102,-0.0229 -0.0704,-0.0847 -0.0703,-0.0847 0.0514,0.23507 0.0514,0.23506 -0.31967,-0.0355 -0.31968,-0.0355 -0.22688,0.25352 -0.22688,0.25352 0.0507,0.13202 0.0507,0.13203 -0.19368,-0.0507 -0.19368,-0.0506 -0.32692,0.20637 -0.32691,0.20638 h -0.0481 -0.0481 l -0.20763,0.22403 -0.20762,0.22403 v 0.039 0.039 z m 1.53518,-1.06146 h -0.0847 l 0.0523,-0.0847 0.0523,-0.0847 h 0.0847 0.0847 l -0.0523,0.0847 -0.0523,0.0847 z m 2.59232,0.67733 h 0.0423 v -0.0423 -0.0423 h -0.0423 -0.0423 v 0.0423 0.0423 z m 0.33867,0 h 0.0423 v -0.0423 -0.0423 h -0.0423 -0.0423 v 0.0423 0.0423 z m -6.01133,-0.16933 h 0.0423 v -0.0423 -0.0423 h -0.0423 -0.0423 v 0.0423 0.0423 z m 9.66611,-0.28222 0.0564,-0.0564 -0.0564,-0.0564 -0.0564,-0.0564 v 0.11289 0.11289 z m -0.18345,-0.22578 h 0.0423 v -0.0423 -0.0423 h -0.0423 -0.0423 v 0.0423 0.0423 z m -7.45066,-0.16933 h 0.0423 v -0.0423 -0.0423 h -0.0423 -0.0423 v 0.0423 0.0423 z m 6.731,-2.20134 h 0.0847 v -0.0847 -0.0847 h -0.0847 -0.0847 v 0.0847 0.0847 z m 5.08,13.54667 h -0.0639 l -0.0871,-0.10583 -0.0871,-0.10584 -0.0517,-0.381 -0.0517,-0.381 -0.0358,-0.50059 -0.0358,-0.50059 -0.17294,-0.55774 -0.17294,-0.55774 -0.17667,-0.67734 -0.17666,-0.67733 -0.1705,-0.67733 -0.1705,-0.67734 -0.16,-0.635 -0.16,-0.635 -0.13812,-1.05833 -0.13812,-1.05833 -0.15217,-0.33867 -0.15217,-0.33867 -0.0945,-0.35327 -0.0944,-0.35328 -0.0739,-0.0277 -0.0739,-0.0277 -0.33704,-0.42827 -0.33703,-0.42828 -0.056,-0.17642 -0.056,-0.17641 -0.1877,-0.0634 -0.18769,-0.0634 -0.0847,-0.009 -0.0847,-0.009 -0.14761,-0.21167 -0.14761,-0.21167 -5.9e-4,-0.1905 -5.3e-4,-0.1905 h 0.13209 0.13208 l 0.41898,0.27429 0.41899,0.2743 0.0584,0.1702 0.0584,0.17021 -0.0168,0.0635 -0.0168,0.0635 h 0.127 0.127 v 0.127 0.127 h 0.13132 0.13132 l 0.1214,0.29055 0.12139,0.29054 0.0837,0.0517 0.0836,0.0517 0.0953,0.35625 0.0953,0.35626 0.16792,0.37028 0.16792,0.37027 0.0343,0.18006 0.0343,0.18006 0.0822,0.42333 0.0822,0.42334 0.0531,0.508 0.0531,0.508 0.15583,0.59266 0.15583,0.59267 0.0588,0.381 0.0588,0.381 0.15578,0.42333 0.15579,0.42334 0.17512,0.7928 0.17511,0.79281 0.12127,0.22319 0.12126,0.2232 0.003,-0.21935 0.003,-0.21935 0.17551,-0.83898 0.1755,-0.83899 -0.0571,-0.5715 -0.0571,-0.5715 h -0.11645 -0.11646 l -0.124,-0.1905 -0.12401,-0.1905 -0.13188,-0.635 -0.13187,-0.635 -7e-5,-0.18985 -7e-5,-0.18985 -0.35283,-1.08015 -0.35284,-1.08015 -0.15516,-0.20192 -0.15517,-0.20192 v -0.0768 -0.0768 l -0.16511,-0.17723 -0.16511,-0.17723 -0.14468,-0.30606 -0.14468,-0.30607 -0.21938,-0.33867 -0.21937,-0.33866 -0.069,-0.0301 -0.069,-0.0301 -0.0816,-0.21452 -0.0816,-0.21453 -0.0528,0.0528 -0.0528,0.0528 -0.11151,-0.14685 -0.11151,-0.14685 -0.003,-0.10198 -0.003,-0.10199 -0.21167,-0.21166 -0.21167,-0.21167 0.001,-0.10968 10e-4,-0.10968 0.0698,-0.11011 0.0698,-0.11011 0.26753,0.24991 0.26753,0.24991 v 0.09 0.0901 l 0.16834,0.0901 0.16833,0.0901 0.0524,0.20864 0.0524,0.20864 0.0756,-0.0468 0.0756,-0.0467 v 0.132 0.13199 h 0.132 0.132 l -0.0487,0.0789 -0.0487,0.0789 0.15609,0.11163 0.1561,0.11162 0.35459,0.60962 0.3546,0.60962 0.0516,0.25822 0.0516,0.25821 h 0.11127 0.11128 l -0.13537,-0.40217 -0.13537,-0.40216 -0.19816,-0.29482 -0.19815,-0.29482 v -0.11545 -0.11544 l -0.18642,-0.26707 -0.18642,-0.26707 -0.0464,-0.0423 -0.0464,-0.0423 0.0114,-0.127 0.0114,-0.127 0.01,-0.0683 0.01,-0.0683 0.17975,0.12591 0.17975,0.1259 0.1129,0.1964 0.1129,0.19639 0.21783,0.4445 0.21783,0.4445 h 0.0616 0.0616 l 0.10528,0.33734 0.10528,0.33733 v 0.12833 0.12834 h 0.0847 0.0847 v 0.0913 0.0913 l 0.33629,0.73417 0.33628,0.73418 0.22235,1.22766 0.22234,1.22767 0.085,1.016 0.085,1.016 -0.10622,0.59267 -0.10621,0.59266 -0.0984,0.254 -0.0984,0.254 -0.0208,0.80434 -0.0208,0.80433 -0.0878,0.33867 -0.0878,0.33866 -0.0868,0.10584 -0.0868,0.10583 z m 0.0561,-6.83683 0.0427,-0.10584 -0.0427,-0.10583 -0.0427,-0.10583 v 0.21166 0.21167 z m -0.3296,-1.75142 0.0368,-0.0368 -0.14604,-0.44998 -0.14603,-0.44999 -0.0728,-0.079 -0.0728,-0.0789 0.0779,0.24829 0.0779,0.24829 0.10416,0.31742 0.10417,0.31743 z m -0.44614,-1.31775 h 0.0423 v -0.0423 -0.0423 h -0.0423 -0.0423 v 0.0423 0.0423 z m -3.28789,-2.22956 0.0564,-0.0564 -0.0564,-0.0564 -0.0564,-0.0564 v 0.11289 0.11289 z m 1.12889,-0.47977 h 0.11288 l -0.0564,-0.0564 -0.0564,-0.0564 -0.0564,0.0564 -0.0564,0.0564 z m 1.31233,2.794 h -0.0423 v -0.0423 -0.0423 h 0.0423 0.0423 v 0.0423 0.0423 z"
       id="path345" /></g></svg>
