<?xml version="1.0" encoding="UTF-8" standalone="no"?>
<!-- Created with Inkscape (http://www.inkscape.org/) -->

<svg
   width="34.288261mm"
   height="65.12957mm"
   viewBox="0 0 34.288261 65.12957"
   version="1.1"
   id="svg5"
   xml:space="preserve"
   xmlns="http://www.w3.org/2000/svg"
   xmlns:svg="http://www.w3.org/2000/svg"><defs
     id="defs2" /><g
     id="layer1"
     transform="translate(-72.491052,-3.7579173)"><path
       style="fill:#ffffff;stroke-width:0.0846667"
       d="m 79.504705,68.750887 -0.0286,0.1253 -0.10499,-0.1142 -0.10499,-0.11419 0.0895,-0.0553 0.0894,-0.0553 0.0442,0.0442 0.0442,0.0442 z m 1.58002,0.0879 -0.127,0.0487 -0.002,-0.10317 -0.002,-0.10318 -0.16557,-0.21166 -0.16556,-0.21167 -0.002,0.14817 -0.002,0.14816 h -0.0753 -0.0753 l -0.19988,-0.16382 -0.19988,-0.16382 0.11453,-0.18762 0.11453,-0.18763 -0.2627,-0.24551 -0.2627,-0.24551 v -0.24971 -0.24971 h 0.0797 0.0797 l 0.0523,0.0847 0.0523,0.0847 h 0.18781 0.18782 l 0.23052,0.26271 0.23052,0.2627 v 0.11409 0.11409 l -0.12316,0.0689 -0.12316,0.0689 0.0597,0.0852 0.0597,0.0852 0.23283,0.1023 0.23284,0.10229 v 0.24676 0.24676 z m -0.67734,-0.96195 h 0.0423 v -0.0423 -0.0423 h -0.0423 -0.0423 v 0.0423 0.0423 z m -0.67733,0.93133 h -0.0423 v -0.0423 -0.0423 h 0.0423 0.0423 v 0.0423 0.0423 z m -2.44122,-0.19755 -0.0565,0.0564 v -0.11289 -0.11289 l 0.0565,0.0565 0.0564,0.0564 z m 6.92855,0.0282 h -0.0423 v -0.0423 -0.0423 h 0.0423 0.0423 v 0.0423 0.0423 z m -1.87266,-0.0847 h -0.0423 l 0.0523,-0.0847 0.0523,-0.0847 h 0.0423 0.0423 l -0.0523,0.0847 -0.0523,0.0847 z m -0.20167,-0.0847 h -0.0847 v -0.0847 -0.0847 h 0.0847 0.0847 v 0.0847 0.0847 z m 9.73401,0 h -0.0873 l -0.0513,-0.13357 -0.0513,-0.13356 0.13858,-0.13858 0.13857,-0.13858 v 0.27214 0.27215 z m -10.02152,-0.1076 -0.0512,0.0512 0.007,-0.16228 0.007,-0.16227 0.0445,0.11112 0.0445,0.11113 -0.0512,0.0512 z m 11.58145,0.0229 h -0.0333 v -0.17433 -0.17433 l 0.081,0.05 0.081,0.05 -0.0477,0.12429 -0.0477,0.12429 z m -16.07527,-0.0847 h -0.0347 l -0.0558,-0.0903 -0.0558,-0.0903 0.0403,-0.0403 0.0403,-0.0403 0.0501,0.13065 0.0501,0.13065 z m 2.59665,-0.0674 -0.0625,0.0625 -0.24003,-0.19139 -0.24003,-0.19139 0.1252,-0.10391 0.1252,-0.10391 0.12939,0.0496 0.12939,0.0497 0.0479,0.18318 0.0479,0.18318 z m 11.13196,0.0674 h -0.13042 l -0.17089,-0.23999 -0.17089,-0.24 0.0138,-0.18334 0.0138,-0.18333 h 0.0112 0.0112 l 0.21908,0.1905 0.21909,0.1905 0.0573,0.23283 0.0573,0.23283 z m 2.95667,-0.0572 -0.11873,0.0456 -0.0506,-0.0506 -0.0506,-0.0506 v -0.22558 -0.22558 l 0.21397,-0.11451 0.21396,-0.11451 0.26915,-0.42896 0.26916,-0.42897 0.0343,-0.96072 0.0343,-0.96071 -0.101,-0.51338 -0.101,-0.51338 -0.26124,-0.32507 -0.26123,-0.32507 -0.0917,-0.002 -0.0917,-0.002 -0.4094,-0.41755 -0.4094,-0.41754 0.0501,-0.0811 0.0501,-0.0811 -0.10636,-0.0429 -0.10636,-0.0429 0.18144,-0.007 0.18144,-0.007 0.0469,0.12233 0.0469,0.12232 0.30079,0.0564 0.30078,0.0564 v 0.0751 0.075 l 0.29617,0.314 0.29617,0.314 0.051,0.1606 0.051,0.16059 0.19189,0.28277 0.19189,0.28277 0.06,0.76735 0.06,0.76735 -0.0832,0.27465 -0.0832,0.27465 -0.14862,0.66102 -0.14862,0.66103 -0.17438,0.12214 -0.17438,0.12214 h 0.0726 0.0726 l -0.22309,0.17548 -0.22308,0.17548 v 0.1118 0.11179 l -0.11872,0.0456 z m 0.11872,-0.45078 h 0.11289 l -0.0564,-0.0564 -0.0564,-0.0565 -0.0564,0.0565 -0.0564,0.0564 z m -18.47985,0.25681 -0.0391,0.20886 -0.0244,-0.254 -0.0244,-0.254 -0.0197,-0.0847 -0.0197,-0.0847 -0.0119,-0.42334 -0.012,-0.42333 -0.33648,-0.15514 -0.33648,-0.15514 v -0.12003 -0.12002 h -0.082 -0.082 l 0.0487,-0.127 0.0487,-0.127 h -0.22073 -0.22072 v -0.24608 -0.24607 l 0.16653,0.0436 0.16653,0.0435 0.0484,0.15238 0.0484,0.15239 0.46243,0.35677 0.46244,0.35677 v 0.12707 0.12707 l 0.13346,-0.11076 0.13345,-0.11076 0.0617,0.0999 0.0617,0.0999 0.39481,0.0738 0.39482,0.0738 0.0383,-0.0383 0.0383,-0.0383 0.36364,-0.035 0.36364,-0.035 0.15107,-0.0479 0.15107,-0.048 v 0.0923 0.0923 l 0.21431,-0.14042 0.21431,-0.14042 0.0485,0.0485 0.0485,0.0485 0.49917,-0.26166 0.49916,-0.26165 v -0.0717 -0.0717 h 0.11895 0.11894 l -0.0457,-0.34056 -0.0457,-0.34057 0.14604,-0.16137 0.14603,-0.16136 -0.0508,-0.15424 -0.0508,-0.15423 -0.26183,-0.29633 -0.26183,-0.29634 -0.12053,-0.23283 -0.12053,-0.23283 h -0.0212 -0.0212 l 0.0312,0.32703 0.0312,0.32703 -0.23045,0.23045 -0.23044,0.23045 -0.1225,-0.1225 -0.1225,-0.1225 -0.0464,-0.34623 -0.0464,-0.34623 0.26782,-0.26782 0.26782,-0.26781 -0.17877,-0.51658 -0.17877,-0.51657 -0.0357,-0.27843 -0.0357,-0.27843 -0.1063,-0.1901 -0.1063,-0.1901 -0.0496,-0.0423 -0.0496,-0.0423 -0.0774,-0.13814 -0.0774,-0.13814 -0.33867,-0.40025 -0.33866,-0.40026 -0.16494,-0.13894 -0.16494,-0.13894 -0.8934,-0.89992 -0.89339,-0.89993 -0.18617,-0.0569 -0.18617,-0.0569 -0.0537,-0.16907 -0.0537,-0.16906 0.10362,-0.12485 0.10361,-0.12484 0.21707,0.14223 0.21707,0.14223 0.40598,0.40598 0.40598,0.40598 v 0.0937 0.0937 l 0.0786,-0.0486 0.0786,-0.0486 0.0545,0.17179 0.0545,0.17179 0.0685,-0.0423 0.0685,-0.0423 0.59031,0.57028 0.59031,0.57029 0.28758,0.22549 0.28758,0.22549 0.35302,0.58975 0.35302,0.58975 0.0842,0.28542 0.0842,0.28543 0.30083,0.70987 0.30083,0.70986 0.0451,0.0451 0.0451,0.0451 0.0555,-0.0555 0.0554,-0.0555 -0.2372,-0.57249 -0.2372,-0.57249 -0.10202,-0.254 -0.10201,-0.254 -0.10612,-0.42333 -0.10612,-0.42334 -0.10531,-0.49429 -0.10531,-0.4943 -0.22803,-0.19594 -0.22802,-0.19594 -0.4132,-0.3865 -0.4132,-0.3865 -0.0511,-0.16093 -0.0511,-0.16093 -0.16717,-0.15129 -0.16717,-0.15129 -0.003,-0.0927 -0.003,-0.0927 -0.36466,-0.26802 -0.36466,-0.26802 -0.13847,-0.29182 -0.13848,-0.29181 -0.12736,-0.1057 -0.12735,-0.1057 -0.60628,-1.13363 -0.60627,-1.13363 h -0.11162 -0.11162 l -0.0921,-0.17206 -0.0921,-0.17205 -0.12245,-0.69578 -0.12245,-0.69578 0.008,-0.42333 0.008,-0.42334 0.0977,-0.46566 0.0977,-0.46567 h 0.127 0.127 l -0.0127,0.29633 -0.0127,0.29634 -0.0451,0.32404 -0.0451,0.32404 0.0838,0.52262 0.0838,0.52263 0.0654,0.0661 0.0655,0.0661 0.6493,-0.64511 0.6493,-0.6451 v -0.064 -0.064 l 0.1905,-0.22036 0.1905,-0.22037 0.91003,-0.47013 0.91002,-0.47014 h 0.17172 0.17172 l 0.69626,-0.18111 0.69625,-0.1811 0.40034,0.0814 0.40035,0.0814 0.0819,-0.0506 0.0819,-0.0506 0.0865,-0.37886 0.0865,-0.37886 0.17993,-0.508 0.17993,-0.508 0.42077,-0.8026 0.42078,-0.80259 0.0709,-0.0441 0.0709,-0.0441 0.0296,-0.16405 0.0296,-0.16406 -0.29633,-0.0629 -0.29633,-0.0629 -0.34353,0.15144 -0.34352,0.15144 -0.43279,0.38438 -0.43278,0.38437 -0.33775,0.0571 -0.33774,0.0571 -0.32528,-0.0903 -0.32528,-0.0903 -0.381,7.6e-4 -0.381,7.7e-4 -0.33867,0.11536 -0.33866,0.11537 -0.98043,0.058 -0.98042,0.058 -0.21886,-0.0549 -0.21885,-0.0549 -0.10396,-0.26781 -0.10395,-0.2678 -0.17227,-0.35983 -0.17228,-0.35983 h -0.15432 -0.15433 v -0.254 -0.254 h 0.127 0.127 v 0.0847 0.0847 h 0.16933 0.16934 l -0.0168,0.0635 -0.0168,0.0635 0.0648,0.1905 0.0648,0.1905 h 0.079 0.079 v 0.11947 0.11948 l 0.26049,0.21919 0.2605,0.21919 h 0.24454 0.24455 l 0.36279,-0.12113 0.36279,-0.12114 0.80434,-0.0602 0.80433,-0.0602 0.42333,-0.0223 0.42334,-0.0223 0.33866,-0.008 0.33867,-0.008 0.381,-0.34658 0.381,-0.34657 0.42333,-0.20282 0.42334,-0.20281 0.29633,0.001 0.29633,10e-4 0.36481,0.0841 0.3648,0.0841 0.24903,-0.24903 0.24903,-0.24903 v -0.0776 -0.0776 l -0.1905,-0.0997 -0.1905,-0.0997 -0.33867,-0.24974 -0.33866,-0.24973 -0.14622,-0.003 -0.14621,-0.003 -0.14762,-0.23284 -0.14762,-0.23283 -0.31865,-0.42923 -0.31864,-0.42924 -0.17069,-0.53429 -0.17069,-0.5343 v -0.15331 -0.15331 l -0.0778,-0.0481 -0.0778,-0.0481 -0.29098,-0.52841 -0.29098,-0.52841 -0.15078,-0.46567 -0.15079,-0.46567 -0.0824,-0.18114 -0.0824,-0.18115 -0.1983,-0.0904 -0.19829,-0.0904 -0.13644,-0.26385 -0.13644,-0.26385 0.0533,-0.24261 0.0533,-0.24261 -0.55189,0.0153 -0.5519,0.0153 -0.0525,0.21229 -0.0525,0.21229 -0.38468,0.80433 -0.38467,0.80433 -0.17019,0.1862 -0.17018,0.18619 0.0479,0.12484 0.0479,0.12484 0.72496,0.34443 0.72496,0.34443 0.61592,0.12722 0.61593,0.12722 0.29353,-0.0842 0.29353,-0.0842 h 0.10444 0.10444 l 0.13829,0.21105 0.13828,0.21105 -0.0533,0.21229 -0.0533,0.21228 h -0.66017 -0.66017 l -0.47696,-0.0882 -0.47696,-0.0882 -0.70276,-0.3242 -0.70275,-0.3242 -0.29634,-0.0627 -0.29633,-0.0627 -0.14729,-0.1299 -0.14728,-0.1299 -0.57238,0.071 -0.57238,0.071 -0.49753,-0.007 -0.49752,-0.008 -0.0727,-0.1147 -0.0727,-0.1147 -0.001,-0.10584 -10e-4,-0.10583 h 0.0897 0.0897 l -0.0523,0.0847 -0.0523,0.0847 h 0.0826 0.0826 l 0.0297,-0.0892 0.0297,-0.0892 0.32838,-0.0305 0.32839,-0.0305 0.22043,-0.16446 0.22044,-0.16446 0.37121,-0.54131 0.37121,-0.54132 0.14926,-0.42333 0.14926,-0.42333 0.0671,-0.16644 0.0671,-0.16644 -0.35321,0.29344 -0.35321,0.29344 -0.002,0.12143 -0.002,0.12144 -0.17849,0.36872 -0.1785,0.36873 -0.012,0.20734 -0.012,0.20734 -0.11382,0.0437 -0.11381,0.0437 -0.23765,-0.25441 -0.23765,-0.25441 h -0.13057 -0.13056 l -0.1174,-0.1676 -0.11739,-0.16761 0.11621,-0.73373 0.11622,-0.73372 0.0983,-0.17817 0.0983,-0.17817 0.005,-0.0847 0.005,-0.0847 0.1845,-0.381 0.1845,-0.381 0.11079,-0.127 0.11078,-0.127 0.24134,-0.12469 0.24135,-0.1247 0.11849,0.16204 0.11849,0.16205 v 0.16221 0.16221 l 0.14816,-0.0577 0.14817,-0.0577 0.0423,-0.004 0.0423,-0.004 0.13829,0.01 0.1383,0.01 0.0379,0.1982 0.0379,0.1982 -0.0588,0.16163 -0.0588,0.16164 0.0585,0.16371 0.0585,0.16371 0.0619,-0.10021 0.0619,-0.10021 h 0.17482 0.17482 l -0.0381,0.45929 -0.0381,0.4593 0.15414,-0.0116 0.15414,-0.0116 0.0512,-0.27285 0.0512,-0.27286 -0.051,-0.0825 -0.051,-0.0825 0.0444,-0.11567 0.0444,-0.11567 0.68476,0.0206 0.68476,0.0206 0.12258,0.10173 0.12257,0.10172 -0.026,-0.11056 -0.0259,-0.11057 0.21458,-0.0609 0.21457,-0.0609 0.97076,-0.007 0.97076,-0.007 0.55033,-0.0972 0.55033,-0.0972 0.32123,-0.0401 0.32123,-0.0401 0.3561,-0.15422 0.35611,-0.15423 0.40217,-0.35636 0.40216,-0.35637 v -0.0658 -0.0658 l -0.64716,0.004 -0.64716,0.004 -0.13788,-0.17027 -0.13788,-0.17028 -0.27329,-0.0547 -0.27329,-0.0547 v 0.1655 0.1655 l -0.33867,0.17277 -0.33867,0.17278 v 0.10497 0.10498 l -0.20605,0.22222 -0.20606,0.22222 -0.66177,0.1523 -0.66178,0.15231 -0.34173,-0.008 -0.34172,-0.008 -0.63194,-0.13354 -0.63195,-0.13354 -0.381,-0.13557 -0.381,-0.13556 -0.16933,-0.043 -0.16933,-0.043 -0.25163,-0.0266 -0.25162,-0.0266 -0.0306,-0.0918 -0.0306,-0.0918 -0.0988,-0.002 -0.0988,-0.002 -0.27729,-0.23056 -0.27728,-0.23056 -0.0465,-0.29633 -0.0465,-0.29633 0.21595,-0.48472 0.21594,-0.48472 0.19902,-0.05 0.19901,-0.0499 -0.0367,-0.44203 -0.0367,-0.44204 0.26728,-0.8013 0.26727,-0.80129 0.20737,-0.31569 0.20738,-0.31568 v -0.0599 -0.0599 l 0.35821,-0.42879 0.35821,-0.42878 0.0776,-0.0324 0.0777,-0.0324 0.25403,-0.24277 0.25404,-0.24277 h 0.0618 0.0618 l 0.0961,0.23283 0.0961,0.23283 -0.043,0.57622 -0.043,0.57622 0.0842,-0.0521 0.0842,-0.052 v -0.24295 -0.24296 l 0.10583,-0.11393 0.10584,-0.11394 0.2804,-0.41001 0.2804,-0.41001 -0.13224,-0.33048 -0.13223,-0.33048 v -0.27497 -0.27496 l 0.21167,-0.3115 0.21166,-0.31149 v -0.0962 -0.0962 l -0.0635,0.0303 -0.0635,0.0303 -0.27133,0.16663 -0.27133,0.16662 -0.025,0.25253 -0.025,0.25254 -0.27553,0.0134 -0.27552,0.0134 -0.75623,0.79593 -0.75624,0.79593 -0.17474,0.22215 -0.17474,0.22215 v 0.0389 0.0389 l -0.38108,0.56829 -0.38108,0.56828 -0.0539,0.22609 -0.0539,0.22609 -0.0885,0.11202 -0.0885,0.11202 -0.0374,0.71348 -0.0374,0.71348 h -0.11912 -0.11911 l -0.0708,-0.1905 -0.0708,-0.1905 -0.0623,0.53407 -0.0623,0.53406 -0.0286,0.4396 -0.0286,0.4396 -0.005,0.40217 -0.005,0.40217 h -0.0912 -0.0911 l 0.0238,-0.27639 0.0238,-0.27638 -0.0798,-0.12578 -0.0798,-0.12579 -0.0248,-1.22766 -0.0248,-1.22767 0.0699,-0.10369 0.0699,-0.1037 0.20333,-0.031 0.20333,-0.031 0.099,-0.43957 0.099,-0.43957 0.2954,-0.61104 0.2954,-0.61104 0.14995,-0.508 0.14995,-0.508 0.33026,-0.60691 0.33025,-0.60692 0.29717,-0.26092 0.29717,-0.26091 h 0.16638 0.16639 v 0.21872 0.21872 l 0.10068,-0.0336 0.10068,-0.0336 0.1618,-0.21671 0.1618,-0.21671 -0.18916,-0.51878 -0.18916,-0.51879 h -0.0371 -0.0371 l 0.0582,0.46567 0.0582,0.46567 h -0.12329 -0.1233 l -0.24313,-0.4445 -0.24312,-0.4445 0.0179,-0.59662 0.0179,-0.59662 0.20732,-0.71312 0.20733,-0.71312 -0.0261,-0.0261 -0.0261,-0.0261 -0.22453,0.0854 -0.22453,0.0854 -0.27121,0.3089 -0.27122,0.30889 -0.26353,0.51828 -0.26354,0.51827 -0.31053,0.59267 -0.31054,0.59266 -2.6e-4,0.10993 -2.6e-4,0.10992 -0.16934,0.35048 -0.16933,0.35048 v 0.0833 0.0833 l -0.11814,0.13366 -0.11815,0.13367 -0.0502,0.68899 -0.0502,0.68899 -0.0524,0.13651 -0.0524,0.13651 -0.13911,5.9e-4 -0.13911,5.9e-4 -0.20831,0.30582 -0.20831,0.30583 -0.0257,-0.0772 -0.0257,-0.0772 0.0863,-0.54669 0.0863,-0.54668 0.0958,-0.66069 0.0958,-0.6607 -0.0896,-0.19671 -0.0896,-0.19672 0.0736,-0.32641 0.0736,-0.32642 -0.0365,-0.66351 -0.0365,-0.66351 -0.035,-0.0577 -0.0349,-0.0577 0.10624,-0.55034 0.10624,-0.55033 0.13285,-0.42333 0.13285,-0.42334 0.2474,-0.5743 0.2474,-0.5743 -0.083,-0.41971 -0.083,-0.41971 0.3411,-0.31832 0.34109,-0.31832 0.24147,-0.22944 0.24146,-0.22944 0.14816,-0.15866 0.14817,-0.15867 v -0.0522 -0.0521 l 0.2426,-0.36408 0.2426,-0.36408 0.15547,-0.33314 0.15547,-0.33314 0.30888,-0.27906 0.30888,-0.27905 0.0789,-0.27681 0.0789,-0.2768 0.37828,-0.11969 0.37828,-0.11969 0.71967,-0.25722 0.71967,-0.25722 0.42333,-0.2917 0.42333,-0.2917 0.33867,-0.38972 0.33867,-0.38973 0.26577,-0.26062 0.26577,-0.26062 0.47197,-0.14845 0.47197,-0.14845 0.0758,0.0469 0.0758,0.0469 0.68927,0.017 0.68927,0.017 v 0.0731 0.0731 l 0.14817,-0.081 0.14817,-0.081 0.16093,-0.4088 0.16094,-0.40881 0.5838,-0.80433 0.58381,-0.80433 0.5514,-0.71967 0.55141,-0.71967 0.21998,-0.24702 0.21998,-0.24702 0.1472,-0.47264 0.14721,-0.4726499 0.12972,-0.29633 0.12972,-0.29634 0.21563,-0.72516 0.21563,-0.72516 0.2464,-0.34014 0.2464,-0.34015 0.78009,-0.62802 0.78009,-0.62806 0.3515,-0.27095 0.35149,-0.27095 0.54035,-0.44871 0.54035,-0.44872 0.0979,-0.0847 0.0979,-0.0847 0.18484,-0.10506 0.18484,-0.10506 0.36374,-0.0137 0.36375,-0.0138 0.18354,0.11462 0.18354,0.11462 0.0466,0.17353 0.0466,0.17353 0.001,0.17895 0.001,0.17896 -0.23284,0.23283 -0.23283,0.23284 v 0.0799 0.0799 l -0.1794,0.14333 -0.1794,0.14333 -1.07457,1.60867 -1.07457,1.60866 -0.49124,0.70664 -0.49124,0.7066299 -0.18096,0.71464 -0.18095,0.71464 v 0.35071 0.35072 l -0.0964,0.30234 -0.0964,0.30235 -0.0846,0.18561 -0.0846,0.18561 -0.31567,0.32851 -0.31566,0.32852 -0.2029,0.16321 -0.2029,0.16321 -0.33758,0.42245 -0.33758,0.42245 -0.0605,0.0856 -0.0606,0.0855 -0.24151,0.29633 -0.24151,0.29633 -0.22908,0.30692 -0.22907,0.30692 h 0.20291 0.20291 l 0.11656,-0.25956 0.11657,-0.25956 0.10531,-0.0331 0.10531,-0.0331 0.0831,0.21855 0.0831,0.21855 h 0.0543 0.0543 l -0.0417,-0.21834 -0.0417,-0.21834 0.12597,-0.0483 0.12597,-0.0483 0.26573,0.15505 0.26573,0.15504 0.30371,0.24172 0.3037,0.24172 0.30788,0.05 0.30789,0.05 0.2902,-0.13771 0.29021,-0.13771 0.24121,9.1e-4 0.2412,9.1e-4 0.41563,0.12609 0.41562,0.12608 h 0.22972 0.22972 l 0.75166,0.38637 0.75165,0.38636 0.33867,0.20263 0.33867,0.20263 0.26598,0.004 0.26599,0.004 0.0531,0.21167 0.0531,0.21166 h 0.0725 0.0725 l 0.64484,-0.29386 0.64484,-0.29386 0.64464,-0.65095 0.64465,-0.65095 0.68701,-0.41291 0.68702,-0.41291 0.21424,-0.0459 0.21423,-0.0459 0.169345,-0.0711 0.16933,-0.0711 0.29633,-0.10172 0.29634,-0.10172 0.91907,-0.14732 0.91908,-0.14732 0.35092,0.009 0.35093,0.009 0.026,0.35944 0.026,0.35944 -0.19535,0.0762 -0.19535,0.0762 -0.381,0.1111 -0.381,0.1111 -0.0423,0.0459 -0.0423,0.0459 -0.46566,0.23302 -0.46567,0.23303 -0.2034,0.31731 -0.2034,0.3173 -0.14211,0.21167 -0.14211,0.21167 -0.32599,0.46566 -0.325985,0.46567 -0.0953,0.0955 -0.0953,0.0955 -0.37087,0.43368 -0.37087,0.43368 h -0.0651 -0.0651 l -0.28317,0.19216 -0.28316,0.19216 -0.46143,0.14245 -0.46143,0.14244 -0.508,0.14271 -0.508,0.14271 -0.10583,0.0834 -0.10583,0.0834 v 0.0685 0.0685 l 0.20277,-0.0216 0.20278,-0.0216 0.14662,-0.14662 0.14662,-0.14661 0.18605,0.17478 0.18605,0.17479 0.0436,-0.0436 0.0436,-0.0436 0.15636,0.17278 0.15636,0.17277 0.0219,0.35691 0.0219,0.35691 0.005,0.0559 0.005,0.0559 0.54881,0.3466 0.5488,0.34661 0.0507,0.2022 0.0508,0.2022 -0.12522,0.24215 -0.12522,0.24215 -0.15684,0.13776 -0.15683,0.13776 -0.254,0.12728 -0.254,0.12728 -0.42987,0.0582 -0.42987,0.0582 -0.75546,-0.26714 -0.75547,-0.26714 -0.381,-0.109 -0.381,-0.109 -0.5329,-0.0996 -0.5329,-0.0995 -0.11172,-0.0429 -0.11172,-0.0429 -0.24438,0.27402 -0.24438,0.27403 -0.25617,0.25977 -0.25617,0.25977 -0.18873,0.12481 -0.18873,0.12481 0.0522,0.39323 0.0522,0.39322 -0.43533,0.43078 -0.43534,0.43078 0.41242,-0.0488 0.41242,-0.0488 0.17308,0.0926 0.17308,0.0926 0.0552,0.21979 0.0552,0.21979 -0.19499,0.35347 -0.19498,0.35346 -0.21744,0.10422 -0.21745,0.10422 -0.37383,0.36512 -0.37383,0.36511 -0.33867,0.44431 -0.33867,0.44431 -0.15955,0.16206 -0.15954,0.16206 0.0896,0.35289 0.0896,0.35289 -0.0372,0.0959 -0.0372,0.0959 -0.23151,0.14827 -0.23151,0.14826 -0.29633,0.18354 -0.29634,0.18353 -0.55033,0.47873 -0.55033,0.47873 -0.6679,0.4383 -0.6679,0.43831 h -0.11527 -0.11527 v 0.0847 0.0847 h 0.0827 0.0827 l 0.14171,0.21627 0.1417,0.21627 -0.007,0.23796 -0.007,0.23796 0.48785,0.051 0.48785,0.051 0.13599,0.0522 0.13599,0.0522 0.0538,0.24487 0.0538,0.24486 -0.0515,0.0833 -0.0515,0.0833 -0.54747,-0.0511 -0.54747,-0.0511 v 0.26463 0.26463 l -0.21275,0.0534 -0.21275,0.0534 -0.27408,-0.0558 -0.27408,-0.0558 -0.27517,-0.0476 -0.27517,-0.0476 v 0.0819 0.0819 l 0.51685,0.054 0.51684,0.054 0.20136,0.19088 0.20136,0.19087 0.001,0.18461 0.001,0.18462 -0.91017,-0.0423 -0.91016,-0.0423 -0.29588,0.40091 -0.29588,0.40091 -0.49363,0.35919 -0.49362,0.35918 0.16374,0.052 0.16374,0.052 0.12537,-0.0481 0.12536,-0.0481 0.087,0.10968 0.087,0.10969 0.0549,0.42333 0.055,0.42334 0.10616,0.29633 0.10616,0.29633 0.083,0.13448 0.083,0.13449 0.49706,0.22535 0.49707,0.22535 h 0.0889 0.0889 l 0.13367,0.11265 0.13366,0.11265 0.38383,0.14135 0.38383,0.14135 h 0.44632 0.44631 l 0.39752,-0.17222 0.39753,-0.17222 0.127,-0.0823 0.127,-0.0823 0.10099,-0.049 0.101,-0.049 0.38058,-0.34198 0.38058,-0.34199 0.97851,-0.64564 0.97852,-0.64565 0.30261,-0.1905 0.30261,-0.1905 h 0.12113 0.12113 v -0.0847 -0.0847 h 0.1285 0.12849 l 0.27859,-0.28686 0.27858,-0.28687 0.39726,-0.79512 0.39725,-0.79512 v -0.11539 -0.11539 l 0.37361,-0.77112 0.37361,-0.77113 0.38212,-0.51922 0.38212,-0.51921 0.42079,-0.10095 0.42079,-0.10095 0.19291,-0.20533 0.1929,-0.20534 h 0.10373 0.10374 l 0.42911,-0.28877 0.42911,-0.28877 0.27789,-0.1456 0.2779,-0.14561 0.71967,-0.20653 0.719675,-0.20652 0.16933,-0.0232 0.16933,-0.0232 0.40249,-0.19207 0.40249,-0.19207 0.36738,-0.35036 0.36737,-0.35036 0.24993,-0.33866 0.24993,-0.33867 0.41048,-0.71967 0.41048,-0.71966 0.15723,-0.20192 0.15722,-0.20192 v -0.0789 -0.079 l -0.17436,0.0553 -0.17437,0.0554 -0.63166,0.45319 -0.63166,0.4532 -0.16397,0.052 -0.16397,0.052 -0.17759,0.35529 -0.17759,0.3553 -0.36576,0.42137 -0.36576,0.42138 -0.145,-0.12034 -0.14499,-0.12033 0.0327,-0.27988 0.0327,-0.27987 h -0.105 -0.10501 l -0.0556,0.0899 -0.0556,0.0899 -0.18227,0.0816 -0.18228,0.0816 -0.28768,0.2095 -0.28769,0.20951 h -0.23054 -0.23055 l -0.0594,0.52502 -0.0594,0.52502 -0.0815,0.15231 -0.0815,0.15232 H 98.1033 97.89941 l -0.1318,-0.18818 -0.1318,-0.18817 v -0.30822 -0.30822 l -0.35984,0.11235 -0.35983,0.11234 -0.34741,0.0876 -0.34742,0.0876 0.0357,0.40224 0.0357,0.40225 -0.16917,0.66436 -0.16916,0.66435 -0.0419,0.0419 -0.0419,0.0419 -0.16661,-0.0529 -0.16661,-0.0529 -0.1039,-0.25084 -0.1039,-0.25084 0.10989,-0.67669 0.10989,-0.67669 -0.0474,-0.0474 -0.0474,-0.0474 -0.23111,0.058 -0.23111,0.058 -0.32841,0.51762 -0.3284,0.51761 -8.5e-4,0.10584 -8.5e-4,0.10583 h 0.0737 0.0737 l 0.10576,0.37773 0.10576,0.37774 -0.0529,0.27843 -0.0529,0.27843 -0.0351,0.33867 -0.0351,0.33867 -0.0906,0.23624 -0.0906,0.23624 -0.17013,-0.0911 -0.17013,-0.091 -0.008,-0.14519 -0.008,-0.14518 0.0129,-0.33869 0.013,-0.33869 -0.0724,-0.19573 -0.0724,-0.19574 -0.1126,0.44976 -0.11261,0.44975 -0.19943,0.42802 -0.19944,0.42803 0.053,0.56794 0.053,0.56794 -0.14996,0.33255 -0.14996,0.33255 -0.13682,0.0525 -0.13681,0.0525 -0.138,-0.17042 -0.138,-0.17042 -0.19919,0.21204 -0.1992,0.21203 -0.21388,0.10218 -0.21388,0.10218 -0.0979,0.495 -0.0979,0.49499 -0.0841,0.0841 -0.0841,0.0841 -0.17988,-0.0571 -0.17987,-0.0571 -0.0975,-0.36446 -0.0975,-0.36446 -0.36436,0.12415 -0.36437,0.12415 -0.1033,0.50014 -0.1033,0.50014 -0.33768,0.16707 -0.33768,0.16707 -0.12126,-0.10064 -0.12125,-0.10063 0.0502,-0.48075 0.0502,-0.48075 -0.18831,0.0461 -0.18831,0.0461 -0.10107,0.0789 -0.10106,0.0788 -0.18101,0.54393 -0.181,0.54393 h -0.3214 -0.3214 l -0.10475,-0.12623 -0.10476,-0.12622 0.0441,-0.23361 0.0441,-0.23361 0.0601,-0.1905 0.0601,-0.1905 h -0.43586 -0.43587 l -0.0326,0.10583 -0.0326,0.10584 -0.047,0.21669 -0.047,0.2167 -0.19568,0.2913 -0.19567,0.29131 -0.24208,0.0279 -0.24208,0.0279 -0.0714,-0.11261 -0.0714,-0.11262 -0.001,-0.244 -0.001,-0.24401 0.17624,-0.28516 0.17624,-0.28516 h -0.24207 -0.24206 l -0.18817,-0.1318 -0.18818,-0.1318 v -0.15761 -0.15761 l 0.0514,-0.13392 0.0514,-0.13393 h 0.16325 0.16325 l 0.20642,-0.13525 0.20642,-0.13525 0.73626,0.098 0.73626,0.098 0.59951,-0.018 0.59951,-0.018 0.55033,-0.12046 0.55034,-0.12046 0.97366,-0.33283 0.97367,-0.33282 0.10951,-0.14761 0.10951,-0.1476 0.0508,-0.21167 0.0508,-0.21166 0.14443,-0.33867 0.14442,-0.33867 0.18898,-0.48397 0.18897,-0.48397 0.126,-0.44736 0.12601,-0.44736 0.0803,-0.32237 0.0803,-0.32237 0.33371,-0.69363 0.33371,-0.69363 0.22153,-0.635 0.22153,-0.635 0.2899,-0.95997 0.28998,-0.95996 2.6e-4,-0.18304 2.5e-4,-0.18303 0.42879,-0.43965 0.42879,-0.43965 0.11178,0.0429 0.11178,0.0429 0.0518,0.25917 0.0519,0.25917 v 0.44344 0.44344 l 0.254,0.31962 0.254,0.31962 v 0.2333 0.23329 l -0.14398,0.0553 -0.14397,0.0553 -0.21586,-0.15576 -0.21586,-0.15577 -0.23947,-0.49056 -0.23948,-0.49056 -0.0406,0.0406 -0.0406,0.0406 -0.16518,0.83474 -0.16518,0.83474 -0.12991,0.28565 -0.12992,0.28565 0.0313,0.0313 0.0313,0.0313 0.53871,-0.21112 0.53872,-0.21112 h 0.26249 0.26249 l 0.49098,-0.12788 0.49098,-0.12789 0.43698,-0.18523 0.43697,-0.18523 0.38645,-0.32188 0.38644,-0.32189 h 0.064 0.064 l 0.35392,-0.24282 0.35392,-0.24282 0.67073,-0.31346 0.67074,-0.31346 0.3876,-0.12736 0.3876,-0.12736 0.80433,-0.38328 0.80434,-0.38327 0.53868,-0.26659 0.53868,-0.26658 0.53634,-0.59605 0.53634,-0.59605 0.64067,-0.33528 0.64067,-0.33528 0.0822,0.127 0.0822,0.127 0.001,0.2864 10e-4,0.2864 -0.15237,0.13693 -0.15236,0.13693 -0.48987,0.65582 -0.48988,0.65583 -0.25194,0.23317 -0.25194,0.23318 -0.41815,0.52735 -0.41816,0.52735 v 0.0387 0.0387 l -0.57436,0.83094 -0.57436,0.83094 -0.40872,0.508 -0.40872,0.508 -0.27821,0.254 -0.27821,0.254 -0.68907,0.65617 -0.68907,0.65616 h -0.0791 -0.0791 l -0.44701,0.20188 -0.44701,0.20187 -0.61998,0.26955 -0.61998,0.26956 -0.48069,0.0977 -0.48068,0.0977 -0.0622,0.087 -0.0622,0.087 -0.002,0.42333 -0.002,0.42333 -0.0807,0.49262 -0.0807,0.49261 -0.21516,0.53783 -0.21517,0.53783 -0.003,0.23956 -0.003,0.23955 -0.18785,0.38106 -0.18785,0.38106 -0.24464,0.31975 -0.24464,0.31974 0.0556,0.0556 0.0556,0.0556 0.54902,-0.18842 0.54902,-0.18842 0.65601,-0.17581 0.65601,-0.17581 0.17234,-0.0112 0.17234,-0.0112 0.33037,-0.27235 0.33037,-0.27236 0.11112,0.0922 0.11112,0.0922 v 0.29469 0.29469 l -0.64679,0.66124 -0.64679,0.66124 -0.33082,0.2402 -0.33082,0.2402 -0.52522,0.39468 -0.52522,0.39467 -0.42334,0.42331 -0.42333,0.42331 -0.42333,0.43156 -0.42334,0.43156 -0.35983,0.13779 -0.35983,0.1378 v 0.28844 0.28845 l -0.34021,0.46051 -0.3402,0.46052 -0.4512,0.33332 -0.45121,0.33333 -0.12085,0.11271 -0.12085,0.11271 -0.35278,0.27517 -0.35277,0.27516 h -0.0563 -0.0563 l -0.40989,0.3175 -0.40988,0.3175 -0.34892,0.25348 -0.34893,0.25348 -0.17534,0.29685 -0.17533,0.29686 -0.1871,0.29633 -0.1871,0.29634 -0.46622,0.71966 -0.46621,0.71967 -0.18208,0.30727 -0.18208,0.30728 -0.24801,0.60143 -0.24801,0.60144 -0.17057,0.82696 -0.17056,0.82695 0.0635,0.59267 0.0635,0.59267 0.0687,-0.29634 0.0687,-0.29633 0.28105,-0.46567 0.28104,-0.46566 0.17526,-0.18696 0.17527,-0.18696 v -0.0392 -0.0392 l 0.33082,-0.3242 0.33082,-0.32421 0.45235,-0.39658 0.45234,-0.39658 0.33867,-0.28962 0.33866,-0.28963 0.30737,-0.20279 0.30736,-0.2028 0.58164,-0.38386 0.58163,-0.38386 0.635,-0.14527 0.635,-0.14527 0.46567,-0.0159 0.46567,-0.0159 0.33428,0.16043 0.33428,0.16043 0.76638,0.77374 0.76639,0.77375 0.2263,0.24633 0.2263,0.24634 0.23353,0.54981 0.23353,0.54981 0.01,0.018 0.01,0.018 0.46173,-0.12257 0.46173,-0.12257 0.762,-0.0125 0.762,-0.0125 0.63818,0.17162 0.63818,0.17161 0.37782,0.18041 0.37782,0.18041 0.36708,0.33648 0.36709,0.33648 0.0562,6.7e-4 0.0562,6.8e-4 0.5104,0.48616 0.5104,0.48615 0.31276,0.43148 0.31276,0.43149 0.35152,0.7326 0.35153,0.7326 0.0736,0.74091 0.0736,0.74092 0.0461,0.21717 0.0462,0.21716 -0.16778,1.30684 -0.16777,1.30683 -0.0557,0.69521 -0.0557,0.6952 -0.12112,0.10053 -0.12113,0.10052 -0.12166,-0.16073 -0.12166,-0.16073 -0.003,-0.0993 -0.003,-0.0993 -0.19747,-0.23933 -0.19748,-0.23933 -0.20446,-0.508 -0.20447,-0.508 -0.0849,-0.0919 -0.0849,-0.0919 -0.43553,-0.5008 -0.43553,-0.50081 -0.34676,-0.46221 -0.34675,-0.46222 -0.19138,-0.10628 -0.19139,-0.10628 -0.11706,-0.003 -0.11707,-0.003 -0.13701,-0.15797 -0.13701,-0.15798 -0.27509,-0.0604 -0.27509,-0.0604 v -0.0638 -0.0638 l -0.10583,-0.0106 -0.10584,-0.0106 -0.381,-0.0944 -0.381,-0.0944 -0.45334,-0.0307 -0.45334,-0.0307 0.0566,0.22747 0.0566,0.22746 0.0817,1.31233 0.0817,1.31234 -0.0871,0.40633 -0.0871,0.40634 v 0.36065 0.36065 l -0.10583,0.13927 -0.10584,0.13928 -0.127,-0.10307 -0.127,-0.10307 -0.18492,-0.33753 -0.18493,-0.33752 -0.27095,-0.508 -0.27095,-0.508 -0.17913,-0.18252 -0.17912,-0.18253 -0.094,-0.11381 -0.094,-0.11381 -0.32033,-0.27867 -0.32032,-0.27868 -0.15107,-0.0808 -0.15108,-0.0809 -0.1543,0.054 -0.1543,0.054 -0.48701,0.50222 -0.487,0.50221 -0.25383,0.36892 -0.25383,0.36892 v 0.0906 0.0906 l -0.0635,8e-5 -0.0635,9e-5 -0.29633,0.5501 -0.29633,0.55011 -0.0851,9e-5 -0.0851,8e-5 -0.20042,0.52917 -0.20041,0.52916 -0.0955,0.0864 -0.0955,0.0864 -0.10584,0.18766 -0.10583,0.18766 v 0.17048 0.17048 h 0.0817 0.0817 l 0.0798,0.14907 0.0798,0.14907 -0.0441,0.23094 -0.0442,0.23095 -0.0691,-0.0427 -0.0691,-0.0427 -0.0532,0.0861 -0.0532,0.0861 h -0.16273 -0.16272 l -0.0566,0.22546 -0.0566,0.22547 -0.13553,0.17405 -0.13553,0.17406 -0.25825,0.25665 -0.25825,0.25664 -0.0566,0.14817 -0.0566,0.14817 -0.21433,0.0141 -0.21432,0.0141 -0.14817,0.007 -0.14816,0.007 0.0292,-0.20634 0.0292,-0.20634 0.22483,-0.22722 0.22483,-0.22722 0.30093,-0.41311 0.30092,-0.4131 0.24205,-0.55033 0.24205,-0.55034 0.15553,-0.27774 0.15552,-0.27774 0.002,-0.14559 0.002,-0.14559 0.25246,-0.37258 0.25246,-0.37257 v -0.0638 -0.0638 l 0.30912,-0.5373 0.30912,-0.5373 0.20265,-0.381 0.20266,-0.381 0.20363,-0.33681 0.20363,-0.33682 0.46993,-0.44087 0.46993,-0.44087 v -0.21981 -0.2198 l 0.12046,-0.0462 0.12047,-0.0462 0.31279,-0.0176 0.31279,-0.0176 0.16895,-0.20865 0.16896,-0.20865 0.0397,0.0289 0.0397,0.0289 0.35293,-0.31777 0.35293,-0.31777 0.46567,-0.21909 0.46567,-0.21909 0.889,0.002 0.889,0.002 0.46566,0.16342 0.46567,0.16342 0.0847,0.0888 0.0847,0.0888 0.21167,0.0965 0.21167,0.0965 0.49082,0.24213 0.49083,0.24213 0.33467,0.35486 0.33468,0.35486 v 0.0572 0.0571 l 0.49217,0.56166 0.49217,0.56167 0.26983,0.44577 0.26983,0.44577 v 0.0834 0.0834 h 0.0719 0.0719 l 0.0754,-0.86783 0.0754,-0.86784 -0.0198,-1.143 -0.0198,-1.143 -0.37454,-0.762 -0.37454,-0.762 -0.45765,-0.55033 -0.45765,-0.55033 -0.50185,-0.37688 -0.50185,-0.37688 -0.127,-0.14429 -0.127,-0.14428 -0.33742,-0.17734 -0.33741,-0.17733 h -0.1524 -0.1524 l -0.22608,-0.14817 -0.22608,-0.14816 -1.01977,-0.0199 -1.01978,-0.0199 -0.381,0.0974 -0.381,0.0974 -0.15364,0.10361 -0.15365,0.10361 -0.1483,-0.0388 -0.14831,-0.0388 -0.47527,0.21019 -0.47528,0.21019 -0.14402,0.28245 -0.14403,0.28245 -0.60109,0.55852 -0.60108,0.55853 0.10417,0.22863 0.10417,0.22863 v 0.32493 0.32494 l -0.35896,0.34841 -0.35897,0.34841 h -0.10936 -0.10936 l -0.0537,-0.13996 -0.0537,-0.13996 0.0924,-0.34613 0.0924,-0.34612 -0.0333,-0.0333 -0.0333,-0.0333 -0.70102,0.62524 -0.70103,0.62524 -0.29651,0.27946 -0.29651,0.27946 0.30447,-0.0536 0.30448,-0.0536 0.14002,0.14003 0.14003,0.14002 v 0.28276 0.28276 l -0.2605,0.2192 -0.26049,0.21919 h -0.24251 -0.24251 l -0.0559,-0.0904 -0.0559,-0.0904 -0.008,-0.2906 -0.008,-0.29059 h -0.0561 -0.0561 l -0.26898,0.50466 -0.26899,0.50467 -0.44131,0.48504 -0.44131,0.48505 0.16933,-0.0678 0.16933,-0.0678 0.12205,-0.0118 0.12205,-0.0118 0.10954,0.21167 0.10953,0.21166 0.001,0.35766 10e-4,0.35766 -0.24979,0.12918 -0.2498,0.12917 h -0.16448 -0.16448 l -0.0514,-0.13392 -0.0514,-0.13393 v -0.33174 -0.33174 l -0.0635,0.003 -0.0635,0.003 -0.13437,0.18784 -0.13438,0.18784 -0.30223,0.43241 -0.30224,0.4324 -0.17722,0.34739 -0.17723,0.34739 v 0.10116 0.10117 l 0.14817,-0.13011 0.14817,-0.13011 0.17976,-0.0546 0.17976,-0.0546 0.14352,0.30245 0.14352,0.30244 -0.0758,0.22902 -0.0758,0.22902 -0.22068,0.0263 -0.22069,0.0262 -0.23845,-0.12176 -0.23846,-0.12177 -0.25713,0.039 -0.25713,0.039 -0.20854,0.31054 -0.20852,0.31065 -0.14816,0.16413 -0.14817,0.16413 v 0.15837 0.15836 l -0.0979,-0.0605 -0.0979,-0.0605 0.048,0.29559 0.048,0.2956 -0.0665,0.1076 -0.0665,0.10761 -0.0601,-0.0971 -0.06,-0.0972 -0.15028,0.0477 -0.15028,0.0477 -0.12481,-0.0479 -0.12482,-0.0479 -0.007,-0.14452 -0.007,-0.14452 0.09,-0.23755 0.09,-0.23754 -0.0839,-0.0839 -0.0839,-0.0839 -0.14409,0.37728 -0.14408,0.37728 -0.045,0.28282 -0.045,0.28281 0.28713,0.32096 0.28713,0.32096 0.14798,-0.0568 0.14799,-0.0568 0.0478,0.1827 0.0478,0.18271 0.14236,-0.0452 0.14236,-0.0452 0.1768,0.16471 0.1768,0.16471 0.0649,-0.0584 0.0649,-0.0584 -0.0598,0.10408 -0.0598,0.10409 0.0933,0.17428 0.0933,0.17428 -0.0527,0.16613 -0.0527,0.16614 -0.10013,-4.2e-4 -0.10013,-4.3e-4 -0.27057,-0.25361 -0.27058,-0.2536 h -0.0694 -0.0694 l -0.23307,-0.23284 -0.23307,-0.23283 -0.38282,-0.41051 -0.38281,-0.41052 -0.22952,0.0604 -0.22951,0.0604 -0.47993,0.0114 -0.47993,0.0114 0.0107,0.1423 0.0107,0.1423 0.0543,-0.0336 0.0543,-0.0336 0.11328,0.21167 0.11329,0.21167 0.30164,0.17943 0.30165,0.17943 0.10583,0.13019 0.10583,0.1302 v 0.19548 0.19549 h -0.0723 -0.0723 l -0.21045,-0.19503 -0.21044,-0.19503 -0.0947,0.0316 -0.0948,0.0316 -0.27868,-0.25608 -0.27867,-0.25607 -0.33083,-0.30048 -0.33083,-0.30047 -0.2195,0.005 -0.21951,0.005 -0.31649,-0.0409 -0.3165,-0.0409 -0.0483,0.0782 -0.0483,0.0782 h 0.132 0.132 v 0.079 0.079 l 0.17418,0.0553 0.17418,0.0553 0.081,0.21303 0.081,0.21303 0.11635,-0.0446 0.11635,-0.0446 0.24183,0.29004 0.24183,0.29004 h 0.091 0.091 l 0.16915,0.19453 0.16914,0.19454 -0.0339,0.1018 -0.0339,0.10179 h -0.0716 -0.0716 l -0.13158,-0.13157 -0.13158,-0.13158 -0.19197,-0.0357 -0.19196,-0.0357 -0.2,-0.22953 -0.2,-0.22953 -0.28653,-0.15357 -0.28653,-0.15357 -0.10614,-0.001 -0.10614,-10e-4 -0.19387,-0.20448 -0.19387,-0.20447 -0.31413,0.12673 -0.31413,0.12673 -0.12937,0.14271 -0.12937,0.1427 -0.29396,0.16401 -0.29396,0.16401 -0.0983,0.13139 -0.0983,0.13139 0.0392,0.0635 0.0392,0.0635 -0.12522,-0.0481 -0.12522,-0.048 0.046,0.17602 0.046,0.17602 h -0.0972 -0.0972 l -0.0475,-0.12376 -0.0475,-0.12375 -0.23754,0.17562 -0.23754,0.17562 0.076,0.26508 0.076,0.26513 v 0.0217 0.0217 h -0.12815 -0.12815 l -0.18935,-0.10584 -0.18935,-0.10583 -0.127,-0.0944 -0.127,-0.0944 -0.29633,-0.0425 -0.29634,-0.0425 -0.10583,0.0381 -0.10583,0.0381 v 0.0806 0.0806 l 0.18217,-0.0975 0.18217,-0.0975 -0.0515,0.13423 -0.0515,0.13423 0.24315,0.14363 0.24314,0.14362 0.0346,0.1808 0.0346,0.18081 -0.23904,-0.0351 -0.23904,-0.0351 v -0.0751 -0.075 H 77.6321 77.52547 l -0.10781,-0.17262 -0.1078,-0.17262 -0.0815,0.0504 -0.0815,0.0504 -0.0986,-0.21644 -0.0986,-0.21644 h -0.22982 -0.22983 l -0.27879,-0.0558 -0.2788,-0.0558 0.0518,0.13502 0.0518,0.13502 -0.15631,0.19871 -0.15631,0.19872 z m 1.54651,-0.51081 h 0.0847 v -0.0373 -0.0373 l -0.0847,-0.0523 -0.0847,-0.0523 v 0.0897 0.0897 z m -2.56822,-1.72155 0.0565,-0.0565 -0.0565,-0.0564 -0.0564,-0.0564 v 0.11289 0.11289 z m 8.57672,-1.29987 0.67449,-0.0176 0.16661,-0.0892 0.16661,-0.0892 0.23839,-0.001 0.2384,-10e-4 0.18955,-0.0508 0.18955,-0.0508 -0.0464,-0.075 -0.0464,-0.075 h 0.0802 0.0803 l 0.0549,-0.29241 0.0549,-0.2924 0.59557,-1.12573 0.59557,-1.12573 0.10667,-0.12703 0.10667,-0.12703 0.23392,-0.40962 0.23393,-0.40961 -0.0374,-0.35239 -0.0374,-0.35238 -0.30158,-1.98967 -0.30158,-1.98967 -0.10351,-1.0248 -0.10352,-1.02481 0.0452,-1.17652 0.0452,-1.17653 0.16765,-0.55727 0.16765,-0.55727 0.27095,-0.58573 0.27095,-0.58573 0.30542,-0.508 0.30543,-0.508 0.0531,-0.0423 0.0531,-0.0423 0.26958,-0.39625 0.26958,-0.39626 v -0.10086 -0.10087 l -0.45628,0.38982 -0.45628,0.38981 -0.21757,0.0827 -0.21757,0.0827 -0.49032,0.0187 -0.49031,0.0187 -0.29634,-0.0626 -0.29633,-0.0625 -0.16933,-0.0695 -0.16934,-0.0695 -0.59266,-0.0932 -0.59267,-0.0932 -0.40734,-0.2088 -0.40735,-0.20881 -0.10354,0.0397 -0.10354,0.0397 -0.20878,0.3993 -0.20878,0.39929 -0.28387,0.44039 -0.28387,0.44038 0.0354,0.10635 0.0354,0.10636 0.258,-0.37658 0.258,-0.37657 0.17604,-0.3469 0.17604,-0.3469 0.20878,-0.1368 0.20878,-0.1368 0.0965,0.11631 0.0965,0.11631 0.0494,0.30435 0.0494,0.30435 -0.374151,0.40171 -0.37415,0.4017 -0.30228,0.55033 -0.30228,0.55034 -0.27567,1.10066 -0.27566,1.10067 -0.31824,1.10067 -0.31825,1.10066 -0.14188,0.71967 -0.14188,0.71967 -0.0781,0.42333 -0.0781,0.42333 -0.0545,1.22767 -0.0546,1.22767 0.10161,0.508 0.10161,0.508 0.11084,0.59266 0.11084,0.59267 0.29178,0.60441 0.29177,0.60441 0.4858,0.76992 0.4858,0.76991 -0.0152,0.27667 -0.0152,0.27668 0.009,0.0433 0.009,0.0432 0.6745,-0.0176 z m -0.13976,-1.21613 -0.0691,-0.004 -0.35463,-0.17206 -0.35463,-0.17206 -0.0536,-0.24404 -0.0536,-0.24403 0.11522,-0.23585 0.11522,-0.23585 0.25068,0.0268 0.25067,0.0268 0.27517,0.26499 0.27517,0.26499 v 0.27675 0.27674 l -0.16377,0.0876 -0.16377,0.0876 -0.0691,-0.004 z m -0.81657,-1.35045 h -0.0568 l -0.16934,-0.16933 -0.16933,-0.16933 v -0.25957 -0.25957 l 0.0876,-0.16376 0.0876,-0.16377 h 0.20571 0.20571 l 0.0876,0.16377 0.0876,0.16376 v 0.28878 0.28878 l -0.15483,0.14012 -0.15484,0.14012 z m -0.54739,-1.43933 h -0.16053 l -0.14012,-0.15483 -0.14013,-0.15484 v -0.2685 -0.2685 l 0.16934,-0.16933 0.16933,-0.16933 h 0.12008 0.12007 l 0.13393,0.0514 0.13392,0.0514 v 0.24766 0.24766 l -0.12268,0.29362 -0.12268,0.29361 z m -0.26403,-2.032 h -0.16465 l -0.13305,-0.13305 -0.13305,-0.13305 v -0.32323 -0.32324 l 0.15505,-0.19148 0.15505,-0.19148 0.22224,0.0558 0.22225,0.0558 0.0572,0.30507 0.0572,0.30507 -0.13682,0.28692 -0.13682,0.28691 z m 0.47328,-2.71915 -0.0997,-0.01 -0.14296,-0.0377 -0.14296,-0.0377 -0.028,-0.1853 -0.028,-0.18529 0.0325,-0.18959 0.0325,-0.18958 0.29853,-0.1845 0.29852,-0.1845 0.11511,0.15744 0.11512,0.15743 v 0.2264 0.2264 l -0.17548,0.22308 -0.17548,0.22309 z m 0.75121,-2.62022 -0.0889,-0.005 -0.1905,-0.0766 -0.1905,-0.0766 -0.0108,-0.10856 -0.0108,-0.10856 -0.0229,-0.21167 -0.0229,-0.21166 0.17543,-0.1905 0.17543,-0.1905 h 0.13765 0.13764 l 0.1016,0.1016 0.1016,0.1016 v 0.38946 0.38947 l -0.1016,0.1016 -0.1016,0.1016 -0.0889,-0.005 z m 1.07051,-3.23155 -0.0814,0.0272 -0.13682,-0.13683 -0.13683,-0.13683 -0.009,-0.18445 -0.009,-0.18445 0.0177,-0.21167 0.0177,-0.21167 0.1369,-0.23283 0.1369,-0.23283 h 0.14451 0.14452 l 0.0881,0.27516 0.0881,0.27517 -0.15962,0.46347 -0.15962,0.46347 z m -1.81558,14.48915 0.10583,0.008 v -0.0694 -0.0694 l -0.20806,-0.18091 -0.20806,-0.1809 -0.17466,-0.34237 -0.17466,-0.34236 h -0.19682 -0.19683 l -0.12725,-0.14816 -0.12725,-0.14817 -0.0575,-0.16109 -0.0575,-0.16109 0.0936,-0.28377 0.0937,-0.28377 -0.14031,-0.42241 -0.1403,-0.42241 -0.15658,0.0838 -0.15658,0.0838 -0.13962,-0.0536 -0.13962,-0.0536 -0.0782,-0.20563 -0.0782,-0.20563 v -0.32609 -0.32609 l 0.22814,-0.16619 0.22813,-0.16619 -0.11189,-0.81497 -0.11189,-0.81497 0.061,-0.3594 0.061,-0.35941 0.0704,-0.762 0.0704,-0.762 0.12513,-0.762 0.12513,-0.762 0.0599,-0.254 0.0599,-0.254 0.1647,-0.59266 0.16471,-0.59267 0.20716,-0.67733 0.20715,-0.67734 0.24768,-1.016 0.24769,-1.016 0.0539,-0.16933 0.0539,-0.16933 -0.12961,0.22237 -0.12962,0.22237 -0.078,0.32796 -0.0781,0.32796 -0.68552,2.27096 -0.68551,2.27095 -0.0576,0.0932 -0.0576,0.0932 -0.0661,0.30286 -0.066,0.30285 -0.21215,0.93134 -0.21214,0.93133 -0.0555,0.97367 -0.0555,0.97366 0.0907,0.635 0.0907,0.635 0.30264,0.95325 0.30264,0.95324 0.23902,0.27442 0.23902,0.27443 0.13357,0.26097 0.13358,0.26097 0.31117,0.37403 0.31118,0.37403 0.18082,0.0551 0.18083,0.0551 0.10583,0.008 z m 4.6355,-0.1609 h 0.0423 v -0.0423 -0.0423 h -0.0423 -0.0423 v 0.0423 0.0423 z m -0.254,-0.84666 h 0.0423 v -0.0423 -0.0423 h -0.0423 -0.0423 v 0.0423 0.0423 z m 0.34096,-0.44326 0.29404,-0.31626 v -0.255 -0.255 l 0.28647,-0.31774 0.28647,-0.31774 0.31356,-0.58152 0.31357,-0.58152 0.43068,-0.60381 0.43068,-0.60382 0.42071,-0.508 0.4207,-0.508 0.0543,-0.0423 0.0543,-0.0423 0.3015,-0.381 0.3015,-0.381 0.0619,-0.127 0.0619,-0.127 -0.17804,0.20267 -0.17804,0.20266 -0.73814,0.81334 -0.73813,0.81333 -0.37175,0.381 -0.37175,0.381 -0.15666,0.29634 -0.15666,0.29633 -0.24813,0.28868 -0.24812,0.28867 -0.11278,0.21933 -0.11277,0.21932 -0.0474,0.0423 -0.0474,0.0423 -0.31252,0.56409 -0.31252,0.56409 0.002,0.32491 0.002,0.32491 0.29404,-0.31626 z m 11.38575,-2.65592 0.085,-0.085 -0.094,-1.1384 -0.094,-1.13839 -0.16139,-0.35754 -0.16139,-0.35753 -0.23177,0.0983 -0.23177,0.0983 -0.35182,0.25922 -0.35183,0.25922 -0.0989,0.15699 -0.0989,0.157 0.19673,0.13741 0.19673,0.1374 0.32698,0.3406 0.32697,0.3406 0.32919,0.49282 0.3292,0.49282 v 0.0956 0.0956 z m -10.24844,-1.10499 0.0634,-0.0715 0.70779,-0.80433 0.70778,-0.80434 0.93153,-1.00212 0.93153,-1.00212 0.55318,-0.43721 0.55318,-0.43721 0.24389,-0.21167 0.24389,-0.21167 0.43344,-0.40516 0.43344,-0.40517 0.67734,-0.45091 0.67733,-0.4509 0.8255,-0.39292 0.8255,-0.39291 v -0.0904 -0.0904 l -0.27026,-0.39625 -0.27026,-0.39626 -0.13873,-0.10059 -0.13873,-0.10059 -0.36148,-0.46854 -0.36148,-0.46854 -0.38868,-0.25746 -0.38869,-0.25745 -0.33974,-0.0915 -0.33974,-0.0915 -0.51194,0.12945 -0.51194,0.12945 -0.22705,0.048 -0.22705,0.0479 -1.03702,0.69367 -1.03701,0.69367 -0.38694,0.3647 -0.38693,0.3647 -0.254,0.17962 -0.254,0.17962 -0.37454,0.45194 -0.37453,0.45193 -0.23685,0.41023 -0.23685,0.41024 -0.11999,0.46084 -0.11999,0.46085 -0.23038,-0.0172 -0.23039,-0.0172 0.0583,0.48288 0.0583,0.48287 0.20225,1.2058 0.20225,1.20581 0.18094,0.77069 0.18094,0.7707 z m 0.0715,-2.16337 -0.12602,0.0248 -0.10171,-0.12256 -0.10172,-0.12256 -0.16566,-0.5793 -0.16567,-0.5793 v -0.39883 -0.39883 l 0.30295,-0.23644 0.30296,-0.23644 0.4142,-0.81895 0.41419,-0.81895 0.0882,-0.0545 0.0882,-0.0545 0.30626,-0.47875 0.30625,-0.47875 0.39126,-0.37207 0.39127,-0.37207 0.254,-0.18956 0.254,-0.18956 0.80433,-0.32259 0.80433,-0.3226 0.84667,0.006 0.84667,0.006 0.16933,0.0439 0.16933,0.0439 0.2315,0.006 0.2315,0.006 0.25555,0.23283 0.25554,0.23284 0.0511,0.26735 0.0511,0.26736 -0.17759,0.095 -0.17759,0.095 -0.25056,-0.12957 -0.25056,-0.12957 h -0.0465 -0.0465 v 0.28597 0.28596 l -0.1259,0.10449 -0.1259,0.10449 -0.21576,-0.0541 -0.21576,-0.0541 -0.0875,-0.23025 -0.0875,-0.23024 0.0362,-0.18915 0.0362,-0.18915 -0.30546,-0.0581 -0.30546,-0.0581 -0.69261,0.17824 -0.69262,0.17824 -0.49272,0.24658 -0.49271,0.24659 -0.38097,0.35135 -0.38096,0.35136 h -0.0635 -0.0635 v 0.0882 0.0882 l -0.0851,0.10226 -0.0851,0.10226 -0.33792,0.51815 -0.33792,0.51814 -0.20012,0.54019 -0.20013,0.54019 -0.0518,0.29633 -0.0518,0.29633 0.18807,-0.381 0.18808,-0.381 h 0.16933 0.16934 l 0.11896,0.34409 0.11897,0.34409 -0.0532,0.2118 -0.0532,0.2118 -0.1604,0.18494 -0.16041,0.18495 h -0.0763 -0.0763 l -0.1412,-0.2327 -0.14119,-0.2327 -0.0606,0.1692 -0.0606,0.1692 -0.1064,0.127 -0.10641,0.127 -0.12232,0.42333 -0.12232,0.42334 -0.12603,0.0248 z m 2.22869,-3.28576 -0.1378,-0.001 -0.0981,-0.0624 -0.0981,-0.0624 -0.056,-0.2988 -0.0561,-0.2988 0.16824,-0.15225 0.16824,-0.15226 0.16687,0.0893 0.16687,0.0893 0.0401,0.31961 0.0401,0.31961 -0.0832,0.10584 -0.0833,0.10583 -0.1378,-10e-4 z m 1.72486,-1.18404 h -0.11739 l -0.13181,-0.18817 -0.1318,-0.18817 v -0.2204 -0.22041 l 0.20368,-0.19134 0.20368,-0.19135 0.17732,0.0949 0.17732,0.0949 v 0.31685 0.31685 l -0.1318,0.18817 -0.1318,0.18817 z m -13.10216,6.25881 0.10583,0.007 v -0.39018 -0.39018 l -0.20662,0.0519 -0.20663,0.0519 -0.13204,-0.18852 -0.13204,-0.18852 v -0.10265 -0.10265 l -0.0966,-0.23835 -0.0966,-0.23834 -0.0164,-0.15117 -0.0164,-0.15117 -0.10361,-0.10283 -0.10361,-0.10283 0.0599,0.15737 0.0599,0.15736 -0.33009,-0.20822 -0.33009,-0.20822 -0.0219,-0.20314 -0.0219,-0.20315 0.11012,-0.21167 0.11012,-0.21166 0.20811,0.0287 0.2081,0.0287 0.19799,0.18293 0.19798,0.18293 0.2663,0.4445 0.26629,0.4445 h 0.0649 0.0649 l 0.007,0.1905 0.007,0.1905 0.16287,-0.762 0.16287,-0.762 0.13303,-0.55033 0.13302,-0.55034 0.20509,-0.635 0.20509,-0.635 0.3434,-1.09139 0.3434,-1.09139 -0.0735,-0.0735 -0.0735,-0.0735 -0.3337,-0.008 -0.3337,-0.008 -0.42333,0.0542 -0.42334,0.0542 -0.61514,0.13411 -0.61514,0.13412 -0.046,0.0745 -0.046,0.0745 h -0.19907 -0.19907 l -0.40977,0.3192 -0.40977,0.3192 -0.23661,0.15089 -0.23661,0.1509 -0.0817,0.21495 -0.0817,0.21495 -0.4225,0.40085 -0.42249,0.40085 0.001,0.1206 10e-4,0.12061 0.11151,0.32022 0.11151,0.32022 0.0989,0.0989 0.0989,0.0989 v 0.14256 0.14255 l 0.3694,0.53901 0.36939,0.53901 0.52329,0.55034 0.52328,0.55033 0.13617,0.22368 0.13617,0.22368 0.26232,0.21874 0.26231,0.21874 0.381,0.29188 0.381,0.29189 0.10584,0.007 z m 0.23559,-3.71881 h -0.10352 l -0.14012,-0.15483 -0.14012,-0.15483 v -0.25232 -0.25232 l 0.11784,-0.16115 0.11784,-0.16116 0.13555,0.11251 0.13555,0.1125 0.0903,0.33526 0.0903,0.33527 -0.10004,0.12054 -0.10003,0.12053 z m -1.34197,-0.25844 -0.10012,-0.004 -0.1905,-0.13288 -0.1905,-0.13289 v -0.14282 -0.14283 l 0.10583,-0.13463 0.10583,-0.13463 0.18587,-0.0551 0.18587,-0.0551 0.055,0.29321 0.055,0.2932 -0.0561,0.1767 -0.0561,0.17669 z m 8.83221,-7.87731 0.21167,0.007 0.33866,-0.0918 0.33867,-0.0918 0.29633,-0.28126 0.29634,-0.28125 0.44622,-0.26033 0.44622,-0.26032 0.21361,-0.0536 0.21361,-0.0536 0.1445,-0.20685 0.1445,-0.20686 0.19803,-0.24871 0.19803,-0.24871 h 0.0711 0.0711 l 0.13372,0.13371 0.13372,0.13372 0.44383,-0.31784 0.44383,-0.31785 0.508,-0.41943 0.508,-0.41943 0.44876,-0.47594 0.44876,-0.47594 -0.16293,-0.0257 -0.16293,-0.0257 -0.4975,0.18152 -0.4975,0.18152 -0.508,0.15954 -0.508,0.15954 -0.16933,0.085 -0.16933,0.085 -0.2297,0.0831 -0.22969,0.0831 -0.20481,0.32079 -0.2048,0.32079 -0.18473,0.21167 -0.18474,0.21167 -0.34413,0.37384 -0.34414,0.37385 -0.42589,0.29296 -0.4259,0.29296 -0.51574,0.12309 -0.51573,0.12308 -0.59267,0.0114 -0.59267,0.0114 -0.49618,-0.0999 -0.49618,-0.0999 -0.28134,-0.21458 -0.28133,-0.21459 h -0.048 -0.048 v 0.33176 0.33176 l 0.27517,0.16701 0.27517,0.167 0.46566,0.10259 0.46567,0.10259 0.21167,0.0323 0.21166,0.0323 0.254,0.0787 0.254,0.0787 0.21167,0.007 z m -0.35772,-1.60688 0.36195,0.006 0.47532,-0.16706 0.47531,-0.16706 0.0749,0.0463 0.0749,0.0463 0.654,-0.66241 0.65399,-0.6624 0.27533,-0.36057 0.27533,-0.36056 v -0.0561 -0.0561 l 0.14013,-0.15483 0.14012,-0.15483 -0.28829,-9.3e-4 -0.28829,-9.4e-4 -0.30422,-0.0503 -0.30422,-0.0503 -0.40231,0.68622 -0.4023,0.68622 -0.0848,0.0524 -0.0848,0.0524 -0.13299,-0.13299 -0.13298,-0.13298 8e-5,-0.36387 8e-5,-0.36386 -0.51433,0.0423 -0.51432,0.0423 -0.0253,0.16934 -0.0253,0.16933 -0.0365,0.17384 -0.0365,0.17383 -0.43411,0.11126 -0.43412,0.11126 -0.1282,-0.1282 -0.12821,-0.1282 -0.0434,-0.38506 -0.0434,-0.38505 -0.29096,-0.13807 -0.29096,-0.13807 -0.0463,-0.1206 -0.0463,-0.12061 h -0.0756 -0.0756 v 0.37601 0.376 l -0.0843,0.0521 -0.0844,0.0521 -0.14849,0.0342 -0.14848,0.0342 -0.17754,0.0522 -0.17755,0.0522 -0.10911,-0.26344 -0.10912,-0.26343 0.0467,-0.51484 0.0467,-0.51485 0.0918,-0.0918 0.0918,-0.0918 v -0.13516 -0.13517 l -0.29441,-0.5464 -0.29441,-0.5464 -0.002,0.38904 -0.002,0.38905 -0.16303,0.14754 -0.16304,0.14754 -0.15382,-0.0296 -0.15382,-0.0296 -0.11636,-0.24277 -0.11635,-0.24277 0.14336,-0.6635 0.14335,-0.66349 -0.15173,-0.25687 -0.15174,-0.25687 h -0.15232 -0.15232 l -0.16778,-0.27516 -0.16777,-0.27517 -3.4e-4,-0.22661 -3.3e-4,-0.22661 -0.71987,-0.0274 -0.71986,-0.0274 1.9e-4,0.0559 2e-4,0.0559 0.23515,0.49723 0.23515,0.49723 0.17316,0.2512 0.17315,0.25121 0.28203,0.508 0.28203,0.508 0.16697,0.29633 0.16697,0.29633 0.19255,0.64277 0.19255,0.64277 0.24138,0.48947 0.24138,0.48947 0.0558,-0.0316 0.0558,-0.0316 0.18249,0.23199 0.18248,0.23199 0.50705,0.29717 0.50706,0.29718 h 0.1598 0.1598 l 0.0523,0.0847 0.0523,0.0847 h 0.16911 0.16911 l 0.24923,0.27287 0.24923,0.27287 v -0.0568 -0.0568 l 0.3175,0.1166 0.3175,0.11661 0.36194,0.006 z m -0.0622,-3.22059 0.38437,0.009 0.46229,-0.11695 0.46229,-0.11696 0.33867,-0.0574 0.33866,-0.0574 0.49434,-0.17248 0.49434,-0.17248 0.30999,0.0452 0.31,0.0452 0.43048,0.057 0.43048,0.057 0.28919,-0.14943 0.28918,-0.14943 0.67734,-0.57796 0.67733,-0.57795 0.37323,-0.43514 0.37324,-0.43514 0.38876,-0.1808 0.38877,-0.1808 0.3175,-0.197 0.3175,-0.19701 v -0.20181 -0.20182 l 0.24255,-0.27811 0.24255,-0.27811 0.26058,-0.46567 0.26058,-0.46567 0.38587,-1.03385 0.38587,-1.03385 v -0.63831 -0.63832 h -0.11082 -0.11081 l -0.14917,0.10907 -0.14917,0.10908 -0.0736,0.54709 -0.0736,0.54709 -0.0936,0.33867 -0.0936,0.33867 -0.18223,0.508 -0.18224,0.508 -0.28039,0.48135 -0.2804,0.48135 -0.22187,0.17453 -0.22188,0.17453 -0.31352,0.0844 -0.31352,0.0844 -0.30354,0.31803 -0.30354,0.31803 -0.32788,0.26512 -0.32789,0.26511 -0.441,0.23059 -0.441,0.2306 v 0.17739 0.17739 l -0.0957,-0.0957 -0.0957,-0.0957 -0.30647,0.18788 -0.30647,0.18789 -0.42333,0.20051 -0.42333,0.2005 -0.127,0.0735 -0.127,0.0735 -0.381,0.18055 -0.381,0.18055 -0.0423,-0.002 -0.0423,-0.002 -0.1029,0.14691 -0.10291,0.14692 -0.27809,0.13152 -0.2781,0.13151 -0.46567,-0.12491 -0.46566,-0.12492 -0.36864,-0.0396 -0.36864,-0.0396 -0.16053,-0.0859 -0.16053,-0.0859 v 0.20984 0.20985 l -0.18817,0.1318 -0.18817,0.1318 h -0.18783 -0.18783 l -0.0509,0.0823 -0.0509,0.0823 0.32106,0.16245 0.32105,0.16244 0.38438,0.009 z m 5.95381,-0.32944 h 0.0568 l 0.69719,-0.3543 0.69718,-0.3543 0.44043,-0.2807 0.44044,-0.2807 h 0.074 0.074 l 0.19885,-0.21167 0.19885,-0.21167 h 0.0735 0.0735 l 0.44302,-0.33448 0.44301,-0.33448 0.19732,-0.26688 0.19731,-0.26688 -0.28413,0.0621 -0.28413,0.0621 -0.635,0.29534 -0.635,0.29535 -0.46567,0.39016 -0.46566,0.39017 -0.0423,0.0506 -0.0423,0.0506 -0.30448,0.20524 -0.30449,0.20525 -0.28818,0.25944 -0.28818,0.25945 -0.16129,0.18505 -0.16129,0.18506 z m -7.30409,-0.67734 h 0.13532 l 0.16129,-0.1817 0.16129,-0.1817 -0.0944,-0.0332 -0.0943,-0.0332 -0.38214,-0.24235 -0.38214,-0.24234 -0.2274,-0.45293 -0.22741,-0.45293 -0.0687,-0.127 -0.0687,-0.127 -0.17991,-0.35019 -0.17991,-0.3502 v -0.31168 -0.31167 l -0.14817,0.0444 -0.14817,0.0444 -0.57394,0.0975 -0.57394,0.0975 0.19294,0.16535 0.19294,0.16535 0.16934,0.15275 0.16933,0.15276 0.29633,0.39594 0.29634,0.39594 0.48631,0.59622 0.486301,0.59622 0.23309,0.24695 0.23308,0.24695 z m -10.28595,-1.54693 0.0512,-0.0511 -0.0445,-0.11112 -0.0445,-0.11113 -0.007,0.16228 -0.007,0.16228 z m 4.57175,-2.95884 0.72108,-0.0139 0.0423,-0.0685 0.0423,-0.0685 h 0.24208 0.24207 l 0.13393,-0.0514 0.13392,-0.0514 v -0.0674 -0.0674 l -0.8119,-0.0293 -0.81191,-0.0293 -0.15417,-0.1905 -0.15416,-0.1905 h -0.12767 -0.12767 l -0.13393,-0.0514 -0.13392,-0.0514 v -0.23588 -0.23589 l 0.13924,-0.0534 0.13925,-0.0534 0.14251,0.12897 0.14251,0.12897 1.01379,0.0545 1.01378,0.0545 0.33429,-0.10562 0.3343,-0.10563 0.33109,-0.21301 0.33109,-0.21301 -0.1407,-0.0787 -0.14071,-0.0787 -0.45698,0.0845 -0.45699,0.0845 -0.28373,-0.0731 -0.28374,-0.0731 -0.67733,-0.0541 -0.67734,-0.0541 -0.27754,-0.0475 -0.27755,-0.0475 -0.16626,-0.36497 -0.16626,-0.36497 0.0516,-1.44549 0.0516,-1.4455 -0.0735,0.002 -0.0735,0.002 -0.28148,0.33896 -0.28148,0.33897 -0.33235,0.71938 -0.33236,0.71938 -0.003,0.14663 -0.003,0.14663 -0.12431,0.16435 -0.12431,0.16435 v 0.27515 0.27515 l -0.0847,0.0523 -0.0847,0.0523 v 0.25899 0.25899 l -0.2575,0.29328 -0.25751,0.29328 0.0531,0.18357 0.0531,0.18356 0.22554,0.19601 0.22553,0.19601 0.16934,0.0681 0.16933,0.0681 0.74461,0.10994 0.74461,0.10995 0.0421,0.0682 0.0421,0.0682 z m 15.67312,-0.70123 0.16338,-0.254 0.10001,-0.28889 0.10002,-0.2889 -0.0359,-0.0358 -0.0359,-0.0359 -0.10082,0.18839 -0.10083,0.18838 -0.0665,0.22104 -0.0666,0.22103 -0.0602,0.16933 -0.0602,0.16933 z m -9.64919,-0.55163 0.0635,-0.001 0.127,-0.0821 0.127,-0.0821 -0.1905,-10e-4 -0.1905,-10e-4 v 0.0847 0.0847 l 0.0635,-10e-4 z m -1.48167,-0.4547 0.1905,-0.0524 0.84667,-0.0894 0.84667,-0.0894 0.12462,-0.042 0.12463,-0.042 -0.10023,-0.0619 -0.10023,-0.0619 -0.97112,-0.0234 -0.97111,-0.0234 -0.0905,0.169 -0.0904,0.169 v 0.10011 0.10011 z m -2.99938,-0.90923 0.19679,0.0106 0.50814,-0.48468 0.50815,-0.48469 -0.0954,-0.0318 -0.0954,-0.0318 -0.23914,0.0991 -0.23914,0.0991 -0.0753,0.26263 -0.0753,0.26263 -0.09,0.03 -0.09,0.03 -0.0944,-0.2072 -0.0944,-0.2072 -0.16344,0.0427 -0.16343,0.0427 -0.0951,-0.27294 -0.0952,-0.27294 0.16907,-0.54738 0.16907,-0.54738 v -0.16041 -0.16042 l -0.10583,0.002 -0.10584,0.002 -0.48077,0.19774 -0.48077,0.19774 -0.33321,0.26391 -0.33321,0.2639 -0.044,0.61554 -0.044,0.61554 0.10835,0.15469 0.10835,0.15469 0.0543,-0.088 0.0544,-0.088 0.35665,0.0506 0.35665,0.0506 0.42333,0.063 0.42334,0.0629 0.19678,0.0106 z m 1.55388,-0.0221 0.26899,-0.0538 0.0292,-0.0291 0.0292,-0.0292 -0.0667,-0.1802 -0.0667,-0.18019 -0.23149,0.19892 -0.2315,0.19892 v 0.0642 0.0642 z m 2.398,-0.11784 0.59267,-0.0235 0.0847,-0.005 0.0847,-0.005 0.48269,0.0481 0.48269,0.0481 0.0477,-0.0772 0.0477,-0.0772 -0.19173,-0.0622 -0.19173,-0.0622 -0.46567,-0.028 -0.46567,-0.028 -0.36821,-0.0372 -0.36821,-0.0372 -0.0271,-0.0271 -0.0271,-0.0271 -0.0571,-0.22736 -0.0571,-0.22735 0.32535,-0.0547 0.32534,-0.0547 0.38642,-0.12153 0.38641,-0.12153 0.64335,-0.32902 0.64336,-0.32901 0.31017,-0.21077 0.31018,-0.21077 -0.0699,-0.043 -0.0699,-0.043 -0.381,0.11866 -0.381,0.11867 -0.42333,0.12871 -0.42333,0.12872 -0.21167,0.0194 -0.21167,0.0195 0.0236,-0.11312 0.0236,-0.11313 -0.17826,-0.0466 -0.17826,-0.0466 -0.0843,-0.22126 -0.0843,-0.22126 0.15428,-0.11271 0.15427,-0.1127 0.68394,-0.47996 0.68394,-0.47996 0.44185,-0.508 0.44185,-0.508 0.0595,-0.0881 0.0595,-0.0881 0.16176,-0.18756 0.16175,-0.18756 -0.0511,-0.0511 -0.0511,-0.0511 -0.25078,0.17857 -0.25077,0.17857 h -0.0915 -0.0915 l -0.4128,0.254 -0.4128,0.254 h -0.0601 -0.0601 l -0.39625,0.26816 -0.39626,0.26816 -0.40463,0.40917 -0.40463,0.40918 h -0.19933 -0.19932 l -0.0483,-0.18489 -0.0483,-0.18488 0.22897,-0.42895 0.22898,-0.42895 0.044,-0.0423 0.0441,-0.0423 0.1023,-0.23284 0.10229,-0.23283 -0.10402,5.9e-4 -0.10402,6e-4 -0.21741,0.1476 -0.21742,0.14761 -0.29058,0.33867 -0.29059,0.33867 -0.0939,0.16933 -0.0939,0.16933 h -0.16011 -0.16011 l -0.025,-0.33948 -0.025,-0.33948 0.27904,-0.38801 0.27904,-0.38801 0.31179,-0.2711 0.31179,-0.27109 -0.0872,-0.24999 -0.0871,-0.25 0.21996,-0.37532 0.21995,-0.37533 0.27598,-0.28109 0.27598,-0.2811 0.20137,-0.127 0.20137,-0.127 0.22106,-0.17654 0.22105,-0.17655 0.44442,-0.24679 0.44441,-0.24678 9e-5,-0.0692 8e-5,-0.0692 -0.14817,0.0425 -0.14816,0.0425 -0.71967,0.14194 -0.71967,0.14194 -0.51705,0.23383 -0.51705,0.23384 -0.42715,0.3283 -0.42716,0.3283 -0.17762,0.30786 -0.17763,0.30787 v 0.0373 0.0373 l 0.25448,-0.0374 0.25448,-0.0374 0.29585,0.22566 0.29585,0.22565 v 0.22308 0.22308 l -0.32421,0.38644 -0.32422,0.38645 -0.13092,0.21167 -0.13092,0.21167 -0.0985,0.55033 -0.0985,0.55033 -0.0956,0.1905 -0.0956,0.1905 h -0.11479 -0.11479 l -0.0788,-0.20735 -0.0788,-0.20735 0.0757,-0.44882 0.0757,-0.44881 0.12206,-0.39604 0.12205,-0.39603 0.1887,-0.26501 0.1887,-0.265 -0.0416,-0.0416 -0.0416,-0.0416 -0.22241,0.0558 -0.2224,0.0558 -0.14448,0.24459 -0.14449,0.24459 -0.22023,-0.0168 -0.22024,-0.0168 -0.2907,0.2029 -0.2907,0.20289 -0.18904,0.17377 -0.18904,0.17376 -0.001,0.0614 -0.001,0.0613 0.21718,-0.0826 0.21718,-0.0826 h 0.11458 0.11458 l 0.18796,0.30412 0.18795,0.30412 -0.13871,0.49893 -0.13872,0.49894 v 0.30554 0.30553 l -0.1598,0.0418 -0.15981,0.0418 -0.14977,0.33215 -0.14978,0.33215 0.0552,0.0552 0.0552,0.0552 0.21601,-0.0984 0.21601,-0.0984 h 0.23535 0.23536 l -0.0344,-0.23441 -0.0344,-0.23442 0.32423,-0.25467 0.32424,-0.25467 0.23681,-0.10358 0.23682,-0.10358 h 0.17985 0.17985 l 0.15483,0.14012 0.15484,0.14013 v 0.15044 0.15045 l -0.2332,0.15393 -0.2332,0.15393 -0.16897,0.0933 -0.16897,0.0933 -0.0266,0.41251 -0.0266,0.41251 -0.0913,0.11003 -0.0913,0.11003 0.0434,0.0435 0.0435,0.0434 0.24378,-0.10588 0.24377,-0.10589 0.19201,-0.11968 0.19201,-0.11967 -0.12252,-0.0951 -0.12252,-0.0951 -0.0272,-0.20886 -0.0272,-0.20887 0.3746,-0.19877 0.3746,-0.19877 0.19319,0.0485 0.19319,0.0485 0.0544,0.29016 0.0544,0.29016 -0.0557,0.0902 -0.0557,0.0902 h -0.17492 -0.17492 l 0.0469,0.23442 0.0469,0.23442 -0.14213,0.18539 -0.14214,0.1854 -0.29633,0.12419 -0.29633,0.12419 0.127,0.045 0.127,0.045 0.254,0.0248 0.254,0.0248 z m -9.398,-0.86553 h 0.0423 v -0.0423 -0.0423 h -0.0423 -0.0423 v 0.0423 0.0423 z m 22.94328,-0.84971 0.0833,0.003 0.55173,-0.26158 0.55172,-0.26158 0.33867,-0.1679 0.33867,-0.16791 -0.33867,0.0603 -0.33867,0.0603 -0.15756,0.0155 -0.15756,0.0155 -0.0795,0.14201 -0.0795,0.14202 -0.14396,4.2e-4 -0.14396,4.2e-4 -0.254,0.20821 -0.254,0.2082 0.0833,0.003 z m -10.14543,-1.09762 h 0.0555 l 0.30433,-0.22883 0.30432,-0.22882 0.40213,-0.34268 0.40212,-0.34267 5e-5,-0.24094 4e-5,-0.24093 0.14816,-0.26153 0.14817,-0.26153 0.10515,-0.13253 0.10514,-0.13254 0.64437,-0.74626 0.64438,-0.74626 -0.0467,-0.0467 -0.0467,-0.0467 -0.25254,0.088 -0.25255,0.088 -0.16759,-0.0438 -0.1676,-0.0438 -0.45201,0.343 -0.45202,0.343 -0.127,0.11466 -0.127,0.11465 -0.9894,1.1008 -0.9894,1.10079 -0.394,0.36318 -0.394,0.36318 0.3674,-0.0702 0.3674,-0.0702 0.42334,-0.002 0.42333,-0.002 -0.0212,0.10583 -0.0212,0.10584 h 0.0555 z m -8.29461,-0.1694 0.0688,-7e-5 0.41373,-0.15713 0.41372,-0.15712 -0.0962,-0.0595 -0.0962,-0.0595 v -0.25937 -0.25937 l -0.1099,0.0912 -0.1099,0.0912 -0.27636,0.38482 -0.27636,0.38483 z m 1.1221,-0.3386 h 0.0897 v -0.0847 -0.0847 h -0.0373 -0.0373 l -0.0523,0.0847 -0.0523,0.0847 z m -0.27723,-0.70555 0.0565,-0.0564 -0.0565,-0.0564 -0.0564,-0.0564 v 0.11289 0.11289 z m -0.18886,-1.0067 0.27111,-0.27731 -0.0879,-0.23288 -0.0879,-0.23289 h -0.0562 -0.0562 l -0.0543,0.14817 -0.0543,0.14816 -0.12547,0.2244 -0.12548,0.2244 0.0528,0.13763 0.0528,0.13763 z m 5.52152,-0.15041 h 0.0269 l 0.53051,-0.26094 0.53052,-0.26093 0.381,-0.11915 0.381,-0.11915 0.0543,-9.2e-4 0.0543,-9.1e-4 0.0555,0.221 0.0555,0.221 0.69454,-0.69769 0.69455,-0.69768 0.56683,-0.39971 0.56682,-0.39971 0.30352,-0.39763 0.30352,-0.39762 -0.0543,-0.0878 -0.0543,-0.0878 -1.11241,0.0572 -1.11242,0.0572 -0.381,0.11234 -0.381,0.11234 -0.33867,0.16627 -0.33866,0.16626 -0.42334,0.18548 -0.42333,0.18547 -0.2668,0.12088 -0.26679,0.12089 h -0.0829 -0.0829 l -0.60283,0.58284 -0.60283,0.58284 v 0.0876 0.0876 l -0.0514,0.13393 -0.0514,0.13392 h 0.18048 0.18049 l 0.0817,0.21486 0.0817,0.21485 0.24877,-0.18392 0.24877,-0.18393 0.13311,0.0511 0.13311,0.0511 v 0.15788 0.15788 l 0.0564,0.0564 0.0564,0.0564 h 0.0269 z m -4.82747,-0.50832 0.0734,-3.4e-4 0.27914,-0.17019 0.27913,-0.17018 0.15354,-0.35867 0.15355,-0.35866 -0.0676,-0.0441 -0.0675,-0.044 -0.0956,-0.25132 -0.0955,-0.25131 -0.004,-0.31846 -0.004,-0.31847 h -0.054 -0.054 l -0.11483,0.25943 -0.11484,0.25942 0.0521,0.2607 0.0521,0.26069 -0.0934,0.11248 -0.0934,0.11248 -0.0822,0.3199 -0.0822,0.3199 -0.0463,0.1905 -0.0463,0.1905 0.0734,-3.4e-4 z m -2.10361,-0.76168 h 0.0301 l 0.12095,-0.12096 0.12095,-0.12095 v -0.21677 -0.21677 l 0.17969,-0.65711 0.17969,-0.65711 0.30965,-0.71967 0.30965,-0.71966 0.27266,-0.39626 0.27266,-0.39625 v -0.075 -0.075 l 0.40217,-0.35022 0.40216,-0.35022 0.4834,-0.37442 0.4834,-0.37441 0.2126,-0.25266 0.21261,-0.25267 0.701,-0.46241 0.70099,-0.46242 0.48662,-0.19424 0.48662,-0.19425 0.33365,-0.33364 0.33364,-0.33365 0.12468,-0.39744 0.12468,-0.39744 0.0463,-0.5674 0.0463,-0.5674 0.26598,-0.56889 0.26598,-0.56889 0.11731,-0.11731 0.11731,-0.11731 0.3995,-0.5244 0.3995,-0.5244 0.0504,-0.0423 0.0504,-0.0423 0.19851,-0.29633 0.19851,-0.29633 0.59801,-0.58412 0.59801,-0.58412 0.14762,-0.27542 0.14762,-0.27542 0.0597,-0.66446 0.0597,-0.66446 0.24031,-0.7126 0.24031,-0.7125899 0.2847,-0.43041 0.2847,-0.4304 0.16041,-0.24404 0.1604,-0.24403 0.0847,-0.13727 0.0847,-0.13727 0.53614,-0.7513 0.53614,-0.7513 0.16673,-0.30673 0.16673,-0.30673 0.33642,-0.54116 0.33642,-0.54115 -0.0404,-0.0404 -0.0404,-0.0404 -0.13708,0.13708 -0.13708,0.13708 -0.0574,0.002 -0.0575,0.002 -0.33774,0.29471 -0.33775,0.29471 h -0.0674 -0.0674 l -0.16716,0.38997 -0.16716,0.38996 -0.19527,-0.049 -0.19527,-0.049 -0.20606,0.14291 -0.20607,0.14291 -0.16413,0.15113 -0.16413,0.15113 h -0.0596 -0.0597 l -0.0534,0.13924 -0.0534,0.13925 0.13289,0.14683 0.13288,0.14684 0.0173,0.49709 0.0173,0.49708 -0.19226,0.0273 -0.19226,0.0273 -0.13209,-0.31614 -0.1321,-0.31614 0.0556,-0.30381 0.0556,-0.30381 -0.38739,0.37746 -0.38739,0.37746 v 0.13477 0.13477 l -0.0753,0.0804 -0.0753,0.0804 -0.0858,0.46567 -0.0858,0.46566 -0.29936,0.7806599 -0.29936,0.78065 0.0875,0.56177 0.0875,0.56177 -0.0891,0.0891 -0.0891,0.0891 -0.12731,-0.10566 -0.12731,-0.10566 -0.0513,-0.16169 -0.0513,-0.16168 h -0.11418 -0.11418 l -0.26591,0.33573 -0.2659,0.33573 0.089,0.32043 0.089,0.32044 5.1e-4,0.19316 5.1e-4,0.19315 -0.13525,0.0519 -0.13524,0.0519 -0.18386,-0.23059 -0.18387,-0.2306 -0.28208,0.35102 -0.28208,0.35101 0.10133,0.53702 0.10133,0.53702 -0.0562,0.17701 -0.0562,0.177 h -0.11102 -0.11103 l -0.10284,-0.27517 -0.10284,-0.27516 -0.0678,-0.16934 -0.0678,-0.16933 -0.0556,0.16933 -0.0556,0.16934 -0.13589,0.254 -0.13588,0.254 -0.19846,0.40175 -0.19845,0.40175 v 0.15281 0.15282 l -0.082,0.082 -0.082,0.082 0.20014,0.72746 0.20015,0.72746 -0.0734,0.1176 -0.0734,0.1176 -0.15058,-0.0916 -0.15057,-0.0916 -0.0836,-0.18358 -0.0836,-0.18357 h -0.0579 -0.0579 l -0.0582,0.27516 -0.0582,0.27517 -0.16013,0.26388 -0.16013,0.26387 0.0538,0.39229 0.0538,0.39229 h -0.20624 -0.20624 l -0.0804,-0.0798 -0.0804,-0.0798 -0.36797,0.0497 -0.36797,0.0497 0.06,0.26293 0.06,0.26293 0.0117,0.16933 0.0117,0.16934 -0.18609,0.0265 -0.18609,0.0265 -0.22219,-0.35198 -0.22219,-0.35197 -0.0452,0.0452 -0.0452,0.0452 0.14625,0.38296 0.14625,0.38295 -0.05,0.13019 -0.05,0.13019 h -0.13442 -0.13441 l -0.16854,-0.381 -0.16853,-0.381 -0.10187,0.003 -0.10187,0.003 -0.23523,0.19254 -0.23523,0.19255 0.12939,0.30969 0.1294,0.30969 v 0.20533 0.20532 l -0.12389,0.0475 -0.12388,0.0475 -0.17245,-0.21923 -0.17252,-0.21924 v -0.11558 -0.11558 h -0.0568 -0.0568 l -0.15483,0.14012 -0.15483,0.14012 3.9e-4,0.0927 3.9e-4,0.0927 0.20926,0.508 0.20927,0.508 0.002,0.1905 0.002,0.1905 h -0.15052 -0.15051 l -0.15382,-0.17965 -0.15382,-0.17965 -0.10572,-0.30537 -0.10572,-0.30536 -0.22495,0.35633 -0.22494,0.35633 v 0.10877 0.10877 l 0.16095,0.3003 0.16095,0.3003 0.091,0.32969 0.091,0.3297 -0.092,0.0569 -0.092,0.0569 -0.16335,-0.0427 -0.16335,-0.0427 -0.11173,-0.22207 -0.11173,-0.22207 -0.0558,-0.23283 -0.0558,-0.23284 h -0.0732 -0.0732 l -0.0481,0.18383 -0.0481,0.18384 0.2922,0.63242 0.2922,0.63243 v 0.15741 0.15741 h -0.21094 -0.21095 l -0.2628,-0.46567 -0.26281,-0.46567 h -0.10949 -0.1095 l -0.0584,0.3115 -0.0584,0.31149 0.30031,0.59867 0.3003,0.59868 0.0799,0.21873 0.0799,0.21873 -0.0687,0.11111 -0.0687,0.1111 -0.13317,-0.0511 -0.13317,-0.0511 -0.25477,-0.40574 -0.25477,-0.40573 -0.002,-0.10584 -0.002,-0.10583 h -0.0847 -0.0847 v 0.20651 0.2065 l 0.39931,0.85183 0.39931,0.85183 z m 6.92507,-10.414 h -0.11428 l -0.13674,-0.20869 -0.13674,-0.20869 v -0.33472 -0.33472 l 0.0514,-0.13393 0.0514,-0.13392 h 0.11294 0.11295 l 0.057,0.0922 0.057,0.0922 0.1132,0.42912 0.1132,0.42913 -0.0835,0.15601 -0.0835,0.15602 z m 3.83667,-6.45315 -0.13591,0.0262 -0.14894,-0.22731 -0.14894,-0.22731 0.0425,-0.3765599 0.0424,-0.37657 0.0828,-0.0827 0.0827,-0.0827 0.13849,0.13849 0.13849,0.13849 0.0141,0.37495 0.0141,0.3749499 0.007,0.14701 0.007,0.14701 -0.13591,0.0262 z m -9.67495,16.13629 0.24352,-0.0621 0.15503,0.0107 0.15502,0.0107 0.1943,-0.43975 0.19429,-0.43975 0.0562,-0.127 0.0562,-0.127 0.10251,-0.17267 0.10251,-0.17266 0.33867,-0.41933 0.33867,-0.41933 0.46566,-0.47581 0.46567,-0.47582 0.23211,-0.14795 0.2321,-0.14796 -0.0508,-0.0823 -0.0508,-0.0823 -0.21731,0.0545 -0.2173,0.0545 -0.42962,0.27925 -0.42963,0.27924 -0.26962,0.15372 -0.26961,0.15372 -0.14172,-0.11762 -0.14171,-0.11761 -0.11711,0.16016 -0.11711,0.16016 -0.39323,0.76136 -0.39323,0.76137 -0.12249,0.42995 -0.12249,0.42994 -0.046,0.1948 -0.046,0.19479 z m 2.24324,0.005 0.0746,-0.0461 v -0.12154 -0.12154 l 0.51247,-0.4999 0.51246,-0.4999 0.54967,-0.26256 0.54967,-0.26256 h 0.10626 0.10627 l 0.0804,-0.0716 0.0804,-0.0716 0.74586,-0.15191 0.74587,-0.15192 1.36309,0.0435 1.3631,0.0435 0.89671,-0.07 0.89671,-0.07 0.381,-0.15419 0.381,-0.15419 0.26036,-0.14065 0.26036,-0.14065 0.30567,-0.33834 0.30568,-0.33834 0.5917,-0.89445 0.5917,-0.89444 0.16678,-0.21203 0.16678,-0.21203 h 0.0894 0.0894 l 0.0677,-0.11008 0.0677,-0.11008 0.254,-0.17071 0.254,-0.17071 0.67733,-0.26168 0.67734,-0.26168 0.381,-0.10749 0.381,-0.10748 0.0529,0.0114 0.0529,0.0114 0.6211,-0.23856 0.6211,-0.23856 0.59856,-0.54108 0.59856,-0.54107 0.3361,-0.49037 0.336105,-0.49038 0.2894,-0.48329 0.28939,-0.48329 0.0704,-0.0282 0.0704,-0.0282 v -0.0783 -0.0783 l -0.14817,0.084 -0.14817,0.084 -0.2962,0.0702 -0.2962,0.0702 -0.0253,0.16398 -0.0253,0.16399 -0.133625,0.31251 -0.13362,0.31252 -0.12403,0.0476 -0.12403,0.0476 -0.0737,-0.0456 -0.0738,-0.0456 -0.0549,-0.29253 -0.0549,-0.29253 -0.2659,0.18193 -0.2659,0.18194 -0.26129,0.24372 -0.26129,0.24373 -0.24405,0.54717 -0.24405,0.54718 h -0.15083 -0.15082 v -0.13277 -0.13277 l -0.23284,0.164 -0.23283,0.16399 -0.21167,0.0624 -0.21166,0.0624 -0.5716,0.28736 -0.57161,0.28736 h -0.16386 -0.16387 l -0.0265,0.27516 -0.0265,0.27517 h -0.16178 -0.16178 l -0.0975,-0.28966 -0.0975,-0.28967 -0.16402,-0.0642 -0.16403,-0.0642 -0.0613,-0.006 -0.0613,-0.006 -0.12918,0.2498 -0.12917,0.24979 v 0.29017 0.29017 l -0.13616,0.11301 -0.13616,0.113 -0.11784,-0.16115 -0.11784,-0.16115 v -0.20683 -0.20683 l 0.10006,-0.33398 0.10006,-0.33398 -0.11116,-0.0687 -0.11117,-0.0687 -0.41223,0.17132 -0.41223,0.17131 v 0.11572 0.11571 h 0.0736 0.0736 l 0.0471,0.29019 0.0471,0.29019 -0.0459,0.17547 -0.0459,0.17548 h -0.16156 -0.16155 l -0.0884,-0.23261 -0.0884,-0.23261 0.0365,-0.19072 0.0365,-0.19073 h -0.0519 -0.0519 l -0.40801,0.37998 -0.40802,0.37998 0.0654,0.19152 0.0654,0.19152 0.0104,0.254 0.0104,0.254 -0.0981,0.254 -0.0981,0.254 -0.0119,0.33242 -0.0119,0.33241 -0.0873,0.0873 -0.0873,0.0873 -0.13728,-0.13728 -0.13728,-0.13728 0.009,-0.36709 0.009,-0.36709 0.0866,-0.29577 0.0866,-0.29578 v -0.0691 -0.069 l -0.0859,0.0531 -0.0859,0.0531 -0.16938,0.33201 -0.16938,0.33201 -0.29508,0.26852 -0.29507,0.26851 -0.001,0.4309 -0.001,0.43089 -0.0511,0.1905 -0.0511,0.1905 h -0.14958 -0.14958 l -0.0511,-0.1905 -0.0511,-0.1905 -0.001,-0.30234 -0.001,-0.30235 -0.503,-0.0139 -0.503,-0.0139 -0.0581,0.58996 -0.0581,0.58996 -0.1162,0.14958 -0.11618,0.14958 -0.13459,-0.16933 -0.1346,-0.16933 0.0494,-0.55921 0.0494,-0.55921 -0.433,0.0856 -0.43301,0.0856 0.0424,0.38893 0.0424,0.38892 -0.0393,0.10584 -0.0393,0.10583 h -0.12131 -0.12132 l -0.11669,-0.27517 -0.11669,-0.27516 -0.0896,-0.22807 -0.0896,-0.22807 -0.23682,0.0279 -0.23682,0.0279 -0.10583,0.01 -0.10584,0.01 v 0.59266 0.59267 h -0.16933 -0.16933 l -0.002,-0.0212 -0.002,-0.0212 -0.15103,-0.45521 -0.15104,-0.45521 -0.23367,0.21656 -0.23367,0.21656 0.0908,0.16958 0.0907,0.16958 v 0.38657 0.38657 h -0.16635 -0.16636 l -0.0801,-0.14973 -0.0801,-0.14973 -0.0593,-0.31594 -0.0593,-0.31594 h -0.0649 -0.0649 l -0.2855,0.12559 -0.28551,0.1256 -0.14339,0.11308 -0.14339,0.11308 0.12803,0.43675 0.12803,0.43675 -0.027,0.23402 -0.027,0.23402 -0.14371,0.0272 -0.14372,0.0272 -0.17378,-0.34064 -0.17379,-0.34065 v -0.12848 -0.12848 l -0.32501,0.35794 -0.325,0.35794 0.0387,0.82429 0.0387,0.82429 0.0746,-0.0461 z m 15.44933,-4.10012 h 0.0293 l -0.0487,-0.127 -0.0487,-0.127 h -0.086 -0.086 l 0.1054,0.127 0.1054,0.127 z m -14.69738,-0.42745 0.0423,-0.002 0.16934,-0.14923 0.16933,-0.14922 0.11361,-0.19793 0.11361,-0.19793 -0.26178,0.1864 -0.26177,0.1864 v 0.0789 0.0789 l -0.1905,0.001 -0.1905,10e-4 0.127,0.0821 0.127,0.0821 0.0423,-0.002 z m 4.86833,-0.16522 h 0.0423 v -0.0423 -0.0423 h -0.0423 -0.0423 v 0.0423 0.0423 z m -12.21316,-0.17256 0.0635,0.003 v -0.127 -0.127 h -0.17267 -0.17268 l 0.10918,0.12377 0.10917,0.12378 0.0635,0.003 z m 0.78316,0.003 h 0.0423 v -0.0423 -0.0423 h -0.0423 -0.0423 v 0.0423 0.0423 z m 8.93536,-0.086 0.12398,-0.001 0.11487,-0.0728 0.11487,-0.0728 -0.10183,-0.0629 -0.10183,-0.0629 -0.13702,0.13702 -0.13702,0.13702 0.12398,-0.001 z m -9.00591,-0.19626 0.0564,-0.0564 -0.0564,-0.0564 -0.0565,-0.0564 v 0.11289 0.11289 z m 7.366,-0.0847 0.0564,-0.0565 -0.0564,-0.0564 -0.0564,-0.0564 v 0.11289 0.11289 z m 12.0059,-0.22578 h 0.045 v -0.2286 -0.2286 l -0.0959,0.0959 -0.0959,0.0959 0.0509,0.13269 0.0509,0.13269 z m -9.05668,-0.93133 h 0.0423 v -0.0423 -0.0423 h -0.0423 -0.0423 v 0.0423 0.0423 z m 0.97367,-0.254 h 0.0847 v -0.0847 -0.0847 h -0.0847 -0.0847 v 0.0847 0.0847 z m -10.11767,-0.508 h 0.0423 v -0.0423 -0.0423 h -0.0423 -0.0423 v 0.0423 0.0423 z m 8.95216,-0.0847 h 0.0396 l 0.27048,-0.0943 0.27049,-0.0943 -0.0305,-0.0539 -0.0305,-0.0539 -0.10861,-0.27517 -0.1086,-0.27517 h -0.0668 -0.0668 l -0.044,0.23284 -0.044,0.23283 -0.0601,0.1905 -0.0601,0.1905 z m 8.06084,-0.84667 h 0.0373 l 0.0523,-0.0847 0.0523,-0.0847 h -0.0897 -0.0897 v 0.0847 0.0847 z m -5.29937,-1.31374 0.0438,-0.0437 -0.10019,-0.10019 -0.10019,-0.10018 v 0.0875 0.0875 l 0.0564,0.0564 0.0564,0.0564 z m 4.4577,-12.6562599 h 0.0423 v -0.0423 -0.0423 h -0.0423 -0.0423 v 0.0423 0.0423 z M 81.390185,68.130367 h -0.0656 l -0.0564,-0.0564 -0.0564,-0.0564 v -0.15522 -0.15522 h 0.0743 0.0743 l 0.10232,0.12329 0.10232,0.12329 -0.0546,0.0884 -0.0546,0.0884 z m 1.84087,-0.0466 -0.0297,0.0268 -0.17872,-0.0677 -0.17872,-0.0677 -0.0561,-0.14621 -0.0561,-0.1462 0.0387,-0.0387 0.0387,-0.0387 0.0903,0.0558 0.0903,0.0558 v 0.127 0.127 l 0.0788,-0.0487 0.0788,-0.0487 0.0567,0.0917 0.0567,0.0917 z m 6.69705,-0.007 -0.038,0.0366 -0.0863,-0.0973 -0.0863,-0.0973 -0.003,-0.21167 -0.003,-0.21166 -0.0654,-0.27517 -0.0654,-0.27517 h 0.13373 0.13373 v 0.132 0.132 l 0.0751,-0.0464 0.0751,-0.0464 0.10155,0.12236 0.10155,0.12236 -0.054,0.0874 -0.054,0.0874 0.15257,-0.0538 0.15256,-0.0538 -0.10583,0.11406 -0.10584,0.11406 v 0.16651 0.16651 l -0.0555,-0.0555 -0.0555,-0.0555 -0.0656,-0.31844 -0.0656,-0.31843 0.011,0.39941 0.011,0.39941 z m -13.56378,-0.0661 -0.0423,0.0423 -0.0548,-0.14276 -0.0548,-0.14277 0.0423,-0.0423 0.0423,-0.0423 0.0548,0.14277 0.0548,0.14277 -0.0423,0.0423 z m 0.24719,-0.16253 -0.0564,0.0565 v -0.11289 -0.11289 l 0.0564,0.0565 0.0564,0.0564 -0.0564,0.0564 z m 12.68589,-0.0564 h -0.0423 v -0.0423 -0.0423 h 0.0423 0.0423 v 0.0423 0.0423 z m -6.96883,-0.0914 -0.0585,-0.007 -0.11642,-0.0462 -0.11641,-0.0462 -0.15875,-0.15875 -0.15875,-0.15875 h -0.15171 -0.1517 l -0.3563,-0.36304 -0.35629,-0.36303 v -0.10263 -0.10263 h 0.16433 0.16434 l 0.0523,0.0847 0.0523,0.0847 0.22784,0.002 0.22784,0.002 0.24111,0.24581 0.24111,0.24582 0.10091,-0.0387 0.10091,-0.0387 0.10778,0.29807 0.10778,0.29806 -0.0526,0.0852 -0.0526,0.0852 -0.0585,-0.007 z m 4.48429,0.007 h -0.0715 l -0.14013,-0.15483 -0.14012,-0.15484 v -0.0493 -0.0493 l 0.10583,0.0161 0.10584,0.0161 0.10583,0.0661 0.10583,0.0661 v 0.12201 0.122 z m 3.58521,0 h -0.0423 v -0.0423 -0.0423 h 0.0423 0.0423 v 0.0423 0.0423 z m -1.56633,-0.0847 h -0.0847 v -0.0847 -0.0847 h -0.11224 -0.11224 l -0.19885,-0.21167 -0.19885,-0.21166 h 0.10979 0.10979 l -0.10701,-0.12894 -0.10701,-0.12894 0.16015,0.0554 0.16014,0.0554 0.23283,0.25439 0.23283,0.25439 v 0.11553 0.11552 z m 0.381,0 h -0.0423 v -0.0423 -0.0423 h 0.0423 0.0423 v 0.0423 0.0423 z m -12.954,-0.0847 h -0.0423 v -0.0423 -0.0423 h 0.0423 0.0423 v 0.0423 0.0423 z m 8.05215,-0.27693 -0.0512,0.0512 0.007,-0.16228 0.007,-0.16228 0.0445,0.11113 0.0445,0.11112 -0.0511,0.0512 z m 6.00251,0.0229 h -0.0423 v -0.0423 -0.0423 h 0.0423 0.0423 v 0.0423 0.0423 z m 2.07944,0 h -0.069 l -0.0943,-0.11362 -0.0943,-0.11362 0.0557,-0.0557 0.0557,-0.0557 h 0.0949 0.0949 l 0.0127,0.16933 0.0128,0.16933 z m -6.29866,-0.11289 -0.0564,0.0564 v -0.11289 -0.11289 l 0.0564,0.0564 0.0564,0.0564 z m 5.62029,-0.22577 h -0.0706 l -0.0514,-0.13393 -0.0514,-0.13392 v -0.0778 -0.0777 h 0.11794 0.11794 l 0.0517,0.13464 0.0517,0.13464 -0.0476,0.077 -0.0476,0.077 z m -0.5544,-0.254 h -0.13773 l 0.0265,-0.27517 0.0265,-0.27517 h 0.0847 0.0847 l 0.0265,0.27517 0.0265,0.27517 z m -5.969,-0.16934 h -0.0847 l 0.001,-0.1905 10e-4,-0.1905 0.0821,0.127 0.0821,0.127 10e-4,0.0635 0.001,0.0635 h -0.0847 z m 3.91583,-0.006 -0.0635,-0.006 -0.21166,-0.0978 -0.21167,-0.0978 -0.0622,-0.087 -0.0622,-0.087 -0.001,-0.11289 -0.001,-0.11289 0.10584,0.0388 0.10583,0.0388 -0.0212,0.0952 -0.0212,0.0952 h 0.0847 0.0847 v -0.0847 -0.0847 h 0.11713 0.11712 l 0.0511,0.1905 0.051,0.1905 0.001,0.0635 10e-4,0.0635 -0.0635,-0.006 z m 3.78884,-0.24827 h -0.0847 l 0.001,-0.1905 0.001,-0.1905 0.0821,0.127 0.0821,0.127 0.001,0.0635 0.001,0.0635 h -0.0847 z m -4.61434,-0.0847 h -0.0423 v -0.0423 -0.0423 h 0.0423 0.0423 v 0.0423 0.0423 z m -0.49388,-0.11289 -0.0564,0.0564 v -0.11289 -0.11289 l 0.0564,0.0565 0.0564,0.0564 z m -0.22578,-0.14111 h -0.11289 l 0.0564,-0.0565 0.0564,-0.0564 0.0564,0.0564 0.0564,0.0565 z m -0.0991,-1.21069 -0.14143,-0.003 -0.1211,-0.14142 -0.12109,-0.14143 -0.0566,-0.22546 -0.0566,-0.22547 0.0651,-0.0108 0.0651,-0.0108 0.21167,-0.0269 0.21166,-0.0269 0.1905,0.0943 0.1905,0.0944 v 0.18424 0.18424 l -0.14816,0.12887 -0.14817,0.12888 -0.14143,-0.003 z m -0.36657,-1.15998 h -0.0423 v -0.0423 -0.0423 h 0.0423 0.0423 v 0.0423 0.0423 z m -9.7677,-1.10133 -0.0536,-6.6e-4 -0.10336,-0.22264 -0.10336,-0.22264 0.0532,0.0532 0.0532,0.0532 0.11567,-0.096 0.11567,-0.096 0.0328,0.0332 0.0328,0.0332 -0.0447,0.23283 -0.0447,0.23283 -0.0536,-6.7e-4 z m -0.9769,-1.52334 h -0.10684 l -0.0565,-0.0564 -0.0564,-0.0564 v -0.22952 -0.22952 l 0.11362,-0.0943 0.11362,-0.0943 0.0557,0.0557 0.0557,0.0557 v -0.10914 -0.10915 l 0.127,0.1054 0.127,0.1054 v 0.19526 0.19525 l -0.13304,0.13305 -0.13305,0.13304 z m -1.13675,-0.6322 -0.28202,0.003 -0.0778,-0.14539 -0.0778,-0.14541 v -0.24263 -0.24263 l 0.1016,-0.1016 0.1016,-0.1016 h 0.11361 0.1136 l 0.17148,0.15975 0.17147,0.15975 -0.0268,0.32708 -0.0268,0.32708 -0.28202,0.003 z m 21.53335,-6.11586 -0.16933,0.0424 -0.27409,-0.0783 -0.2741,-0.0783 -0.0566,-0.22561 -0.0566,-0.22562 0.16139,-0.30041 0.16138,-0.30041 0.15486,-0.0297 0.15487,-0.0297 0.19045,0.0478 0.19046,0.0478 0.0992,0.21768 0.0992,0.21768 v 0.1915 0.19151 l -0.10583,0.13463 -0.10584,0.13463 z m 2.72527,-0.7026 h -0.29154 l -0.0945,-0.11391 -0.0945,-0.1139 -0.0542,-0.27076 -0.0541,-0.27076 0.19541,-0.208 0.1954,-0.20801 0.21808,10e-4 0.21807,10e-4 0.0864,0.0622 0.0864,0.0622 0.10411,0.23682 0.104115,0.23682 v 0.2047 0.2047 l -0.163765,0.0876 -0.16377,0.0876 h -0.29153 z m -21.25316,-9.40774 -0.0988,-0.01 -0.29633,-0.0656 -0.29633,-0.0656 -0.46567,-0.095 -0.46567,-0.0951 -0.381,-0.11667 -0.381,-0.11666 -0.47846,-0.14153 -0.47845,-0.14153 -0.1485,-0.16409 -0.1485,-0.16409 h -0.18542 -0.18542 l -0.14217,-0.15708 -0.14216,-0.15709 0.0534,-0.13925 0.0534,-0.13924 h 0.20603 0.20604 l 0.2322,0.17167 0.23221,0.17168 0.33587,0.0514 0.33586,0.0515 0.127,0.10802 0.127,0.10802 0.42334,0.0603 0.42333,0.0603 0.28551,0.11658 0.2855,0.11658 h 0.17927 0.17927 l 0.35616,0.14731 0.35616,0.14731 0.0331,0.12785 0.0331,0.12786 -0.0356,0.10583 -0.0356,0.10584 z m -4.81952,-2.89672 -0.0367,0.15479 -0.0659,-0.15182 -0.0659,-0.15182 0.0528,-0.0528 0.0528,-0.0528 0.0498,0.0498 0.0498,0.0498 z m -0.65559,0.0278 h -0.15122 l -0.0514,-0.13392 -0.0514,-0.13393 v -0.20474 -0.20474 l 0.10583,0.003 0.10584,0.003 0.14773,0.2032 0.14774,0.2032 -0.051,0.13281 -0.051,0.13281 z"
       id="path324" /></g></svg>
