<?xml version="1.0" encoding="UTF-8" standalone="no"?>
<!-- Created with Inkscape (http://www.inkscape.org/) -->

<svg
   width="41.328598mm"
   height="79.717369mm"
   viewBox="0 0 41.328598 79.717369"
   version="1.1"
   id="svg5"
   xml:space="preserve"
   sodipodi:docname="planta-D.svg"
   inkscape:version="1.2 (dc2aedaf03, 2022-05-15)"
   xmlns:inkscape="http://www.inkscape.org/namespaces/inkscape"
   xmlns:sodipodi="http://sodipodi.sourceforge.net/DTD/sodipodi-0.dtd"
   xmlns="http://www.w3.org/2000/svg"
   xmlns:svg="http://www.w3.org/2000/svg"><sodipodi:namedview
     id="namedview7"
     pagecolor="#505050"
     bordercolor="#eeeeee"
     borderopacity="1"
     inkscape:showpageshadow="0"
     inkscape:pageopacity="0"
     inkscape:pagecheckerboard="0"
     inkscape:deskcolor="#505050"
     inkscape:document-units="mm"
     showgrid="false"
     inkscape:zoom="0.7832881"
     inkscape:cx="77.876837"
     inkscape:cy="151.28533"
     inkscape:window-width="1440"
     inkscape:window-height="836"
     inkscape:window-x="0"
     inkscape:window-y="27"
     inkscape:window-maximized="1"
     inkscape:current-layer="svg5" /><defs
     id="defs2" /><g
     id="layer1"
     transform="translate(-159.80852,-7.676368)"><path
       style="fill:#ffffff;stroke-width:0.0846667"
       d="m 197.6447,87.342238 -0.0514,0.0515 -0.0939,-0.11313 -0.0939,-0.11313 -0.0209,-0.58742 -0.0209,-0.58741 0.0235,-2.98739 0.0235,-2.9874 0.058,-0.52517 0.0581,-0.52518 0.14276,-0.0274 0.14276,-0.0274 0.0869,0.31472 0.0869,0.31472 -0.0576,0.0926 -0.0576,0.0926 -0.0651,2.032 -0.0651,2.032 -0.0224,1.74975 -0.0223,1.74975 z m 1.87004,-0.12197 h -0.0729 l -0.0646,-0.10456 -0.0646,-0.10456 0.0234,-2.0756 0.0235,-2.07561 0.0791,-0.081 0.0791,-0.081 0.13209,0.13209 0.13209,0.13209 0.007,1.04962 0.006,1.04961 -0.0594,0.84667 -0.0594,0.84667 -0.0441,0.23283 -0.0441,0.23283 h -0.0729 z m -4.38763,-0.42333 h -0.0947 l -0.0558,-0.22234 -0.0558,-0.22234 0.0475,-1.02649 0.0475,-1.0265 0.0871,-0.59266 0.0871,-0.59267 0.14033,-1.05833 0.14032,-1.05834 0.0721,-2.032 0.0721,-2.032 0.0537,-0.40207 0.0537,-0.40207 0.0767,-0.0474 0.0767,-0.0474 v -0.29399 -0.294 l 0.13924,-0.0534 0.13925,-0.0534 0.11475,0.15694 0.11476,0.15694 v 0.23485 0.23486 l -0.11655,0.3628 -0.11654,0.36279 -0.0953,0.84666 -0.0953,0.84667 -0.0388,0.508 -0.0388,0.508 -0.087,1.05833 -0.087,1.05834 -0.13372,0.97366 -0.13372,0.97367 -0.0364,0.21167 -0.0364,0.21166 -0.0534,0.635 -0.0534,0.635 -0.0753,0.19973 -0.0753,0.19973 0.0554,0.5411 0.0554,0.54111 z m -1.57792,-4.572 h -0.19682 l -0.0896,-0.25688 -0.0896,-0.25688 0.0467,-0.56661 0.0467,-0.5666 0.10848,-0.21368 0.10849,-0.21368 0.0579,-0.508 0.0579,-0.508 0.15657,-0.67734 0.15657,-0.67733 0.0989,-0.55667 0.0989,-0.55666 0.0403,-2.36434 0.0403,-2.36433 -0.009,-1.48167 -0.009,-1.48166 -0.0792,-0.93134 -0.0792,-0.93133 -7.7e-4,-0.23549 -7.6e-4,-0.23549 -0.13405,-0.0514 -0.13405,-0.0514 -0.17763,0.17763 -0.17762,0.17762 0.22701,0.4171 0.22701,0.41709 v 0.33145 0.33144 l -0.1016,0.1016 -0.1016,0.1016 h -0.13928 -0.13928 l -0.14708,-0.16253 -0.14709,-0.16253 0.025,-0.34625 0.025,-0.34625 -0.17967,-0.17967 -0.17966,-0.17966 -0.21196,0.0532 -0.21196,0.0532 -0.23997,0.25425 -0.23997,0.25425 h -0.27544 -0.27544 l 7.6e-4,0.10583 7.6e-4,0.10583 0.21193,0.83192 0.21193,0.83192 -0.0484,0.0783 -0.0484,0.0782 h -0.16217 -0.16216 l -0.13646,-0.26389 -0.13646,-0.26389 0.0412,-0.1576 0.0412,-0.15761 -0.20833,-0.65601 -0.20832,-0.65602 -0.0392,-0.0392 -0.0392,-0.0392 -0.12986,0.18539 -0.12985,0.18539 h -0.17903 -0.17903 l -0.13367,-0.1146 -0.13367,-0.1146 -0.508,-0.1002 -0.508,-0.1002 -0.66578,-0.0296 -0.66579,-0.0296 -0.20467,-0.20468 -0.20468,-0.20467 -0.0486,-0.29976 -0.0486,-0.29975 0.27073,-0.56133 0.27072,-0.56134 0.50455,-0.14156 0.50454,-0.14157 0.56717,-0.60779 0.56716,-0.60779 0.3175,-0.23656 0.3175,-0.23655 v -0.33266 -0.33266 l 0.21167,-0.19616 0.21167,-0.19617 -4.3e-4,-0.15962 -4.2e-4,-0.15963 -0.79963,-0.40686 -0.79963,-0.40685 -0.32887,0.0985 -0.32887,0.0985 v 0.11312 0.11312 l 0.0494,-0.009 0.0494,-0.009 0.254,0.0983 0.254,0.0983 0.12264,0.07 0.12264,0.07 0.0625,0.23352 0.0625,0.23352 -0.046,0.11983 -0.046,0.11984 -0.0968,0.002 -0.0966,0.002 -0.21167,0.16556 -0.21166,0.16557 -0.27727,0.002 -0.27726,0.002 -0.0826,-0.21718 -0.0826,-0.21718 v -0.28582 -0.28583 l -0.0847,-0.0523 -0.0847,-0.0523 v -0.29554 -0.29554 l 0.12957,-0.25056 0.12957,-0.25056 -0.0881,-0.16467 -0.0881,-0.16467 -0.69761,-0.54207 -0.6976,-0.54205 -0.19776,-0.1037 -0.19775,-0.1037 -0.0468,0.0468 -0.0468,0.0468 0.20523,0.078 0.20522,0.078 0.16635,0.32651 0.16635,0.32651 0.0258,0.0399 0.0258,0.0399 0.0695,-0.11244 0.0695,-0.11244 0.17283,0.0549 0.17283,0.0548 0.0917,0.26318 0.0917,0.26317 v 0.39452 0.39452 l -0.10583,0.1425 -0.10584,0.1425 -0.33866,0.17254 -0.33867,0.17255 -0.14235,-0.17406 -0.14235,-0.17406 -0.0488,-0.4423 -0.0488,-0.44231 0.014,-0.127 0.014,-0.127 -0.0133,-0.14817 -0.0133,-0.14816 h -0.25832 -0.25832 l -0.12268,-0.29362 -0.12268,-0.29361 v -0.33659 -0.33658 l -0.18631,-0.1305 -0.18631,-0.13049 -0.0628,0.10161 -0.0628,0.10161 0.0479,0.51303 0.0479,0.51304 -0.11629,0.0956 -0.1163,0.0956 -0.21167,0.0293 -0.21166,0.0293 -0.0836,0.1905 -0.0836,0.1905 h -0.10213 -0.10212 l -0.1318,-0.18817 -0.1318,-0.18817 v -0.26131 -0.26131 l -0.12431,-0.16435 -0.12431,-0.16435 -0.003,-0.19322 -0.003,-0.19322 -0.1272,-0.30445 -0.12721,-0.30445 0.18253,-0.30667 0.18252,-0.30666 0.12825,-0.10441 0.12825,-0.10441 -0.13926,-0.44592 -0.13927,-0.44593 -0.0476,-0.31453 -0.0476,-0.31453 -0.0779,-0.0482 -0.0779,-0.0482 -0.17277,0.1079 -0.17278,0.1079 v 0.26442 0.26443 l -0.22257,0.22256 -0.22257,0.22257 0.0873,0.10648 0.0874,0.10648 0.0176,0.21166 0.0176,0.21167 -0.009,0.13911 -0.009,0.13911 -0.1319,0.0506 -0.13189,0.0506 -0.32412,-0.16536 -0.32412,-0.16535 -0.2652,-0.33485 -0.26521,-0.33485 -0.21011,-0.4751 -0.21011,-0.4751 v -0.1538 -0.15379 l 0.16048,-0.14524 0.16049,-0.14524 0.0549,-0.36614 0.0549,-0.36613 0.15252,-0.13802 0.15251,-0.13803 0.3306,-0.0306 0.33059,-0.0306 0.32677,-0.064 0.32677,-0.064 0.0741,0.117 0.0741,0.11699 10e-4,0.27735 0.001,0.27734 0.254,-0.13135 0.254,-0.13135 v -0.16014 -0.16014 l 0.17146,-0.4 0.17146,-0.40001 -0.0483,-0.0483 -0.0483,-0.0483 -0.16433,0.10263 -0.16434,0.10263 h -0.12897 -0.12897 l -0.19202,-0.40217 -0.19202,-0.40217 -0.17935,0.025 -0.17935,0.025 -0.29493,-0.36367 -0.29493,-0.36366 -0.17107,-0.33984 -0.17106,-0.33984 -0.0174,-0.25283 -0.0174,-0.25282 0.009,-0.10584 0.009,-0.10583 h 0.58767 0.58767 l 0.0517,-0.0837 0.0517,-0.0837 0.2125,0.13924 0.21251,0.13923 0.20229,0.39921 0.20229,0.3992 0.18604,0.0486 0.18605,0.0487 0.22755,-0.0455 0.22755,-0.0455 0.1333,0.1333 0.1333,0.1333 0.0397,0.10735 0.0397,0.10734 0.15832,-0.15832 0.15832,-0.15832 -0.10158,-0.0378 -0.10159,-0.0378 -0.21591,-0.16984 -0.21592,-0.16984 -0.002,-0.35368 -0.002,-0.35369 -0.27333,-0.127 -0.27334,-0.127 -0.0255,-0.34974 -0.0255,-0.34973 -0.25474,-0.22698 -0.25475,-0.22698 0.0263,-0.21908 0.0263,-0.21908 0.14817,-0.072 0.14816,-0.072 0.14816,-0.0713 0.14817,-0.0713 0.11045,-0.22502 0.11046,-0.22503 h 0.12523 0.12524 l 0.17484,0.29634 0.17484,0.29633 h 0.15039 0.15038 l 0.26459,0.0529 0.26458,0.0529 v -0.1669 -0.16691 l 0.13585,-0.27233 0.13586,-0.27232 -0.0512,-0.20635 -0.0512,-0.20635 -0.0523,-0.21216 -0.0523,-0.21215 0.10499,-0.12651 0.105,-0.12652 h 0.16734 0.16734 l 0.30164,-0.14314 0.30165,-0.14314 0.13448,0.19467 0.13448,0.19467 0.21167,0.21186 0.21167,0.21186 0.20428,0.0784 0.20429,0.0784 0.0878,-0.0878 0.0878,-0.0878 h 0.0665 0.0665 l 0.21904,0.33099 0.21904,0.33099 0.24772,-0.071 0.24772,-0.071 0.12908,0.12908 0.12908,0.12908 0.12721,0.24598 0.1272,0.24597 0.0613,-0.003 0.0613,-0.003 0.27288,-0.23365 0.27288,-0.23366 -0.27288,-0.15905 -0.27288,-0.15906 -0.14817,-0.16714 -0.14817,-0.16714 v -0.19871 -0.19871 h 0.0847 0.0847 v -0.12966 -0.12965 l -0.12899,-0.0495 -0.129,-0.0495 -0.29434,-0.44344 -0.29433,-0.44344 v -0.22235 -0.22235 l 0.33866,-0.17278 0.33867,-0.17277 v -0.1223 -0.1223 l 0.15614,-0.0836 0.15614,-0.0836 0.62036,0.35575 0.62037,0.35575 0.0913,0.16867 0.0913,0.16866 0.1905,0.24 0.1905,0.24 v 0.28984 0.28983 h 0.0677 0.0677 l 0.1016,-0.1016 0.1016,-0.1016 v -0.49552 -0.49552 l -0.12749,-0.56704 -0.12748,-0.56705 -0.0835,-0.762 -0.0835,-0.762 -0.13089,-1.524 -0.1309,-1.524 -0.0738,-0.254 -0.0738,-0.254 -0.008,0.30339 -0.008,0.30339 -0.0635,0.0631 -0.0635,0.0631 -0.13361,0.47933 -0.13361,0.47932 -0.26364,0.15398 -0.26364,0.15397 -0.17425,-0.17426 -0.17425,-0.17426 v -0.44152 -0.44153 l -0.34713,-0.6803 -0.34713,-0.68031 -0.15346,-0.28187 -0.15346,-0.28186 -0.0457,-0.0457 -0.0457,-0.0457 -0.1376,0.13761 -0.13761,0.13761 0.16677,0.27463 0.16678,0.27464 0.0582,0.27517 0.0582,0.27516 0.0568,6e-4 0.0568,5.9e-4 0.19549,0.2871 0.19548,0.2871 0.14833,0.84645 0.14834,0.84645 -0.0635,0.17176 -0.0635,0.17175 -0.45091,0.3331 -0.4509,0.3331 -0.18405,0.0584 -0.18406,0.0584 -0.0988,-0.18469 -0.0988,-0.18468 0.0532,-0.33282 0.0532,-0.33282 -0.1712,-0.21765 -0.17121,-0.21765 v -0.33518 -0.33517 l -0.164,-0.0429 -0.16401,-0.0429 -0.0972,-0.26668 -0.0972,-0.26669 -0.0787,0.20132 -0.0788,0.20131 0.11976,0.56069 0.11975,0.56068 0.13172,0.25513 0.13172,0.25513 0.18459,0.19814 0.1846,0.19813 0.15203,0.40011 0.15202,0.4001 0.0555,0.5013 0.0555,0.5013 -0.36134,0.27516 -0.36135,0.27517 h -0.1923 -0.19229 l -0.21425,-0.0976 -0.21424,-0.0976 -0.0494,-0.30455 -0.0494,-0.30455 -0.0186,-0.127 -0.0186,-0.127 -0.14068,0.0239 -0.14067,0.0239 -0.0987,-0.18443 -0.0987,-0.18442 0.0465,-0.34744 0.0465,-0.34743 0.0611,-0.20374 0.0611,-0.20374 -0.098,0.0606 -0.098,0.0606 v 0.15291 0.15292 l -0.16933,0.21527 -0.16934,0.21528 v 0.0883 0.0883 l 0.14794,0.0828 0.14794,0.0828 -0.0232,0.79988 -0.0232,0.79989 -0.11912,0.56931 -0.11911,0.56931 -0.0268,0.014 -0.0268,0.014 -0.39484,0.27385 -0.39485,0.27386 h -0.0959 -0.0959 l -0.39608,0.21085 -0.39608,0.21085 -0.11019,-0.1102 -0.1102,-0.11019 -0.01,-0.24882 -0.01,-0.24882 0.11736,-0.28129 0.11737,-0.28129 -0.14126,-0.079 -0.14126,-0.079 -0.0559,-0.25467 -0.0559,-0.25467 0.18291,-0.37784 0.18291,-0.37784 -0.0278,-0.11434 -0.0278,-0.11434 -0.26077,0.0687 -0.26077,0.0687 -0.10761,0.48815 -0.1076,0.48814 -0.0283,0.49794 -0.0283,0.49794 -0.32297,0.67103 -0.32298,0.67103 -0.19528,-0.0363 -0.19528,-0.0363 -0.10478,0.10478 -0.10479,0.10479 -0.25027,-0.0113 -0.25027,-0.0113 -0.0978,-0.062 -0.0978,-0.062 0.0447,0.33305 0.0447,0.33304 -0.16945,0.28081 -0.16946,0.28081 -0.1015,0.3175 -0.1015,0.3175 h -0.18817 -0.18816 l -0.1016,-0.1016 -0.1016,-0.1016 v -0.1778 -0.1778 l 0.0954,-0.0954 0.0954,-0.0954 -0.0496,-0.19761 -0.0496,-0.1976 -0.43438,-0.4436 -0.43438,-0.44359 h -0.0348 -0.0348 v 0.27749 0.2775 l -0.13773,0.19664 -0.13773,0.19663 0.0114,0.52479 0.0114,0.52479 -0.1563,0.46158 -0.15629,0.46158 -0.56051,0.22695 -0.5605,0.22694 -0.27868,0.0271 -0.27868,0.027 -0.0256,-0.35021 -0.0256,-0.35021 0.30073,-0.18586 0.30073,-0.18586 v -0.14441 -0.14441 l -0.16767,-0.0126 -0.16766,-0.0126 -0.0475,0.0768 -0.0475,0.0768 -0.42707,0.0567 -0.42706,0.0566 -0.0477,0.1363 -0.0477,0.1363 -0.16819,0.18701 -0.16819,0.187 -0.59444,0.18398 -0.59445,0.18398 -0.75185,-0.0568 -0.75186,-0.0568 -0.21407,-0.0814 -0.21407,-0.0814 h -0.40749 -0.40748 l -0.32784,0.12966 -0.32784,0.12966 -0.254,0.13876 -0.254,0.13877 -0.47354,0.43007 -0.47354,0.43008 -0.31275,0.16318 -0.31275,0.16319 -0.14504,-0.14601 -0.14504,-0.14601 0.0176,-0.79926 0.0176,-0.79926 0.0946,-0.17682 0.0946,-0.17683 0.17146,-0.17146 0.17146,-0.17146 0.15981,-0.36128 0.15981,-0.36128 0.12799,-0.10621 0.12798,-0.10622 v -0.0665 -0.0665 l -0.36907,-0.2335 -0.36907,-0.23349 -0.10283,-0.28435 -0.10282,-0.28435 -0.24247,-0.17927 -0.24247,-0.17927 -0.10024,-0.24199 -0.10024,-0.242 -0.13789,-0.0108 -0.1379,-0.0108 -0.21167,-0.0324 -0.21166,-0.0324 -0.25296,-0.004 -0.25296,-0.004 -0.1408,-0.12743 -0.1408,-0.12742 -0.0557,0.0902 -0.0557,0.0902 h -0.1582 -0.15819 l -0.17548,-0.22309 -0.17547,-0.22308 v -0.32508 -0.32507 l 0.25823,-0.13354 0.25823,-0.13353 0.15225,0.0483 0.15225,0.0483 0.0975,0.21402 0.0975,0.21403 v 0.1147 0.1147 l 0.48684,0.0535 0.48683,0.0535 0.46567,0.0367 0.46566,0.0367 0.50107,0.17245 0.50106,0.17244 0.2821,-0.10201 0.28211,-0.10201 -4e-5,-0.0465 -4e-5,-0.0465 -0.9419,-0.88381 -0.94191,-0.8838 -0.25065,-0.40736 -0.25065,-0.40737 h -0.0813 -0.0812 l -0.20782,-0.20781 -0.20782,-0.20782 v -0.28706 -0.28706 l 0.1719,-0.15557 0.17189,-0.15556 0.23027,0.0806 0.23027,0.0807 0.0716,0.33696 0.0716,0.33696 0.0325,0.1773 0.0325,0.1773 0.62739,0.66937 0.62739,0.66936 0.45381,0.002 0.45381,0.002 0.17455,0.0621 0.17455,0.0621 0.18528,-0.32967 0.18529,-0.32967 v -0.26169 -0.26168 l 0.21022,-0.13775 0.21022,-0.13774 0.41647,0.0999 0.41647,0.0999 0.87614,0.006 0.87614,0.006 0.27822,0.11195 0.27821,0.11196 0.131,0.32054 0.131,0.32055 0.18345,0.4021 0.18346,0.40209 0.14847,-0.0344 0.14847,-0.0344 0.36654,0.35199 0.36653,0.35198 0.70839,0.254 0.70838,0.254 0.24469,0.20441 0.24468,0.2044 0.0758,-0.11974 0.0758,-0.11973 0.001,-0.15076 10e-4,-0.15075 -0.29084,-0.25536 -0.29084,-0.25536 -0.13742,-0.41374 -0.13742,-0.41375 -0.25194,-0.0553 -0.25194,-0.0553 -0.128,-0.19535 -0.128,-0.19535 -0.0507,-0.32646 -0.0507,-0.32645 -0.24682,-0.49444 -0.24681,-0.49444 0.0552,-0.25147 0.0552,-0.25147 0.21131,-0.0804 0.21131,-0.0803 0.56402,0.25906 0.56401,0.25906 0.16933,0.0964 0.16933,0.0964 0.30225,0.1479 0.30225,0.1479 0.2226,0.32289 0.2226,0.3229 0.18884,0.508 0.18884,0.508 0.0266,0.0348 0.0266,0.0348 0.14869,-0.13057 0.14868,-0.13058 0.19818,-0.0605 0.19817,-0.0605 -0.29797,-0.20247 -0.29797,-0.20248 -0.0571,-0.17974 -0.0571,-0.17975 -0.27723,-0.30814 -0.27724,-0.30814 -0.22208,-0.55697 -0.22209,-0.55698 v -0.17352 -0.17351 l 0.12384,-0.29641 0.12385,-0.2964 0.14293,-0.0549 0.14294,-0.0548 0.15978,0.17151 0.15978,0.1715 0.33207,0.16941 0.33206,0.16941 h 0.11144 0.11145 l -0.0257,-0.3175 -0.0257,-0.3175 0.16315,-0.20685 0.16315,-0.20685 0.33961,0.11208 0.33961,0.11208 0.20065,-0.0504 0.20064,-0.0504 0.42072,0.2062 0.42071,0.20619 0.23464,0.18964 0.23464,0.18964 0.27336,-0.11112 0.27336,-0.11113 0.19099,-0.0437 0.19099,-0.0437 0.14027,0.11579 0.14027,0.1158 0.15954,0.35983 0.15954,0.35984 h 0.0676 0.0676 l 0.1317,-0.14817 0.13171,-0.14817 0.0844,-0.31082 0.0844,-0.31082 -0.22416,-0.0879 -0.22417,-0.0879 -0.7052,-0.0988 -0.7052,-0.0988 -0.19384,0.10373 -0.19383,0.10374 -0.1593,-0.0304 -0.15929,-0.0304 -0.0245,-0.17046 -0.0245,-0.17047 -0.2479,-0.10972 -0.24789,-0.10973 -0.0554,-0.2952 -0.0554,-0.29521 0.0412,-0.42837 0.0412,-0.42836 0.39249,-0.35527 0.39249,-0.35526 v -0.0915 -0.0916 l 0.12892,-0.0495 0.12892,-0.0495 0.16741,0.16741 0.16742,0.16743 v 0.12538 0.12539 l 0.23283,0.0582 0.23283,0.0582 0.21167,0.22605 0.21167,0.22606 0.44445,0.059 0.44446,0.059 0.13851,0.2114 0.13851,0.2114 0.0506,-0.0506 0.0506,-0.0506 0.10285,-0.3483 0.10284,-0.3483 -0.0429,-0.0694 -0.0429,-0.0694 h -0.11125 -0.11124 l -0.40891,-0.18088 -0.40891,-0.18088 -0.56122,-0.35973 -0.56122,-0.35974 -0.11707,-0.28488 -0.11707,-0.28489 -0.27823,-0.264 -0.27822,-0.26399 v -0.21247 -0.21247 l 0.127,-0.1054 0.127,-0.1054 v 0.0675 0.0675 l 0.1905,-0.17652 0.1905,-0.17653 0.59266,0.0215 0.59267,0.0215 0.338,0.1445 0.33801,0.14451 0.21063,-0.096 0.21063,-0.096 0.18814,0.21873 0.18813,0.21872 0.1099,3.4e-4 0.10989,3.3e-4 0.254,0.15739 0.254,0.15739 0.16597,0.32913 0.16597,0.32913 0.0163,0.027 0.0163,0.027 0.17757,-0.1109 0.17758,-0.11089 v -0.0896 -0.0896 l -0.59199,-0.46155 -0.59199,-0.46154 -6.8e-4,-0.344 -6.8e-4,-0.34399 -0.254,-0.24335 -0.254,-0.24334 v -0.19849 -0.19848 l 0.12311,-0.0472 0.12311,-0.0472 -0.15661,-0.29221 -0.15662,-0.29222 0.0441,-0.16848 0.0441,-0.16848 0.15319,-0.10729 0.15318,-0.1073 -0.0778,-0.12295 -0.0778,-0.12294 -0.001,-0.22378 -0.001,-0.22377 0.13144,-0.0504 0.13144,-0.0504 0.22375,0.14662 0.22376,0.14661 0.14953,-0.0253 0.14953,-0.0253 0.40385,0.3646 0.40386,0.3646 0.11626,0.10862 0.11625,0.10862 0.32368,0.16513 0.32368,0.16512 0.0535,0.16856 0.0535,0.16855 0.23851,0.16984 0.23851,0.16984 0.0964,0.38269 0.0964,0.3827 h 0.13566 0.13565 l -0.0494,-0.23284 -0.0494,-0.23283 -0.0924,-0.80433 -0.0923,-0.80434 -0.15635,-0.80433 -0.15635,-0.80433 -0.0553,-0.53489 -0.0553,-0.53488 -0.046,-0.11973 -0.046,-0.11973 -0.16812,0.09 -0.16812,0.09 -0.0495,-0.0495 -0.0495,-0.0495 -0.21843,0.14359 -0.21842,0.14359 -0.381,0.0732 -0.381,0.0732 -0.55324,0.046 -0.55323,0.046 -0.42043,-0.2335 -0.42044,-0.2335 -0.52589,-0.34652 -0.5259,-0.34653 -0.31163,-0.19459 -0.31164,-0.19459 -0.23126,0.0806 -0.23126,0.0806 -0.41288,0.2866 -0.41287,0.28661 -0.33867,0.0983 -0.33866,0.0983 -0.59267,0.0463 -0.59267,0.0463 -0.21166,0.0476 -0.21167,0.0476 -1.98967,0.0367 -1.98966,0.0367 -0.3452,0.0713 -0.34519,0.0713 -0.0885,0.0547 -0.0885,0.0547 -0.62468,0.0497 -0.62467,0.0497 -0.762,0.0286 -0.762,0.0286 -0.46567,-0.10712 -0.46567,-0.10712 -0.59266,-0.28703 -0.59267,-0.28704 -0.211,-0.16933 -0.211,-0.16933 -0.35101,-0.33867 -0.35101,-0.33867 -0.17044,-0.15369 -0.17043,-0.1537 -0.48797,-0.0366 -0.48797,-0.0366 -0.0358,-0.0358 -0.0358,-0.0358 -0.0722,-0.31999 -0.0722,-0.32 1.20141,-1.21349 1.2014,-1.21348 0.59267,-0.50437 0.59267,-0.50437 0.635,-0.39283 0.635,-0.39282 0.93133,-0.44658 0.93133,-0.44657 0.80434,-0.33949 0.80433,-0.33948 0.77953,-0.25847 0.77952,-0.25847 0.70214,-0.085 0.70214,-0.085 0.59267,-0.0605 0.59267,-0.0605 0.508,0.0103 0.508,0.0103 0.93133,0.0992 0.93133,0.0992 0.42334,0.13612 0.42333,0.13613 0.16933,0.008 0.16934,0.008 0.31987,0.0621 0.31987,0.0621 0.51666,0.16505 0.51666,0.16505 h 0.2803 0.28031 l 0.0456,0.0737 0.0456,0.0737 0.27693,0.0539 0.27693,0.0539 0.635,0.24397 0.635,0.24397 0.38834,0.1381 0.38834,0.1381 0.14845,0.10855 0.14845,0.10855 0.0323,0.4189 0.0323,0.41889 0.0374,0.26552 0.0374,0.26553 -0.32455,0.0519 -0.32455,0.0519 -0.1549,-0.0594 -0.15489,-0.0594 -0.33867,-0.22526 -0.33867,-0.22526 -0.21166,-0.048 -0.21167,-0.048 -0.3175,-0.0906 -0.31749,-0.0906 -0.3175,-0.0827 -0.3175,-0.0827 -0.27789,-0.002 -0.27789,-0.002 -0.31478,-0.14052 -0.31478,-0.14052 -0.254,-0.0246 -0.254,-0.0246 -0.22231,-0.0379 -0.22231,-0.0379 -0.17985,-0.0963 -0.17986,-0.0963 v 0.0465 0.0464 l -0.27576,-0.11522 -0.27577,-0.11523 -0.29573,0.0107 -0.29574,0.0107 -0.10954,0.0683 -0.10955,0.0683 -0.11958,-0.0992 -0.11958,-0.0992 -0.0672,0.0403 -0.0672,0.0403 -0.39402,-0.0607 -0.39402,-0.0607 -0.19865,0.15284 -0.19864,0.15283 -0.29634,0.0507 -0.29633,0.0507 -1.016,0.21607 -1.016,0.21606 -0.84667,0.24761 -0.84666,0.24761 -0.71967,0.22596 -0.71967,0.22595 -0.33908,0.17945 -0.33909,0.17944 -0.33825,0.1083 -0.33824,0.10829 -0.50958,0.27133 -0.50958,0.27134 -0.25242,0.15857 -0.25242,0.15856 -0.46567,0.42629 -0.46567,0.42629 -0.24015,0.31893 -0.24016,0.31893 h -0.20434 -0.20435 l -0.003,-0.14817 -0.003,-0.14816 -0.20493,0.23283 -0.20493,0.23283 h -0.209 -0.209 l -0.0547,-0.24903 -0.0547,-0.24903 0.0972,-0.18155 0.0972,-0.18156 -0.041,-0.041 -0.041,-0.041 -0.26908,0.3911 -0.26909,0.3911 0.11007,0.14402 0.11006,0.14401 0.57064,0.56512 0.57064,0.56512 0.61739,0.30435 0.61738,0.30435 0.508,0.0845 0.508,0.0845 0.67734,-0.007 0.67733,-0.007 0.67733,-0.13672 0.67734,-0.13671 0.26191,-0.19677 0.26191,-0.19677 0.41542,0.12508 0.41542,0.12508 1.651,-0.0457 1.651,-0.0457 0.42334,-0.0738 0.42333,-0.0738 0.42333,-0.0534 0.42334,-0.0534 0.29633,-0.0986 0.29633,-0.0986 0.21548,-0.21346 0.21547,-0.21345 0.35063,-0.24061 0.35064,-0.24061 0.38048,0.26178 0.38048,0.26177 h 0.0906 0.0906 v 0.0847 0.0847 h 0.13082 0.13083 l 0.62564,0.42217 0.62564,0.42218 0.38522,0.10303 0.38523,0.10304 0.53048,-0.1102 0.53047,-0.11019 0.16934,-0.0449 0.16933,-0.0449 0.35615,-0.0397 0.35616,-0.0397 0.0562,0.22382 0.0562,0.22382 0.14467,-0.13092 0.14467,-0.13093 h 0.0935 0.0935 l 0.0542,-0.17077 0.0542,-0.17077 0.31134,-0.13269 0.31133,-0.13268 0.71967,0.0411 0.71967,0.0411 0.19826,0.0474 0.19827,0.0474 -0.059,-0.1448 -0.059,-0.1448 -0.21248,-0.59267 -0.21249,-0.59267 -0.0433,-1.05833 -0.0433,-1.05833 -0.0105,-1.35467 -0.0105,-1.35467 0.0626,-0.22271 0.0626,-0.22272 0.16396,-0.0429 0.16395,-0.0429 0.0858,0.22326 0.0858,0.22326 0.0533,0.35009 0.0533,0.35009 0.16684,0.17907 0.16683,0.17908 h 0.0429 0.0429 l -0.0537,-0.28605 -0.0537,-0.28605 0.1444,-0.28545 0.1444,-0.28545 0.152,-0.16933 0.15201,-0.16934 0.0286,-0.21166 0.0286,-0.21167 0.20024,-0.0283 0.20025,-0.0283 0.28659,0.27777 0.28659,0.27777 v 0.1104 0.11039 h 0.0666 0.0667 l 0.0122,-0.16154 0.0122,-0.16153 0.13124,-0.15597 0.13124,-0.15596 0.11076,-0.15426 0.11076,-0.15426 0.23756,0.0596 0.23756,0.0596 -0.0717,0.0523 -0.0717,0.0523 -0.0986,0.21167 -0.0986,0.21166 -0.043,0.19628 -0.043,0.19627 0.0865,0.24823 0.0865,0.24822 h 0.0764 0.0764 v 0.24901 0.249 l 0.10084,0.0623 0.10083,0.0623 0.0332,-0.0997 0.0332,-0.0996 h 0.10636 0.10635 l 0.0822,-0.1905 0.0822,-0.1905 -0.0325,-0.14817 -0.0325,-0.14817 h -0.16312 -0.16313 v -0.0687 -0.0687 l 0.26066,-0.19272 0.26065,-0.19271 0.053,0.053 0.0529,0.0529 0.0141,0.22967 0.0141,0.22967 0.0109,0.14816 0.0109,0.14817 h 0.20667 0.20667 l 0.0556,0.09 0.0556,0.09 -0.13548,0.1497 -0.13547,0.1497 0.0611,0.0611 0.0611,0.0611 -0.14133,-0.0542 -0.14133,-0.0542 0.0372,0.20524 0.0372,0.20524 -0.21242,0.11369 -0.21243,0.11368 0.10745,0.0682 0.10745,0.0682 -0.14817,0.001 -0.14817,10e-4 v 0.0978 0.0978 l -0.15119,-0.13682 -0.15119,-0.13683 v 0.16604 0.16603 h 0.0606 0.0606 l -0.0711,0.24789 -0.0711,0.24788 0.12626,0.0485 0.12626,0.0484 h 0.0777 0.0777 v -0.11994 -0.11995 l -0.10223,-0.0341 -0.10223,-0.0341 0.19847,-0.20581 0.19846,-0.20582 -0.0442,0.18378 -0.0442,0.18377 0.15206,-0.0293 0.15205,-0.0293 0.0496,0.19748 0.0496,0.19748 0.0517,0.13486 0.0517,0.13487 h -0.0794 -0.0794 l -0.11499,-0.21486 -0.11498,-0.21486 -0.0587,0.10903 -0.0587,0.10902 -0.0609,0.762 -0.0609,0.762 -0.0669,0.0847 -0.0669,0.0847 -0.0892,0.46566 -0.0891,0.46567 -0.0486,0.42333 -0.0486,0.42334 0.0758,0.11505 0.0758,0.11505 0.39147,0.0441 0.39147,0.0441 v 0.13217 0.13218 l 0.10835,-0.14818 0.10835,-0.14818 0.23227,0.0883 0.23227,0.0883 -0.0584,0.23267 -0.0584,0.23267 0.0208,0.0862 0.0208,0.0862 0.0375,1.2065 0.0375,1.2065 h -0.0848 -0.0848 l -0.18733,-0.35983 -0.18732,-0.35983 -0.003,-0.77248 -0.003,-0.77247 0.10537,-0.12696 0.10537,-0.12696 -0.0547,-0.1426 -0.0547,-0.1426 -0.13724,0.057 -0.13724,0.057 -0.29633,0.0772 -0.29634,0.0772 -0.80433,0.0339 -0.80433,0.0339 -0.97367,0.007 -0.97367,0.007 -0.46566,-0.0399 -0.46567,-0.0399 -0.27228,0.0474 -0.27228,0.0474 -0.051,0.16054 -0.051,0.16054 -0.1636,0.0876 -0.1636,0.0876 -0.17936,-0.096 -0.17935,-0.096 0.0447,0.57984 0.0447,0.57984 0.21189,1.35467 0.21189,1.35467 0.0606,0.35947 0.0606,0.35946 0.32646,0.0879 0.32646,0.0879 0.0912,0.17037 0.0912,0.17037 -0.0262,0.27125 -0.0263,0.27126 -0.28114,-0.0131 -0.28114,-0.0131 0.05,0.13024 0.05,0.13023 0.13032,0.81423 0.13032,0.81424 0.16416,0.762 0.16415,0.762 0.0856,1.18533 0.0857,1.18533 0.0812,0.889 0.0812,0.889 0.12899,0.80434 0.12899,0.80433 0.0975,0.889 0.0975,0.889 -0.009,0.381 -0.009,0.381 0.12346,0.71967 0.12345,0.71966 2.5e-4,0.32307 2.6e-4,0.32307 0.0876,0.16376 0.0877,0.16377 h 0.14638 0.14638 l 0.14697,0.33925 0.14697,0.33925 v 0.13434 0.13435 l -0.18028,0.0471 -0.18028,0.0472 0.0432,1.27842 0.0432,1.27843 0.2235,1.31234 0.22349,1.31233 0.12886,0.55033 0.12885,0.55034 0.0251,1.56633 0.0251,1.56633 0.0484,0.21167 0.0484,0.21167 0.0639,0.42333 0.0639,0.42333 0.0154,0.0847 0.0154,0.0847 0.0129,1.20507 0.0129,1.20508 0.41302,0.20929 0.41302,0.20929 0.0454,-0.0454 0.0454,-0.0454 0.19776,0.10952 0.19775,0.10951 0.0605,-0.017 0.0605,-0.017 -0.0487,0.12694 -0.0487,0.12695 0.13012,-0.0499 0.13013,-0.0499 0.12434,0.19714 0.12435,0.19714 -0.0201,0.254 -0.0201,0.254 -0.0132,0.1162 -0.0133,0.1162 -0.10583,-0.0844 -0.10584,-0.0844 -0.29633,-0.0554 -0.29633,-0.0554 -0.45402,-0.0399 -0.45402,-0.0399 0.0707,1.20646 0.0707,1.20645 -0.018,3.048 -0.018,3.048 -0.0929,1.35467 -0.0929,1.35466 -0.16442,0.84667 -0.16443,0.84667 -0.0829,1.016 -0.0829,1.016 -0.0906,0.27516 -0.0906,0.27517 h -0.19681 z m -3.96694,-17.04622 0.0564,-0.0565 -0.0564,-0.0564 -0.0564,-0.0564 v 0.11288 0.11289 z m 1.263,0.007 0.0273,-0.0273 -0.14112,-0.46258 -0.14112,-0.46258 -0.0297,0.18733 -0.0297,0.18734 0.14356,0.30252 0.14356,0.30253 z m 2.17306,-0.46433 0.0635,-0.0324 v -0.20096 -0.20097 l 0.16939,-0.0538 0.16939,-0.0538 0.25394,0.18082 0.25394,0.18082 -5.9e-4,-0.66193 -5.9e-4,-0.66193 -0.16873,-1.25804 -0.16875,-1.25805 v -1.16665 -1.16666 l -0.22399,-0.7503 -0.22399,-0.75031 -0.0655,-0.55033 -0.0655,-0.55033 -0.12409,-0.381 -0.12409,-0.381 -0.10333,-0.42334 -0.10333,-0.42333 -0.0275,-1.48167 -0.0275,-1.48166 -0.0866,-0.53352 -0.0866,-0.53352 -0.19451,-0.16217 -0.1945,-0.16216 -0.0927,-0.003 -0.0927,-0.003 -0.246,-0.21808 -0.246,-0.21808 -0.18345,-0.1257 -0.18346,-0.12571 -0.17638,0.11015 -0.17638,0.11015 v 0.0996 0.0996 l 0.47292,0.41483 0.47293,0.41483 0.11677,0.54469 0.11676,0.54468 0.003,0.0617 0.003,0.0617 -0.47597,0.46842 -0.47597,0.46843 -0.19347,0.0486 -0.19348,0.0486 -0.17165,-0.0919 -0.17166,-0.0919 h -0.20696 -0.20696 l -0.0902,-0.23283 -0.0902,-0.23284 -0.0269,-0.1682 -0.0269,-0.1682 -0.36502,-0.20136 -0.36503,-0.20136 -0.21796,-0.20199 -0.21795,-0.202 -0.11087,0.092 -0.11087,0.092 -0.089,-0.055 -0.089,-0.055 -0.0482,0.12575 -0.0483,0.12575 0.098,0.18311 0.098,0.18312 0.28619,0.11958 0.28619,0.11957 0.0947,0.35157 0.0947,0.35157 0.008,0.38952 0.008,0.38952 -0.0666,0.59267 -0.0666,0.59267 -0.20099,0.31388 -0.20098,0.31388 -0.14936,0.0728 -0.14935,0.0728 -0.127,-0.0139 -0.127,-0.0139 -0.0922,-0.0129 -0.0922,-0.0129 -0.0983,-0.21565 -0.0983,-0.21565 v -0.32898 -0.32898 l -0.1905,-0.0595 -0.1905,-0.0594 -0.0622,-0.0944 -0.0622,-0.0944 -0.001,-0.73888 -0.001,-0.73889 -0.21019,-0.13772 -0.21019,-0.13772 -0.25235,0.21234 -0.25235,0.21234 -0.10176,0.0339 -0.10175,0.0339 0.24302,0.61943 0.24303,0.61943 0.22379,0.28161 0.22379,0.2816 0.0572,0.81359 0.0572,0.81359 -0.0531,0.0859 -0.0531,0.0859 0.0546,0.35383 0.0546,0.35382 0.27041,0.127 0.27042,0.127 0.0782,0.27975 0.0782,0.27974 -0.1194,0.11216 -0.11939,0.11216 -0.60531,-0.0683 -0.60532,-0.0683 -0.34381,-0.1754 -0.34382,-0.1754 h -0.088 -0.088 v 0.1749 0.1749 l 0.0872,0.16289 0.0872,0.16289 0.26178,0.13537 0.26177,0.13537 0.28716,-0.0539 0.28715,-0.0539 0.0473,0.15221 0.0473,0.15221 0.0665,0.127 0.0665,0.127 0.11793,0.0219 0.11792,0.0219 0.16587,-0.34785 0.16588,-0.34784 0.42679,-0.2448 0.42679,-0.24481 0.47076,-7.6e-4 0.47076,-7.6e-4 0.27008,0.26404 0.27007,0.26405 v 0.28077 0.28078 l -0.087,0.22892 -0.087,0.22892 0.0377,0.0377 0.0377,0.0377 0.57831,0.0447 0.57831,0.0446 0.36273,0.1705 0.36272,0.1705 0.0778,0.14529 0.0778,0.14529 0.0204,0.34516 0.0204,0.34517 -0.11118,0.13396 -0.11117,0.13396 h -0.16373 -0.16373 l -0.16632,-0.37599 -0.16631,-0.37599 -0.26497,0.0924 -0.26497,0.0924 -0.15662,0.15662 -0.15662,0.15655 2.5e-4,0.0635 2.6e-4,0.0635 0.47447,0.254 0.47448,0.254 0.1927,0.24454 0.19271,0.24454 0.19802,-0.13871 0.19803,-0.1387 h 0.23994 0.23993 l 0.24923,0.27287 0.24923,0.27287 v 0.0955 0.0955 l 0.20335,0.38246 0.20336,0.38246 0.14997,0.61703 0.14997,0.61703 -0.22633,0.18047 -0.22632,0.18046 v 0.0541 0.0541 l 0.14816,0.0337 0.14817,0.0336 0.0635,-0.0324 z m -1.5875,-4.93312 h -0.0423 v -0.0423 -0.0423 h 0.0423 0.0423 v 0.0423 0.0423 z m 0.40216,4.48468 0.0635,0.003 v -0.15792 -0.15791 l 0.17528,-0.22284 0.17528,-0.22283 -0.18104,-0.25425 -0.18105,-0.25425 h -0.1532 -0.1532 l -0.0923,0.11118 -0.0923,0.11119 0.0531,0.33331 0.0531,0.33332 0.13464,0.18784 0.13464,0.18783 0.0635,0.003 z m -2.93018,-3.98007 0.0966,0.003 0.0531,-0.21167 0.0531,-0.21166 h 0.083 0.0831 v -0.0847 -0.0847 h -0.093 -0.093 l -0.26679,0.11942 -0.2668,0.11941 -0.127,0.036 -0.127,0.036 0.254,0.13758 0.254,0.13757 0.0967,0.003 z m -0.92483,-0.50461 h 0.0291 l -0.004,-0.27516 -0.004,-0.27517 0.0288,-0.19727 0.0288,-0.19727 0.12105,-0.0766 0.12104,-0.0766 0.19756,-0.001 0.19755,-10e-4 -0.0365,-0.10583 -0.0365,-0.10584 -0.2034,0.0139 -0.2034,0.0139 -0.31162,0.11083 -0.31162,0.11083 -0.054,0.28794 -0.054,0.28793 0.23331,0.24352 0.23331,0.24353 h 0.0291 z m -3.72971,-0.79022 0.0564,-0.0564 -0.0564,-0.0565 -0.0564,-0.0564 v 0.11289 0.11289 z m 0.18149,-1.66511 h 0.0772 l -0.0388,-0.20307 -0.0388,-0.20307 0.27209,-0.26002 0.27209,-0.26002 0.16301,-0.0517 0.16301,-0.0517 -0.0526,-0.18367 -0.0526,-0.18367 -0.0413,-0.14817 -0.0413,-0.14816 h -0.14887 -0.14887 l -0.19482,-0.20738 -0.19483,-0.20739 -0.0536,-0.49111 -0.0536,-0.49112 -0.15799,0.57599 -0.15799,0.57599 0.0401,0.65168 0.0401,0.65167 0.13549,0.3175 0.13549,0.3175 z m -2.5195,-0.508 h 0.077 l 0.051,-0.23283 0.051,-0.23284 0.0381,-0.12023 0.0381,-0.12023 -0.10447,-0.0646 -0.10447,-0.0646 v -0.30203 -0.30204 h -0.0648 -0.0648 l -0.076,0.14816 -0.076,0.14817 -0.0498,0.44266 -0.0498,0.44266 0.12885,0.12884 0.12884,0.12884 z m 3.90136,-1.10067 h 0.0676 l 0.0876,-0.16376 0.0877,-0.16377 v -0.30747 -0.30746 l -0.086,-0.16062 -0.086,-0.16061 -0.1184,0.0454 -0.11841,0.0454 -0.21897,-0.32224 -0.21897,-0.32224 v -0.13932 -0.13931 l -0.14168,-0.1162 -0.14168,-0.1162 0.0604,0.21167 0.0604,0.21166 0.0343,0.14906 0.0343,0.14905 -0.125,0.29917 -0.12501,0.29918 0.05,0.0809 0.05,0.0809 h 0.20187 0.20187 l 0.1318,0.18817 0.1318,0.18817 v 0.17872 0.17872 l 0.0564,0.0564 0.0564,0.0564 z m 2.11227,-1.69333 h 0.0779 l 0.001,-0.1905 0.001,-0.1905 0.048,-0.17884 0.048,-0.17884 -0.17763,-0.0465 -0.17762,-0.0464 -0.19667,-0.44564 -0.19667,-0.44564 -0.0568,0.41409 -0.0568,0.41408 0.24839,0.1944 0.2484,0.1944 0.0556,0.25294 0.0556,0.25295 h 0.0779 z m 0.12027,-1.524 h 0.0423 v -0.0423 -0.0423 h -0.0423 -0.0423 v 0.0423 0.0423 z m -5.30836,-0.45021 0.1103,-0.0155 0.0167,-0.0847 0.0167,-0.0847 -0.23283,-0.0268 -0.23283,-0.0268 v 0.0832 0.0832 l 0.10583,0.0437 0.10583,0.0437 z m 4.42576,-0.39646 h 0.0729 l -0.0487,-0.127 -0.0487,-0.127 h -0.073 -0.0729 l 0.0487,0.127 0.0487,0.127 z m 3.40621,-0.19209 0.0992,-0.0331 0.12273,-0.32247 0.12274,-0.32247 -0.20645,-0.16802 -0.20644,-0.16802 -0.0268,0.22206 -0.0268,0.22206 h -0.0948 -0.0947 l -0.19596,-0.18409 -0.19596,-0.18409 -0.001,-0.13341 -0.001,-0.13341 -0.0699,-0.11016 -0.0699,-0.11017 -0.22516,0.10259 -0.22516,0.10259 v 0.14589 0.14589 l 0.33892,0.30619 0.33891,0.30618 h 0.16611 0.16611 l 0.0934,0.17448 0.0934,0.17448 0.0991,-0.0331 z m -5.24294,-0.40057 h 0.0423 l 0.0523,-0.0847 0.0523,-0.0847 h -0.0423 -0.0423 l -0.0523,0.0847 -0.0523,0.0847 z m 1.80514,-0.5715 0.0393,-0.10584 h 0.11057 0.11056 l 0.19772,-0.1601 0.19773,-0.16011 -0.33651,-0.0934 -0.33651,-0.0934 -0.09,-5.1e-4 -0.0901,-5.1e-4 -0.41795,-0.20282 -0.41795,-0.20281 -0.026,0.0242 -0.026,0.0242 0.0733,0.28445 0.0733,0.28445 0.35892,0.0262 0.35893,0.0262 0.0907,0.22777 0.0907,0.22777 0.0393,-0.10583 z m -12.24557,-0.20529 0.13292,0.0148 0.11109,-0.68412 0.1111,-0.68412 0.21268,-0.25276 0.21268,-0.25275 -0.36848,-0.37546 -0.36849,-0.37546 h -0.11098 -0.11099 l 0.0534,0.21277 0.0534,0.21276 -0.11181,0.13472 -0.1118,0.13472 -0.19908,0.0757 -0.19907,0.0757 0.0574,0.0929 0.0574,0.0929 -0.10896,0.20359 -0.10896,0.20359 h -0.1127 -0.11269 v 0.0797 0.0797 l 0.0847,0.0523 0.0847,0.0523 v 0.41347 0.41346 l 0.35983,0.0324 0.35984,0.0324 z m 3.5596,-0.0334 0.0706,-0.0436 0.0925,-0.34364 0.0925,-0.34364 -0.0459,-0.0459 -0.0459,-0.0459 -0.0487,0.16029 -0.0487,0.16028 -0.11502,0.22637 -0.11503,0.22637 0.0465,0.0465 0.0465,0.0465 z m -2.73577,-0.12113 h 0.0677 l 0.1016,-0.1016 0.1016,-0.1016 v -0.10455 -0.10456 l -0.0982,-0.23834 -0.0982,-0.23835 -0.0611,0.254 -0.0611,0.254 -0.01,0.1905 -0.01,0.1905 z m 9.8698,-0.003 0.0739,0.003 -0.10541,-0.127 -0.1054,-0.127 h -0.13281 -0.13282 l 0.16435,0.12431 0.16435,0.12431 0.0739,0.003 z m -1.0052,-0.25131 h 0.0423 v -0.0423 -0.0423 h -0.0423 -0.0423 v 0.0423 0.0423 z m -8.04353,-0.64664 0.13224,-0.0507 -0.0558,-0.18048 -0.0558,-0.18047 -0.19556,-0.381 -0.19557,-0.381 -0.35124,-0.381 -0.35124,-0.381 0.16775,0.30705 0.16774,0.30704 0.0605,0.28562 0.0605,0.28562 0.15455,0.16934 0.15456,0.16933 0.0876,0.23122 0.0876,0.23121 z m 11.02982,-0.05 0.38704,0.023 -0.2713,-0.25926 -0.2713,-0.25927 -0.0505,-0.25235 -0.0505,-0.25235 -0.0532,-0.0329 -0.0532,-0.0329 -0.31686,-0.0594 -0.31685,-0.0594 0.008,0.28459 0.008,0.28459 0.0559,0.19913 0.0559,0.19912 0.24044,0.0972 0.24044,0.0972 0.38704,0.023 z m 4.40354,-0.24137 0.0238,0.007 -0.0238,-0.41824 -0.0238,-0.41824 -0.23283,0.22242 -0.23284,0.22241 v 0.10411 0.1041 l 0.23284,0.085 0.23283,0.085 0.0238,0.007 z m -13.47547,-0.59572 0.2013,-0.18912 v -0.15262 -0.15262 l -0.19492,-0.12772 -0.19493,-0.12772 -0.29191,-0.0566 -0.2919,-0.0566 0.23077,0.23419 0.23078,0.2342 0.0548,0.29187 0.0548,0.29186 z m 2.34523,0.005 0.0696,0.005 -0.0458,-0.4445 -0.0458,-0.4445 -0.0485,-0.46639 -0.0485,-0.4664 -0.0676,-0.10938 -0.0676,-0.10937 -0.26957,0.25181 -0.26956,0.25181 0.0583,0.36448 0.0583,0.36449 0.30359,0.39916 0.30358,0.39915 z m 0.59177,-0.89381 0.0883,-0.15971 0.13315,-0.0995 0.13314,-0.0995 -0.24565,-0.25714 -0.24564,-0.25713 -0.0689,-0.32065 -0.0689,-0.32066 0.0413,0.46566 0.0413,0.46567 0.0518,0.37137 0.0518,0.37137 z m 9.27427,0.0929 0.0437,-0.0437 -0.10019,-0.10019 -0.10019,-0.10019 v 0.0875 0.0875 l 0.0564,0.0564 0.0564,0.0564 0.0438,-0.0437 z m 0.73377,-0.12675 0.1256,-0.10424 v -0.0764 -0.0764 l -0.19436,-0.0739 -0.19436,-0.0739 -0.31939,-0.38977 -0.31939,-0.38977 -0.17268,-0.0924 -0.17267,-0.0924 -0.0834,0.0834 -0.0834,0.0834 0.0955,0.17842 0.0955,0.17842 h 0.21705 0.21705 l 0.25491,0.27289 0.25491,0.27288 0.0768,0.20199 0.0768,0.20198 0.1256,-0.10423 z m -9.03957,-0.5928 0.0635,-10e-4 0.0932,-0.0622 0.0932,-0.0622 0.0921,-0.17512 0.0921,-0.17511 -0.0124,-0.65039 -0.0124,-0.65038 h -0.0139 -0.0139 l -0.39176,0.17329 -0.39177,0.1733 v 0.26187 0.26187 l -0.14816,0.12048 -0.14817,0.12049 0.10158,0.0427 0.10159,0.0427 0.21591,0.16984 0.21592,0.16984 v 0.12085 0.12086 l 0.0635,-10e-4 z m -2.91439,-0.59405 0.0701,0.003 -0.51461,-0.97477 -0.51461,-0.97476 v -0.15797 -0.15796 l -0.2473,-0.10244 -0.2473,-0.10243 -0.11661,0.0287 -0.11661,0.0287 0.10965,0.381 0.10964,0.381 0.25336,0.14371 0.25337,0.14371 0.20794,0.47021 0.20795,0.47021 0.23746,0.2089 0.23745,0.20891 z m 5.56281,0.003 h 0.0633 l 0.18797,-0.15222 0.18798,-0.15221 0.11646,-0.33462 0.11646,-0.33462 9e-5,-0.42333 8e-5,-0.42334 -0.0511,-0.1905 -0.0511,-0.1905 h -0.0783 -0.0783 l -0.18175,0.16934 -0.18176,0.16933 h -0.11104 -0.11103 l -0.001,0.27517 -0.001,0.27516 -0.10767,0.21167 -0.10767,0.21167 0.16322,0.4445 0.16321,0.4445 h 0.0633 z m -3.96265,-2.1168 h 0.0916 l -0.12992,-0.14817 -0.12991,-0.14816 -0.13721,-0.27096 -0.13721,-0.27097 v -0.21587 -0.21587 h -0.12007 -0.12008 l -0.12775,-0.049 -0.12774,-0.049 0.049,0.1873 0.049,0.1873 0.15167,0.0397 0.15167,0.0397 0.053,0.24141 0.053,0.24142 0.16963,0.21564 0.16962,0.21564 z m 6.62706,-0.0279 0.0847,-0.0275 0.0256,-0.25611 0.0256,-0.2561 -0.19493,-0.30529 -0.19493,-0.3053 -0.11994,-0.004 -0.11994,-0.004 0.0535,0.0535 0.0535,0.0535 -0.0847,0.1582 -0.0847,0.1582 h 0.11961 0.11961 l 0.0977,0.11774 0.0977,0.11774 0.0185,0.26308 0.0185,0.26307 0.0847,-0.0275 z m -4.52551,-0.18755 0.16918,-0.15311 -0.0655,-0.0637 -0.0655,-0.0637 -0.4445,-0.17415 -0.4445,-0.17416 v 0.0665 0.0665 l 0.1016,0.1016 0.1016,0.1016 h 0.15449 0.1545 l 0.0847,0.22284 0.0847,0.22284 z m -1.50742,-0.54655 h 0.0847 l -0.1054,-0.127 -0.1054,-0.127 h -0.0847 -0.0847 l 0.1054,0.127 0.1054,0.127 z m 1.93984,-0.34534 0.0556,0.007 -0.041,-0.1568 -0.041,-0.1568 -0.26857,-0.14032 -0.26857,-0.14033 -0.27079,-0.16438 -0.27078,-0.16437 -0.0522,0.16441 -0.0522,0.1644 0.0528,0.0854 0.0528,0.0854 0.10084,10e-4 0.10083,0.001 0.42334,0.2039 0.42333,0.2039 0.0556,0.007 z m 5.24826,-1.74464 0.0606,-0.15369 0.006,-0.22309 0.006,-0.2231 -0.20199,-0.13235 -0.20199,-0.13234 -0.18656,-0.38539 -0.18656,-0.38539 h -0.0292 -0.0292 l 0.0386,0.21263 0.0386,0.21263 0.16718,0.2742 0.16719,0.2742 3.4e-4,0.24734 3.4e-4,0.24733 0.14512,0.16036 0.14512,0.16035 0.0606,-0.15369 z m -4.67149,-0.61935 h 0.0873 v -0.0297 -0.0297 l -0.0921,-0.26419 -0.0921,-0.26419 -0.28341,-0.0532 -0.28341,-0.0532 -0.0902,0.0557 -0.0902,0.0557 v 0.11119 0.11118 l 0.32943,0.0527 0.32942,0.0527 0.0489,0.12748 0.0489,0.12748 z m 5.80982,-1.88427 0.0302,-0.0303 -0.0908,-0.33391 -0.0908,-0.33391 -0.11859,-0.13366 -0.11858,-0.13367 v -0.0992 -0.0992 h -0.0904 -0.0904 l 0.058,0.1905 0.0581,0.1905 0.11592,0.13249 0.11593,0.1325 0.0955,0.27399 0.0955,0.27399 z m -3.495,-0.24084 0.0685,0.008 -0.0517,-0.0836 -0.0516,-0.0836 -0.38008,-0.2615 -0.38008,-0.2615 -0.0476,-0.23795 -0.0476,-0.23795 -0.20786,-0.0947 -0.20787,-0.0947 -0.21486,0.0539 -0.21486,0.0539 0.0796,0.0523 0.0796,0.0523 0.11972,0.25331 0.11971,0.25331 0.22671,0.043 0.2267,0.043 0.23815,0.21167 0.23815,0.21166 0.16934,0.0551 0.16933,0.0551 0.0685,0.008 z m 0.49183,-0.66889 h 0.0847 l -0.0523,-0.0847 -0.0523,-0.0847 h -0.0847 -0.0847 l 0.0523,0.0847 0.0523,0.0847 z m 3.41195,-0.43002 0.16228,0.007 -0.0512,-0.0512 -0.0512,-0.0512 -0.11113,0.0445 -0.11112,0.0445 0.16227,0.007 z m 0.27517,-0.0215 0.0564,-0.0564 -0.0564,-0.0565 -0.0564,-0.0564 v 0.11289 0.11289 z m -1.8513,-0.55622 0.0276,-0.0828 -0.0896,-0.32254 -0.0896,-0.32255 -5.1e-4,-0.56356 -5.1e-4,-0.56356 -0.44045,-0.31643 -0.44044,-0.31643 -0.0328,0.0983 -0.0328,0.0983 -0.11944,0.11944 -0.11944,0.11944 v 0.31809 0.31809 l 0.1905,0.20268 0.1905,0.20268 0.0855,0.30394 0.0855,0.30395 0.29553,0.16278 0.29554,0.16278 0.0836,0.0801 0.0836,0.0801 0.0276,-0.0828 z m 0.61625,-0.51622 h 0.0914 l -0.058,-0.27517 -0.058,-0.27517 -0.0882,-0.0847 -0.0882,-0.0847 0.0548,0.15509 0.0548,0.15509 v 0.20475 0.20474 z m 5.1761,-6.10247 0.90717,0.0144 -0.001,-0.61779 -10e-4,-0.6178 0.0929,-0.59267 0.0929,-0.59266 0.0515,-0.33046 0.0515,-0.33047 -0.0989,0.0612 -0.0989,0.0611 0.0487,0.0788 0.0487,0.0788 h -0.0897 -0.0897 l -0.001,-0.14817 -0.001,-0.14817 -0.2617,0.29634 -0.2617,0.29633 -0.24702,0.48853 -0.24703,0.48852 0.0804,0.14648 0.0804,0.14647 0.17571,0.14734 0.17571,0.14734 v 0.30286 0.30287 l -0.1858,-0.059 -0.18579,-0.059 -0.83044,-0.67315 -0.83044,-0.67314 -0.25376,-0.25377 -0.25377,-0.25377 v 0.0823 0.0823 l 0.16842,0.5453 0.16843,0.54529 0.25491,0.35189 0.25491,0.35189 v 0.0881 0.0881 l 0.1905,0.0715 0.1905,0.0715 0.90716,0.0144 z m -1.8385,-1.68687 h -0.0423 v -0.0423 -0.0423 h 0.0423 0.0423 v 0.0423 0.0423 z m 1.12689,-0.33866 h 0.0739 l 0.22899,-0.42073 0.22898,-0.42072 0.0808,-0.0499 0.0808,-0.0499 v -0.127 -0.127 l -0.0837,0.0517 -0.0837,0.0517 0.0417,-0.11024 0.0417,-0.11023 -0.32356,-0.4656 -0.32356,-0.4656 -0.12131,-0.0211 -0.12132,-0.0211 -0.10896,0.0703 -0.10895,0.0703 0.0808,0.58574 0.0808,0.58574 0.0939,0.381 0.0939,0.381 0.0374,0.10583 0.0374,0.10584 z m -23.48925,-0.42334 h 0.032 l 0.1162,-0.14816 0.1162,-0.14817 -0.14817,0.1162 -0.14817,0.1162 v 0.032 0.032 z m 0.60303,-0.59266 h 0.0423 v -0.0423 -0.0423 h -0.0423 -0.0423 v 0.0423 0.0423 z m 0.1381,-0.17309 0.0534,0.004 0.96257,-0.54989 0.96256,-0.54988 0.078,-4.2e-4 0.078,-4.2e-4 0.13367,-0.11673 0.13366,-0.11673 0.67734,-0.34366 0.67733,-0.34366 0.46567,-0.20806 0.46566,-0.20806 0.80434,-0.37763 0.80433,-0.37764 0.38477,-0.0506 0.38477,-0.0506 0.25023,-0.13048 0.25023,-0.13048 0.14317,-5.1e-4 0.14317,-5.1e-4 0.0445,-0.072 0.0445,-0.072 0.82835,-0.0762 0.82835,-0.0763 1.26998,0.0282 1.26997,0.0282 -0.0439,-0.0439 -0.0439,-0.0439 -0.8027,-0.12366 -0.80271,-0.12367 -0.46567,0.0258 -0.46566,0.0258 -0.71967,0.0623 -0.71967,0.0623 -0.254,0.0216 -0.254,0.0216 -0.71966,0.18536 -0.71967,0.18537 -0.0847,0.0661 -0.0847,0.0661 -0.33867,0.10871 -0.33866,0.10871 -0.29634,0.14961 -0.29633,0.1496 -0.96577,0.43719 -0.96577,0.43718 -0.55823,0.3462 -0.55823,0.34621 -0.3133,0.16143 -0.3133,0.16143 -0.53337,0.49748 -0.53336,0.49749 0.0534,0.004 z m 23.93162,-0.35184 0.13091,-0.0254 0.0392,-0.11762 0.0392,-0.11761 -0.10409,0.0643 -0.1041,0.0643 0.0961,-0.17955 0.0961,-0.17955 h -0.0819 -0.0819 l -0.0557,-0.17546 -0.0557,-0.17546 -0.1114,0.0427 -0.11139,0.0427 -0.14597,-0.1613 -0.14597,-0.16129 0.0396,-0.6837 0.0396,-0.6837 -0.23214,-0.1653 -0.23213,-0.16529 h -0.11809 -0.11809 l -0.0997,0.27571 -0.0997,0.27571 0.0507,0.31233 0.0507,0.31233 0.22178,0.0258 0.22179,0.0258 0.0283,0.14918 0.0283,0.14917 0.29076,0.43207 0.29077,0.43208 0.0517,0.20615 0.0517,0.20616 z m -0.19372,-0.49107 h -0.0423 v -0.0423 -0.0423 h 0.0423 0.0423 v 0.0423 0.0423 z m -2.15027,0.31366 0.0535,-0.102 0.0428,-0.33988 0.0428,-0.33988 -0.29692,-0.33745 -0.29691,-0.33745 0.0474,0.21166 0.0474,0.21167 0.0601,0.508 0.0601,0.508 0.0932,0.0597 0.0932,0.0597 z m -0.0934,-0.56766 h -0.11288 l 0.0564,-0.0564 0.0564,-0.0564 0.0564,0.0564 0.0564,0.0564 z m 3.429,-0.508 h 0.0423 v -0.0423 -0.0423 h -0.0423 -0.0423 v 0.0423 0.0423 z m -2.49766,-0.254 h 0.11289 l -0.0564,-0.0564 -0.0564,-0.0564 -0.0565,0.0564 -0.0564,0.0564 z m 7.46991,56.65661 -0.0772,0.0772 -0.10352,-0.12474 -0.10353,-0.12474 -0.33315,-0.67969 -0.33315,-0.67968 v -0.0468 -0.0468 l -0.15931,-0.35891 -0.15931,-0.35892 -0.3139,-0.762 -0.3139,-0.762 -0.88452,-1.78818 -0.88451,-1.78818 -0.29665,-0.92115 -0.29664,-0.92115 -0.26397,-1.27 -0.26396,-1.27 -0.008,-0.99178 -0.008,-0.99178 0.14324,-0.14327 0.14323,-0.14327 0.043,0.20372 0.043,0.20371 0.0427,0.635 0.0427,0.635 0.0931,0.84667 0.0931,0.84666 0.20973,0.86812 0.20974,0.86812 0.34097,0.95221 0.34097,0.95222 0.24365,0.381 0.24366,0.381 0.0949,0.254 0.0949,0.254 0.32444,0.64386 0.32444,0.64385 0.39037,0.92484 0.39037,0.92484 v 0.12962 0.12963 l 0.12431,0.16435 0.12431,0.16434 0.003,0.15281 0.003,0.1528 0.3293,0.54599 0.3293,0.54598 0.0576,0.30707 0.0576,0.30708 -0.0772,0.0772 z m -1.66601,-11.27532 h -0.10302 l -0.0564,-0.0564 -0.0565,-0.0565 v -0.37361 -0.37362 l -0.2202,-0.55041 -0.22019,-0.55041 -0.47174,-0.90336 -0.47173,-0.90337 -0.46203,-0.93133 -0.46203,-0.93133 -0.20759,-0.55034 -0.20759,-0.55033 -0.36701,-1.05872 -0.367,-1.05873 -0.17103,-0.67694 -0.17103,-0.67694 -0.20954,-1.10067 -0.20954,-1.10067 -0.0631,-0.55033 -0.0631,-0.55033 -0.0174,-0.16934 -0.0174,-0.16933 -0.11484,-0.635 -0.11485,-0.635 -3.4e-4,-2.413 -3.4e-4,-2.413 0.18377,-1.27 0.18376,-1.27 0.12846,-0.508 0.12847,-0.508 0.12301,-0.42333 0.12301,-0.42334 0.17248,-0.52871 0.17248,-0.52871 0.25767,-0.5567 0.25767,-0.55669 v -0.0352 -0.0352 l 0.26407,-0.42917 0.26408,-0.42918 0.18042,0.0257 0.18043,0.0257 0.0274,0.23937 0.0274,0.23936 -0.16905,0.35963 -0.16904,0.35964 -0.42547,0.88267 -0.42548,0.88267 -0.25243,0.6881 -0.25244,0.6881 -0.0964,0.7089 -0.0964,0.7089 -0.0889,0.33866 -0.0889,0.33867 -0.12129,0.97367 -0.12128,0.97366 -0.0275,1.48167 -0.0274,1.48167 0.0677,0.80433 0.0677,0.80433 0.21653,1.35467 0.21654,1.35467 0.0962,0.46566 0.0962,0.46567 0.36677,1.27 0.36678,1.27 0.2663,0.71967 0.26631,0.71966 0.195,0.55034 0.195,0.55033 0.3869,0.71967 0.38691,0.71966 0.39073,0.762 0.39074,0.762 0.21527,0.508 0.21528,0.508 0.15161,0.635 0.15162,0.635 -0.0452,0.23284 -0.0452,0.23283 h -0.10302 z m -2.71357,-4.318 h -0.0423 v -0.0423 -0.0423 h 0.0423 0.0423 v 0.0423 0.0423 z m -0.15522,-0.11289 -0.0564,0.0565 v -0.11289 -0.11289 l 0.0564,0.0564 0.0564,0.0565 z m 3.2739,-2.28316 -0.0986,0.0347 -0.0602,-0.19516 -0.0602,-0.19517 -0.53139,-1.18533 -0.5314,-1.18533 -0.46219,-1.10067 -0.46219,-1.10067 -0.22071,-0.67733 -0.22072,-0.67733 -0.0827,-0.381 -0.0827,-0.381 -0.17105,-0.97367 -0.17104,-0.97367 -0.13836,-1.143 -0.13835,-1.143 0.011,-1.56633 0.011,-1.56633 0.11725,-0.71967 0.11724,-0.71967 0.17475,-0.889 0.17475,-0.889 0.15915,-0.59266 0.15914,-0.59267 0.18985,-0.35983 0.18985,-0.35984 h 0.0822 0.0822 l 0.1266,0.12661 0.1266,0.1266 0.007,0.25146 0.007,0.25147 -0.0966,0.11635 -0.0966,0.11635 -0.20245,0.62741 -0.20246,0.62742 -0.12705,0.55033 -0.12705,0.55034 -0.13223,0.67733 -0.13223,0.67733 -0.0862,0.635 -0.0862,0.635 0.0353,1.651 0.0353,1.651 0.04,0.254 0.04,0.254 0.0945,0.67734 0.0945,0.67733 0.0425,0.254 0.0425,0.254 0.12665,0.71967 0.12665,0.71966 0.25947,0.84667 0.25947,0.84667 0.0611,0.0847 0.0611,0.0847 0.15488,0.42333 0.15488,0.42334 0.3677,0.79099 0.3677,0.79099 1.7e-4,0.0557 1.7e-4,0.0557 0.33376,0.77363 0.33377,0.77363 0.0259,0.23349 0.0259,0.23349 -0.0987,0.0347 z m 0.48529,-3.19195 h -0.0974 l -0.23967,-0.52917 -0.23966,-0.52916 -0.23497,-0.508 -0.23496,-0.508 -0.40292,-1.22767 -0.40293,-1.22767 -0.17111,-0.84666 -0.17111,-0.84667 -0.11196,-0.67733 -0.11196,-0.67734 0.011,-1.48166 0.011,-1.48167 0.1003,-0.42333 0.1003,-0.42334 0.0403,-0.254 0.0403,-0.254 0.0948,-0.3175 0.0948,-0.3175 h 0.0628 0.0628 l 0.0838,0.24051 0.0838,0.24052 -0.0671,0.41565 -0.0671,0.41566 -0.10771,0.762 -0.10771,0.762 0.006,1.27 0.007,1.27 0.22058,1.18533 0.22058,1.18533 0.30733,1.10067 0.30733,1.10067 0.0736,0.0943 0.0736,0.0943 0.17681,0.54069 0.17682,0.54068 0.19787,0.42333 0.19788,0.42333 0.057,0.23284 0.057,0.23283 h -0.0974 z m 0.19132,-11.32884 -0.0845,0.18933 -0.13666,-0.20875 -0.13666,-0.20874 -0.0384,-0.29633 -0.0384,-0.29634 -0.0626,-0.29633 -0.0626,-0.29633 -0.1281,-0.254 -0.12809,-0.254 -0.10675,-0.381 -0.10675,-0.381 -0.30722,-1.10067 -0.30722,-1.10067 -0.28705,-0.889 -0.28705,-0.889 -0.13916,-0.33866 -0.13916,-0.33867 -0.34978,-0.71967 -0.34978,-0.71966 -0.20831,-0.33867 -0.2083,-0.33867 -0.25193,-0.46566 -0.25193,-0.46567 -0.25598,-0.381 -0.25597,-0.381 -0.7639,-1.143 -0.7639,-1.143 -0.10778,-0.10891 -0.10777,-0.10892 -0.14823,-0.25092 -0.14822,-0.25092 h -0.0664 -0.0664 v -0.0729 -0.0729 l -0.4284,-0.64977 -0.42841,-0.64976 -0.6791,-0.8648 -0.67909,-0.8648 -0.0667,-0.16933 -0.0667,-0.16933 0.0403,-0.10584 0.0403,-0.10583 0.13911,0.003 0.13911,0.003 0.13216,0.10314 0.13217,0.10314 0.50283,0.63927 0.50284,0.63927 0.15002,0.20739 0.15002,0.2074 0.43142,0.70256 0.43142,0.70255 0.41339,0.45232 0.41339,0.45231 8.5e-4,0.0728 8.5e-4,0.0728 0.29551,0.37175 0.29551,0.37175 v 0.0606 0.0606 l 0.42112,0.56336 0.42112,0.56336 0.2042,0.35892 0.20419,0.35893 0.23496,0.42333 0.23495,0.42333 0.10565,0.127 0.10565,0.127 0.51114,1.02441 0.51114,1.02441 0.34863,1.04992 0.34864,1.04993 0.1294,0.71967 0.12941,0.71966 0.15095,0.42334 0.15094,0.42333 0.18706,0.80275 0.18706,0.80275 0.054,0.0863 0.054,0.0862 0.0193,0.0847 0.0193,0.0847 0.14495,0.56976 0.14494,0.56975 -0.0845,0.18932 z m -6.80471,-2.04849 h -0.077 l -0.11891,-0.1905 -0.1189,-0.1905 -0.0515,-0.55034 -0.0515,-0.55033 -0.12395,-1.02446 -0.12395,-1.02447 -0.13871,-3.40239 -0.13871,-3.40239 0.1367,-0.20865 0.13671,-0.20864 h 0.11935 0.11934 l 0.0455,0.14817 0.0455,0.14816 -0.01,0.889 -0.01,0.889 0.0567,2.37067 0.0567,2.37067 0.0843,0.93133 0.0843,0.93133 0.0858,0.71967 0.0858,0.71967 0.045,0.14816 0.045,0.14817 -0.0537,0.16933 -0.0537,0.16934 z m 1.64518,-3.1582 -0.0942,0.0319 -0.0878,-0.23602 -0.0877,-0.23603 -0.1308,-0.71966 -0.13079,-0.71967 -0.19045,-1.17104 -0.19045,-1.17104 0.0859,-0.13625 0.0859,-0.13626 0.0793,-0.0264 0.0793,-0.0264 0.10783,0.17266 0.10783,0.17265 0.12457,0.90707 0.12457,0.90706 0.103,0.71967 0.103,0.71966 0.003,0.45812 0.003,0.45812 -0.0942,0.0319 z m 1.01939,-1.52416 -0.0908,0.0298 -0.13453,-0.15023 -0.13453,-0.15022 -0.0286,-0.28549 -0.0286,-0.28548 0.15312,-0.0955 0.15313,-0.0955 0.1258,0.16933 0.1258,0.16933 -0.0249,0.33209 -0.0249,0.33209 z m -6.66837,-2.03453 -0.0565,0.0564 v -0.11289 -0.11288 l 0.0565,0.0564 0.0564,0.0564 z m 9.3435,-0.22578 h -0.0827 l -0.11951,-0.1905 -0.11952,-0.1905 -0.10433,-0.33867 -0.10433,-0.33866 -0.0744,-0.0804 -0.0744,-0.0804 v -0.12567 -0.12567 l -0.16256,-0.34423 -0.16255,-0.34423 -0.35218,-0.762 -0.35218,-0.762 -0.15983,-0.3148 -0.15984,-0.3148 -0.23559,-0.35513 -0.2356,-0.35513 -0.33867,-0.53518 -0.33867,-0.53519 -0.54917,-0.74222 -0.54918,-0.74222 -0.4014,-0.44327 -0.4014,-0.44328 -0.0517,-0.20619 -0.0517,-0.2062 0.0321,-0.15486 0.0321,-0.15486 0.20819,0.0217 0.2082,0.0217 0.32136,0.35925 0.32135,0.35926 0.2272,0.33866 0.22719,0.33867 0.36511,0.45655 0.3651,0.45654 0.2213,0.39012 0.2213,0.39012 0.42089,0.66813 0.42088,0.66812 0.50393,1.10988 0.50393,1.10987 0.0904,0.254 0.0904,0.254 0.0606,0.0847 0.0606,0.0847 0.18107,0.60581 0.18107,0.60581 v 0.30435 0.30436 z m -0.1,-5.94493 -0.029,0.36274 -0.0978,-0.15828 -0.0978,-0.15829 -0.31802,-1.42212 -0.31802,-1.42212 0.0863,-0.137 0.0863,-0.137 0.12466,-0.0246 0.12467,-0.0246 0.0932,0.32093 0.0931,0.32093 0.0526,0.508 0.0526,0.508 0.0882,0.55033 0.0882,0.55033 z m -1.01834,-3.62794 -0.0266,0.0696 -0.20016,-0.0752 -0.20017,-0.0752 0.10162,-0.12245 0.10162,-0.12244 -0.0546,-0.0884 -0.0546,-0.0884 h 0.17433 0.17433 v -0.0847 -0.0847 h 0.127 0.127 l 0.009,0.0847 0.009,0.0847 v 0.16933 0.16933 l -0.009,0.0937 -0.009,0.0937 -0.12153,-0.0466 -0.12153,-0.0466 z m 0.55127,-0.4178 h -0.11224 v -0.33568 -0.33569 l 0.16569,-0.0887 0.16569,-0.0887 0.0534,-0.31647 0.0534,-0.31647 0.044,-0.15877 0.044,-0.15877 -0.0861,0.0532 -0.0861,0.0532 -0.13464,-0.0517 -0.13464,-0.0517 v -0.11794 -0.11795 h -0.21723 -0.21723 l -0.17521,0.0938 -0.17521,0.0938 0.11482,0.071 0.11482,0.071 -0.059,0.059 -0.059,0.059 -0.11831,-0.0982 -0.11832,-0.0982 -0.12714,0.0488 -0.12715,0.0488 v 0.2163 0.2163 l -0.11642,0.0735 -0.11642,0.0735 -0.10583,-0.14161 -0.10583,-0.1416 v -0.15527 -0.15526 l 0.25704,-0.0514 0.25703,-0.0514 0.1121,-0.16004 0.11209,-0.16004 0.14233,0.0546 0.14233,0.0546 -0.0246,-0.0844 -0.0246,-0.0844 0.29634,-0.3274 0.29633,-0.32741 0.18449,-0.3454 0.18449,-0.3454 0.17535,-0.52049 0.17534,-0.52049 -4.3e-4,-0.23551 -4.2e-4,-0.2355 -0.25361,0.27057 -0.25361,0.27058 v 0.0943 0.0943 l -0.0722,-0.0446 -0.0722,-0.0446 -0.24053,0.28848 -0.24054,0.28849 -0.0683,-0.0422 -0.0683,-0.0422 v 0.137 0.13699 l -0.0837,-0.0517 -0.0837,-0.0517 0.0462,0.12047 0.0462,0.12047 -0.13626,0.0523 -0.13626,0.0523 0.0585,-0.0947 0.0585,-0.0947 -0.11732,0.0391 -0.11731,0.0391 -0.0501,0.30807 -0.0501,0.30807 0.0904,0.0301 0.0904,0.0301 -0.2311,0.15142 -0.23111,0.15143 v 0.11328 0.11328 l -0.31274,0.0864 -0.31274,0.0863 -0.04,-0.04 -0.04,-0.04 h 0.087 0.087 l -0.0405,-0.21182 -0.0405,-0.21181 0.26838,-0.2745 0.26837,-0.2745 -0.0389,-0.14869 -0.0389,-0.14868 h 0.071 0.071 l 0.0619,-0.1905 0.0619,-0.1905 0.0169,-0.254 0.0169,-0.254 0.15043,-0.65042 0.15044,-0.65042 -0.1388,-0.13879 -0.1388,-0.1388 v -0.14898 -0.14898 l 0.1905,-0.0926 0.1905,-0.0926 0.23284,-0.037 0.23283,-0.037 v 0.11526 0.11526 h 0.0847 0.0847 l 0.001,-0.3175 0.001,-0.3175 0.0548,-0.20478 0.0548,-0.20478 -0.15197,0.0583 -0.15198,0.0583 -0.27189,-0.051 -0.2719,-0.051 0.0402,-0.21057 0.0403,-0.21058 0.32599,-0.20579 0.32599,-0.20579 h 0.16487 0.16488 l 0.17547,0.22309 0.17548,0.22308 -0.001,0.30609 -0.001,0.30608 -0.12971,0.37249 -0.12972,0.3725 0.053,0.24134 0.053,0.24133 h 0.0407 0.0407 l 0.3881,-0.29633 0.3881,-0.29633 0.17832,0.001 0.17833,10e-4 0.0932,0.0622 0.0932,0.0622 0.0973,0.18494 0.0973,0.18493 v 0.21928 0.21927 l -0.29634,0.43079 -0.29633,0.4308 v 0.16098 0.16098 l -0.084,0.14702 -0.084,0.14701 -0.13323,0.381 -0.13324,0.381 -0.0408,0.127 -0.0408,0.127 0.26707,0.009 0.26706,0.009 0.0744,0.11753 0.0744,0.11753 0.001,0.26336 0.001,0.26335 -0.2013,0.29663 -0.2013,0.29663 -0.11239,0.32902 -0.11239,0.32901 0.0174,0.0635 0.0174,0.0635 h -0.0865 -0.0865 l -0.099,0.23283 -0.099,0.23283 -0.16794,0.1905 -0.16793,0.1905 z m -0.78449,-4.14866 0.16419,-0.21167 0.0635,-0.0896 0.0635,-0.0897 0.14853,-0.27768 0.14853,-0.27769 -0.063,-0.0983 -0.063,-0.0983 -0.0432,-0.44205 -0.0432,-0.44205 -0.1012,0.0632 -0.10121,0.0632 0.0661,0.2942 0.0661,0.29419 -0.0355,0.10584 -0.0355,0.10583 -0.22578,0.003 -0.22578,0.003 0.14873,0.0866 0.14873,0.0866 -0.0775,0.14473 -0.0775,0.14473 -0.045,0.42225 -0.045,0.42225 0.16418,-0.21166 z m -1.0493,-0.79022 -0.0564,0.0564 v -0.11289 -0.11289 l 0.0564,0.0564 0.0564,0.0564 z m -0.56445,-1.07245 h -0.0847 v -0.0847 -0.0847 h 0.0847 0.0847 v 0.0847 0.0847 z m -22.52463,-0.49051 -0.80104,0.0307 -0.54951,-0.14443 -0.54951,-0.14442 -0.88982,-0.0499 -0.88982,-0.0499 -0.22621,-0.0332 -0.22621,-0.0332 -0.28179,-0.061 -0.28179,-0.0609 -0.38718,-0.19507 -0.38717,-0.19506 -0.82868,-0.747 -0.82869,-0.74701 -0.26602,-0.17847 -0.26602,-0.17847 -0.90315,-0.0402 -0.90315,-0.0402 -0.19731,-0.1257 -0.1973,-0.12569 -0.508,-0.20234 -0.508,-0.20235 -0.49195,-0.33644 -0.49196,-0.33645 -0.15358,-0.21755 -0.15359,-0.21754 -0.30725,-0.6123 -0.30725,-0.61229 -0.22049,-0.0553 -0.22049,-0.0553 -0.11789,-0.28215 -0.11788,-0.28214 v -0.16169 -0.16169 l 0.11023,-0.0915 0.11024,-0.0915 0.18329,0.0479 0.18329,0.0479 0.0481,0.15163 0.0481,0.15164 0.19847,0.19905 0.19847,0.19906 0.31308,0.59267 0.31308,0.59266 0.18146,0.19466 0.18145,0.19465 0.42584,0.28208 0.42584,0.28208 0.42333,0.14538 0.42334,0.14537 0.40546,0.10718 0.40547,0.10718 0.39886,-0.0757 0.39887,-0.0757 0.21095,0.0517 0.21094,0.0517 0.42406,0.30225 0.42405,0.30225 0.0725,0.12285 0.0725,0.12284 0.16985,0.13966 0.16984,0.13966 0.35035,0.32774 0.35036,0.32773 0.37295,0.24157 0.37295,0.24157 0.43138,0.12078 0.43139,0.12077 0.381,0.0492 0.381,0.0492 0.635,0.0112 0.635,0.0112 0.57703,0.11739 0.57704,0.11738 0.4813,-5.1e-4 0.48129,-5.1e-4 0.33499,-0.093 0.33499,-0.093 0.15185,0.18752 0.15184,0.18752 v 0.19931 0.19931 l -0.15146,0.0811 -0.15146,0.0811 -0.80104,0.0307 z m 23.46462,-0.15011 -0.0641,0.16371 -0.0583,-0.0944 -0.0583,-0.0944 0.0874,-0.054 0.0874,-0.054 -0.0481,-0.0779 -0.0481,-0.0778 0.11802,0.0453 0.11802,0.0453 0.0894,-0.2791 0.0894,-0.27909 0.009,0.2648 0.009,0.2648 -0.127,0.1054 -0.127,0.1054 -0.006,-0.0739 -0.006,-0.0739 -0.0641,0.16371 z m -1.06699,-0.12138 h -0.0423 v -0.0423 -0.0423 h 0.0423 0.0423 v 0.0423 0.0423 z m 0.16933,-0.0847 h -0.0423 v -0.0423 -0.0423 h 0.0423 0.0423 v 0.0423 0.0423 z m 0.10584,-0.17063 -0.0635,10e-4 -0.0127,-0.127 -0.0127,-0.127 -0.008,-0.10583 -0.008,-0.10584 -0.15119,-0.15118 -0.15118,-0.15119 -0.10282,0.0131 -0.10281,0.0131 -0.11083,-0.01 -0.11083,-0.01 0.0523,-0.0847 0.0523,-0.0847 h 0.16046 0.16046 l -0.0369,-0.28789 -0.0369,-0.28789 0.1254,-0.0481 0.1254,-0.0481 v 0.11845 0.11846 l 0.1905,0.0291 0.1905,0.0291 -0.0149,0.0827 -0.0149,0.0827 -0.0645,0.16933 -0.0645,0.16934 0.13262,-0.10771 0.13263,-0.10771 0.0448,0.23449 0.0448,0.2345 -0.0798,0.0493 -0.0798,0.0493 0.0575,0.14994 0.0575,0.14995 -0.11817,0.0748 -0.11817,0.0748 -0.0635,0.001 z m 0.0635,-0.59137 h 0.0423 v -0.0423 -0.0423 h -0.0423 -0.0423 v 0.0423 0.0423 z m 1.69333,0.59267 h -0.0423 v -0.0423 -0.0423 h 0.0423 0.0423 v 0.0423 0.0423 z m -8.96937,-1.44373 -0.12169,0.101 -0.22312,-0.47164 -0.22312,-0.47163 -0.0997,-0.006 -0.0997,-0.006 -0.45191,-0.54755 -0.45191,-0.54754 -0.21109,-0.13832 -0.21109,-0.13831 -0.24419,0.14425 -0.24419,0.14424 -0.20924,-0.33145 -0.20923,-0.33145 -0.32291,-0.19714 -0.3229,-0.19714 -0.0282,-0.0671 -0.0282,-0.0671 h -0.0845 -0.0845 l -0.36164,-0.29633 -0.36164,-0.29634 h -0.0638 -0.0638 l -0.30851,-0.24356 -0.30852,-0.24356 -0.71967,-0.40377 -0.71966,-0.40377 -0.29634,-0.15285 -0.29633,-0.15284 -0.36244,-0.17349 -0.36244,-0.17349 h -0.0952 -0.0952 l -0.26199,-0.19673 -0.26199,-0.19673 -0.16934,-0.07 -0.16933,-0.07 -0.20761,-0.0174 -0.20762,-0.0174 -0.0323,-0.0968 -0.0323,-0.0968 h -0.15728 -0.15728 l -0.0532,-0.0861 -0.0532,-0.0861 -0.073,0.0451 -0.073,0.0451 -0.0509,-0.0824 -0.0509,-0.0824 -0.12744,0.0489 -0.12744,0.0489 -0.16085,-0.14556 -0.16084,-0.14556 -0.0828,0.0512 -0.0828,0.0512 -0.0431,-0.10636 -0.0431,-0.10636 -0.0898,0.127 -0.0898,0.127 -0.001,-0.10584 -0.001,-0.10583 h -0.16934 -0.16933 v -0.11907 -0.11908 l -0.15573,0.0407 -0.15574,0.0407 -0.47926,-0.13932 -0.47927,-0.13933 v -0.084 -0.084 l -0.14817,0.0183 -0.14816,0.0183 -0.127,-0.0474 -0.127,-0.0474 -0.635,-0.10309 -0.635,-0.10309 -0.35984,-0.0608 -0.35983,-0.0608 v 0.0566 0.0566 l -0.25416,-0.0373 -0.25416,-0.0373 -0.20518,0.13444 -0.20518,0.13444 -0.0422,-0.10364 -0.0422,-0.10364 -0.0976,0.127 -0.0976,0.127 -0.0414,-0.10108 -0.0414,-0.10107 -0.10037,0.036 -0.10036,0.036 -0.55033,0.048 -0.55034,0.048 -0.22529,-0.005 -0.2253,-0.005 -0.24037,0.0982 -0.24037,0.0982 -0.30096,0.0177 -0.30097,0.0177 -0.2917,0.13087 -0.2917,0.13088 -0.25106,0.0565 -0.25107,0.0565 -0.38017,0.17319 -0.38017,0.17319 -0.259,0.0241 -0.25899,0.0241 -0.4221,0.23077 -0.42211,0.23077 -0.254,0.12779 -0.254,0.1278 -0.43768,0.28465 -0.43768,0.28466 h -0.0439 -0.0439 l -0.2781,0.254 -0.27809,0.254 h -0.062 -0.062 l -0.30514,0.20707 -0.30514,0.20707 -0.12195,-0.0468 -0.12196,-0.0468 5e-5,-0.26611 4e-5,-0.26611 0.44446,-0.44061 0.44445,-0.4406 0.14212,-0.1309 0.14212,-0.13089 h 0.0546 0.0546 l 0.64991,-0.44956 0.64991,-0.44956 0.635,-0.29807 0.635,-0.29807 0.762,-0.23118 0.762,-0.23118 0.28917,-0.0901 0.28917,-0.0901 0.34583,-0.0432 0.34583,-0.0432 0.1905,0.002 0.1905,0.002 v -0.0644 -0.0644 l 0.4445,0.0177 0.4445,0.0177 0.0847,-0.0502 0.0847,-0.0502 0.254,-0.0144 0.254,-0.0144 0.635,-0.0454 0.635,-0.0454 0.20891,-0.0447 0.20891,-0.0447 0.55309,0.0897 0.55309,0.0897 0.80407,0.0436 0.80408,0.0436 0.0426,0.0558 0.0426,0.0558 0.25299,0.0275 0.253,0.0275 0.0868,0.072 0.0868,0.072 0.40104,0.10098 0.40104,0.10099 v 0.0561 0.0562 l 0.19058,0.0158 0.19058,0.0158 0.46559,0.1628 0.46558,0.1628 0.635,0.30827 0.635,0.30827 0.127,0.0721 0.127,0.0721 0.21167,0.0849 0.21166,0.0849 0.99484,0.48829 0.99483,0.48828 v 0.0716 0.0716 l 0.10583,6e-4 0.10584,5.9e-4 0.59266,0.3767 0.59267,0.37669 0.0847,0.0687 0.0847,0.0687 0.49667,0.33724 0.49666,0.33724 0.13534,0.0847 0.13534,0.0847 0.43059,0.30769 0.43059,0.30768 0.37814,0.17226 0.37814,0.17227 0.2526,0.243 0.2526,0.243 0.47507,0.54705 0.47508,0.54705 0.0964,0.18494 0.0964,0.18493 v 0.3762 0.3762 l -0.1217,0.101 z m -11.4353,-7.02294 h 0.0423 v -0.0423 -0.0423 h -0.0423 -0.0423 v 0.0423 0.0423 z m 12.6871,6.68867 h -0.1218 l -0.20781,-0.20782 -0.20782,-0.20782 v -0.12458 -0.12459 l -1.2065,-1.21725 -1.2065,-1.21725 -0.42333,-0.34089 -0.42334,-0.3409 -0.254,-0.16112 -0.254,-0.16111 -0.508,-0.39419 -0.508,-0.39419 -0.75298,-0.43281 -0.75298,-0.43281 -0.0513,-0.003 -0.0514,-0.003 -0.46567,-0.23502 -0.46567,-0.23501 -0.46593,-0.30189 -0.46593,-0.30189 -0.67707,-0.21876 -0.67707,-0.21875 -0.94216,-0.30002 -0.94217,-0.30001 h -0.13094 -0.13093 l -0.66257,-0.25629 -0.66256,-0.2563 -0.45827,-0.18084 -0.45826,-0.18084 -0.47307,-0.0356 -0.47307,-0.0356 -0.635,-0.0301 -0.635,-0.0301 -0.381,-0.0566 -0.381,-0.0566 -0.254,-0.0146 -0.254,-0.0146 -0.094,-0.0587 -0.094,-0.0587 -0.0426,0.0426 -0.0426,0.0426 -0.7947,0.0557 -0.79469,0.0557 -0.40217,0.005 -0.40216,0.005 v 0.0517 0.0517 l -0.79633,0.0475 -0.79633,0.0475 -0.18805,0.10064 -0.18805,0.10064 -0.19384,-0.0883 -0.19384,-0.0883 -0.0502,0.13092 -0.0502,0.13092 -0.21087,-0.0529 -0.21088,-0.0529 v 0.0747 0.0747 l -0.52917,0.11011 -0.52916,0.11011 -0.29508,0.15546 -0.29508,0.15546 h -0.19176 -0.19175 v 0.0847 0.0847 l -0.1905,5.3e-4 -0.1905,5.2e-4 -0.254,0.13408 -0.254,0.13408 -0.127,0.029 -0.127,0.029 -0.93133,0.37819 -0.93134,0.37819 -0.68955,0.34795 -0.68955,0.34795 -0.15711,-0.0581 -0.15712,-0.0581 -0.0622,-0.0908 -0.0622,-0.0908 -0.001,-0.22247 -0.001,-0.22246 0.10583,-0.084 0.10584,-0.084 0.33866,-0.10775 0.33867,-0.10775 0.16933,-0.11705 0.16934,-0.11705 0.33591,-0.0908 0.33591,-0.0908 0.34142,-0.15207 0.34142,-0.15207 0.46567,-0.14176 0.46567,-0.14176 0.52244,-0.20595 0.52244,-0.20595 h 0.16569 0.16569 l 0.10463,-0.12606 0.10463,-0.12607 0.0716,0.0443 0.0716,0.0443 0.43009,-0.14068 0.43009,-0.14067 0.0491,0.0491 0.0491,0.0491 0.12374,-0.12374 0.12375,-0.12375 0.0658,0.0407 0.0658,0.0407 0.28722,-0.0869 0.28722,-0.0868 0.254,-0.0491 0.254,-0.0491 0.23283,-7.7e-4 0.23284,-7.7e-4 1.1e-4,-0.0513 1.1e-4,-0.0513 0.40039,-0.0162 0.40039,-0.0162 0.0236,-0.0707 0.0236,-0.0707 0.3491,0.0333 0.34909,0.0333 -0.0583,-0.0944 -0.0583,-0.0944 0.2078,0.079 0.2078,0.079 0.0325,-0.0325 0.0325,-0.0325 0.75935,-0.0498 0.75934,-0.0498 0.2626,-0.0407 0.26259,-0.0407 0.59435,0.0843 0.59435,0.0843 1.29578,0.0462 1.29578,0.0462 0.0909,0.072 0.0909,0.072 0.254,0.0435 0.254,0.0434 0.50553,0.14031 0.50552,0.1403 0.13085,0.11842 0.13084,0.11841 0.42197,0.0917 0.42196,0.0917 0.127,0.0553 0.127,0.0553 0.127,0.0197 0.127,0.0197 0.27517,0.0604 0.27516,0.0604 v -0.13493 -0.13492 l -0.10583,0.0355 -0.10583,0.0355 -0.28016,-0.3133 -0.28015,-0.3133 -0.4176,-0.508 -0.41759,-0.508 -7.6e-4,-0.0635 -7.5e-4,-0.0635 h -0.0859 -0.0859 l -0.42399,-0.4445 -0.42399,-0.4445 -0.18307,-0.3175 -0.18308,-0.3175001 h -0.0671 -0.0671 l -0.17602,-0.35983 -0.17602,-0.35983 -0.0494,-0.40217 -0.0494,-0.40217 h 0.14379 0.14379 l -0.066,-0.10583 -0.066,-0.10583 -0.0183,-0.16934 -0.0183,-0.16933 0.044,0.10583 0.044,0.10584 h 0.11994 0.11995 v 0.58539 0.5854 l 0.29633,0.30514 0.29633,0.30515 v 0.0588 0.0588 l 0.4445,0.4396701 0.4445,0.43968 0.48797,0.53713 0.48796,0.53713 0.14721,0.16933 0.14722,0.16934 0.26622,0.18655 0.26622,0.18655 0.3686,0.0176 0.3686,0.0176 0.14817,0.12651 0.14817,0.1265 v 0.28932 0.28932 l -0.48595,-0.0518 -0.48594,-0.0518 0.0838,0.0837 0.0838,0.0837 0.32138,0.0354 0.32138,0.0354 0.27129,0.13044 0.27129,0.13045 0.381,0.15054 0.381,0.15054 0.127,0.14706 0.127,0.14706 1.23796,0.5986 1.23797,0.59859 0.1059,0.12761 0.1059,0.1276 h 0.0781 0.078 l 0.56775,0.42522 0.56775,0.42522 0.27111,0.22111 0.2711,0.22112 0.1661,0.0945 0.1661,0.0945 0.40941,0.33867 0.40941,0.33867 0.25405,0.2825 0.25405,0.2825 0.19861,0.18317 0.19861,0.18316 0.47873,0.46832 0.47872,0.46832 0.36526,0.38708 0.36526,0.38708 0.0447,0.2876 0.0447,0.2876 0.006,0.0423 0.006,0.0423 -0.0648,0.14816 -0.0648,0.14817 h -0.12179 z m -10.55632,-8.24089 0.0564,-0.0564 -0.0564,-0.0564 -0.0564,-0.0564 v 0.11289 0.11289 z m -13.22211,-0.31044 h 0.0423 v -0.0423 -0.0423 h -0.0423 -0.0423 v 0.0423 0.0423 z m 7.112,-0.33867 h 0.0423 v -0.0423 -0.0423 h -0.0423 -0.0423 v 0.0423 0.0423 z m 15.85294,3.70851 -0.10673,0.0886 -0.16844,-0.0939 -0.16844,-0.0939 -0.094,-0.0902 -0.094,-0.0901 -0.24697,-0.21671 -0.24698,-0.21672 -0.16699,-0.2077 -0.16699,-0.20771 -0.38372,-0.31149 -0.38371,-0.3115 -0.20895,-0.0955 -0.20895,-0.0955 -0.254,-0.14311 -0.254,-0.14311 -0.87063,-0.59185 -0.87064,-0.59185 -0.14074,-0.0847 -0.14075,-0.0847 -0.0893,-0.0609 -0.0893,-0.0609 -0.508,-0.39862 -0.508,-0.39863 -0.0423,-0.0513 -0.0423,-0.0513 -0.44069,-0.31911 -0.44068,-0.31912 -0.201,-0.23887 -0.201,-0.23887 -0.31081,-0.1124 -0.31082,-0.11239 v -0.0727 -0.0727 l -0.0847,0.0523 -0.0847,0.0523 v -0.12583 -0.12583 l -0.29058,-0.2395201 -0.29058,-0.23952 -0.0904,-0.23783 -0.0904,-0.23782 v -0.0662 -0.0662 l 0.16933,-0.19524 0.16933,-0.19524 0.0106,0.0553 0.0106,0.0553 0.0106,0.0647 0.0106,0.0647 0.43554,0.43325 0.43554,0.43325 0.22029,-0.0421 0.2203,-0.0421 0.28829,0.13681 0.2883,0.13681 h 0.093 0.093 v 0.0753 0.0753 l 0.381,0.1125 0.381,0.11249 v 0.0547 0.0547 l 0.35983,0.24299 0.35984,0.243 0.33866,0.3312 0.33867,0.3312 0.55033,0.44493 0.55034,0.44493 0.67733,0.65164 0.67733,0.65165 0.381,0.26288 0.381,0.26289 0.11189,0.10986 0.11188,0.10986 h 0.0618 0.0618 l 0.39777,0.38661 0.39777,0.38662 0.2117,0.27754 0.21169,0.27754 v 0.21448 0.21447 z m -5.43894,-4.63984 h 0.0423 v -0.0423 -0.0423 h -0.0423 -0.0423 v 0.0423 0.0423 z m -0.254,-0.254 h 0.0423 v -0.0423 -0.0423 h -0.0423 -0.0423 v 0.0423 0.0423 z m -0.16434,-0.0847 h 0.0373 v -0.0373 -0.0373 l -0.0978,-0.0604 -0.0977,-0.0604 0.0604,0.0978 0.0604,0.0978 z m 7.88201,0.84667 h -0.10259 l -0.4421,-0.46967 -0.4421,-0.46966 -0.38472,-0.79086 -0.38473,-0.7908501 -0.0476,-0.29328 -0.0476,-0.29329 0.13179,-0.0506 0.13179,-0.0506 0.19378,0.31321 0.19377,0.31321 0.0442,-0.254 0.0442,-0.254 0.0627,0.0212 0.0627,0.0212 h 0.0777 0.0777 l 0.15443,0.40216 0.15444,0.40217 0.0113,0.0635 0.0113,0.0635 0.0106,0.16329 0.0106,0.16328 0.10845,0.11188 0.10846,0.11188 0.18358,0.31507 0.18358,0.31506 0.0547,0.29141 0.0547,0.29141 -0.0561,0.17669 -0.0561,0.1767 z m -24.143,-0.16934 h -0.0423 v -0.0423 -0.0423 h 0.0423 0.0423 v 0.0423 0.0423 z"
       id="path214" /></g></svg>
